<svg width="294" height="193" viewBox="0 0 294 193" fill="none" xmlns="http://www.w3.org/2000/svg">
<g clip-path="url(#clip0_16_263)">
<path d="M21.3271 50.2241C27.0171 48.3572 29.7105 42.8099 28.3251 37.0724C27.3738 33.1304 23.3189 31.0613 19.7039 29.9376C13.4432 27.9933 4.14416 25.954 1.90265 18.7419C-0.404264 11.3098 2.81233 4.32369 10.2563 1.5649C15.5717 -0.409055 21.3449 0.0309244 26.6425 2.35568C27.6117 2.77782 28.5154 2.50432 29.3478 1.93948C29.4262 1.88595 29.5171 1.85375 29.6118 1.846C29.7064 1.83825 29.8016 1.85519 29.8882 1.89521C29.9748 1.93522 30.0499 1.99696 30.1062 2.07448C30.1626 2.152 30.1983 2.24269 30.2099 2.33784C30.5904 5.57624 30.963 8.74528 31.3277 11.8449C31.403 12.4752 31.3733 13.1134 31.2385 13.7594C31.2258 13.8212 31.1973 13.8787 31.1557 13.9266C31.1141 13.9745 31.0607 14.0111 31.0007 14.0329C30.2277 14.3183 29.4786 13.9557 29.211 13.2006C28.01 9.85909 26.2362 7.23111 23.8897 5.31661C19.6504 1.86813 12.4265 1.85624 8.27045 5.4712C3.51987 9.60343 4.35226 16.8215 10.399 19.3959C12.8763 20.4463 15.6787 21.4293 18.8061 22.345C26.0598 24.4735 32.0233 28.136 32.6179 36.2578C33.2957 45.5211 29.0921 51.2052 20.0072 53.3099C16.0077 54.2375 11.6852 54.1106 7.03969 52.9294C4.86358 52.3765 1.86697 51.0506 1.34376 48.5891C0.876032 46.4011 0.394436 44.0486 -0.101035 41.5316C-0.323006 40.4138 -0.344807 39.3099 -0.166437 38.2199C-0.1477 38.1106 -0.0927185 38.0109 -0.0105675 37.9374C0.0715835 37.8639 0.175993 37.8209 0.285431 37.8156C1.03458 37.7799 1.53798 38.1366 1.79563 38.8858C3.43663 43.6245 5.36896 47.6437 10.2503 49.7188C13.9129 51.2765 17.6051 51.445 21.3271 50.2241Z" fill="black"/>
<path d="M116.095 52.6085C115.702 50.3075 120.982 51.4431 119.621 47.7092C118.364 44.2409 117.004 40.6953 115.542 37.0725C115.149 36.1033 114.555 35.3363 113.401 35.3363C108.173 35.3403 102.895 35.3403 97.5681 35.3363C97.1733 35.3345 96.7861 35.4447 96.4514 35.6541C96.1167 35.8636 95.8483 36.1636 95.6774 36.5195C94.3138 39.3536 92.8789 42.4513 91.3727 45.8126C89.9993 48.8924 91.5451 50.7772 94.6844 51.2291C94.9526 51.2666 95.2012 51.3903 95.3922 51.5813C95.5832 51.7724 95.7063 52.0203 95.7428 52.2874C95.7507 52.3468 95.7467 52.4083 95.7309 52.4717C95.6707 52.6646 95.5488 52.8321 95.3843 52.9483C95.2198 53.0644 95.0218 53.1226 94.8212 53.1138C89.3571 52.876 84.0655 52.4598 78.4528 52.7452C75.9239 52.872 73.3257 53.0068 70.6581 53.1495C70.5002 53.1584 70.343 53.1237 70.2035 53.0493C70.064 52.9748 69.9477 52.8635 69.8673 52.7274C69.5859 52.2517 69.6869 51.8573 70.1705 51.5442C71.7699 50.5096 74.3384 50.468 73.3039 47.5903C72.1782 44.4589 70.9692 41.2146 69.677 37.8573C69.3877 37.1121 69.0329 36.47 68.6127 35.9309C68.0479 35.2055 67.1858 35.3482 66.3237 35.3482C61.1747 35.3324 56.1705 35.3343 51.3109 35.3542C50.9058 35.3539 50.5089 35.4689 50.1668 35.6858C49.8246 35.9027 49.5512 36.2125 49.3786 36.579C48.0309 39.4368 46.6436 42.4374 45.2166 45.5807C44.84 46.4091 44.6319 47.2078 44.5923 47.9768C44.4972 49.707 46.4295 50.8604 47.9754 51.1518C48.0936 51.1715 48.2079 51.2096 48.3143 51.2647C49.2814 51.7443 49.6461 52.1705 49.4083 52.5431C49.1506 52.9474 48.782 53.1337 48.3024 53.1019C46.0985 52.9513 43.865 52.8146 41.6016 52.6917C39.9963 52.6085 38.4802 52.9236 36.9224 53.1317C36.7538 53.1537 36.5833 53.1122 36.4445 53.0152C36.3058 52.9183 36.2089 52.7731 36.1733 52.6085C36.0187 51.8791 36.3239 51.3876 37.0889 51.1339C40.5017 50.0102 42.1665 45.3726 43.6113 42.2809C49.0813 30.5362 54.6286 18.6647 60.2532 6.66638C60.5187 6.09956 60.8517 5.57436 61.252 5.09078C61.3018 5.03044 61.3642 4.98175 61.4349 4.94814C61.5055 4.91453 61.5827 4.89682 61.6609 4.89625C61.7391 4.89569 61.8165 4.91228 61.8876 4.94486C61.9588 4.97745 62.0219 5.02522 62.0725 5.08483C62.3857 5.46139 62.6334 5.88156 62.8157 6.34532C67.7625 18.9897 72.9769 32.2604 78.4588 46.1574C79.4279 48.6189 82.6861 52.989 85.4806 49.8734C86.5666 48.6645 87.4228 47.3941 88.0491 46.0623C94.3039 32.7361 100.575 19.3504 106.861 5.90534C106.948 5.71507 107.061 5.54463 107.2 5.39401C107.37 5.21168 107.539 5.08286 107.705 5.00754C107.792 4.96889 107.886 4.94824 107.981 4.94687C108.076 4.9455 108.17 4.96342 108.258 4.99955C108.346 5.03569 108.425 5.08928 108.492 5.15708C108.558 5.22489 108.61 5.30549 108.645 5.39401C113.825 18.4982 119.083 31.8581 124.419 45.4737C125.477 48.167 127.118 50.8366 130.299 51.1101C130.597 51.1345 130.882 51.2477 131.116 51.4352C131.35 51.6226 131.523 51.8759 131.613 52.1625C131.633 52.222 131.643 52.2854 131.643 52.3528C131.651 52.9434 131.359 53.205 130.769 53.1376C126.147 52.6065 121.503 52.6144 116.838 53.1614C116.667 53.1822 116.494 53.1364 116.356 53.0335C116.217 52.9306 116.124 52.7784 116.095 52.6085ZM97.8 31.4419C97.7531 31.5422 97.7322 31.6527 97.7392 31.7633C97.7462 31.8738 97.781 31.9808 97.8402 32.0743C97.8994 32.1679 97.9812 32.2451 98.0781 32.2987C98.175 32.3524 98.2838 32.3808 98.3945 32.3813L112.539 32.423C112.647 32.4234 112.753 32.3976 112.848 32.3478C112.943 32.2981 113.025 32.2258 113.085 32.1373C113.146 32.0489 113.185 31.9469 113.197 31.8402C113.21 31.7335 113.196 31.6254 113.158 31.5252L106.73 14.9725C106.684 14.8519 106.603 14.7478 106.497 14.673C106.392 14.5981 106.267 14.5558 106.138 14.5514C106.008 14.547 105.881 14.5806 105.771 14.648C105.66 14.7155 105.572 14.8138 105.517 14.9308L97.8 31.4419ZM51.5487 31.4062C51.4998 31.5113 51.4781 31.627 51.4856 31.7426C51.4932 31.8582 51.5298 31.9701 51.592 32.0679C51.6542 32.1656 51.7401 32.2461 51.8416 32.302C51.9432 32.3578 52.0571 32.3871 52.173 32.3873L66.2523 32.417C66.3644 32.4169 66.4747 32.3895 66.5738 32.3371C66.6729 32.2847 66.7577 32.209 66.8209 32.1165C66.8842 32.024 66.9239 31.9175 66.9367 31.8061C66.9495 31.6948 66.935 31.582 66.8945 31.4776L60.491 15.0676C60.4418 14.9421 60.3569 14.8337 60.2468 14.7559C60.1367 14.6781 60.0062 14.6343 59.8715 14.6299C59.7367 14.6254 59.6037 14.6606 59.4887 14.731C59.3737 14.8014 59.2819 14.9039 59.2246 15.026L51.5487 31.4062Z" fill="black"/>
<path d="M203.543 8.65202C195.428 5.63163 186.735 9.16929 182.859 16.9878C178.12 26.5187 180.462 42.6849 190.065 48.8863C193.16 50.888 196.399 51.7204 199.78 51.3834C206.716 50.6858 211.77 47.3999 214.941 41.5255C215.136 41.1648 215.433 41.0063 215.833 41.0499C215.952 41.0628 216.068 41.1009 216.171 41.1615C216.275 41.2221 216.364 41.304 216.434 41.4017C216.504 41.4995 216.552 41.6108 216.575 41.7285C216.599 41.8461 216.597 41.9675 216.57 42.0844L215.227 47.8517C215.104 48.3688 214.795 48.8236 214.359 49.13C208.978 52.8699 202.86 54.172 196.094 53.9163C185.296 53.506 177.424 47.3047 175.361 36.442C173.018 24.0929 178.245 9.05633 191.997 6.18458C194.427 5.67722 197.11 5.51668 200.047 5.70298C204.824 6.00819 209.077 7.53622 212.807 10.2871C213.443 10.7508 214.204 10.5487 214.787 10.1147C214.881 10.0432 214.993 9.99832 215.111 9.98465C215.229 9.97098 215.348 9.98902 215.457 10.0369C215.565 10.0848 215.659 10.1608 215.728 10.257C215.798 10.3533 215.84 10.4663 215.851 10.5844C216.097 13.03 216.329 15.434 216.547 17.7964C216.622 18.6169 216.634 19.4751 216.582 20.3709C216.57 20.5691 216.469 20.6979 216.279 20.7574C215.542 20.9893 214.828 20.5909 214.549 19.8834C212.521 14.7225 208.657 10.5546 203.543 8.65202Z" fill="black"/>
<path d="M146.227 9.57371C143.627 9.57767 140.894 9.55587 138.028 9.50831C136.808 9.48849 135.708 9.56777 134.729 9.74614C132.231 10.204 130.941 13.5038 130.477 15.8285C130.351 16.4548 129.98 16.6827 129.366 16.5123L129.169 16.4588C128.777 16.3478 128.603 16.0901 128.646 15.6858L129.532 7.57003C129.639 6.5989 130.18 6.14505 131.155 6.20847C133.795 6.38684 136.37 6.64845 139.075 6.64845C149.432 6.64845 159.284 6.93384 169.083 6.22036C169.875 6.16091 170.299 6.52756 170.355 7.32031L170.831 13.92C170.862 14.36 170.753 14.7603 170.504 15.121C170.095 15.7156 169.614 15.5214 169.059 14.5383C168.996 14.4243 168.956 14.3012 168.94 14.1757C168.506 10.7331 165.807 9.49047 162.643 9.52614C159.572 9.55389 156.624 9.5638 153.802 9.55587C152.986 9.55191 152.577 9.9582 152.577 10.7747C152.577 22.888 152.577 34.9042 152.577 46.8232C152.577 49.915 155.295 50.7355 157.816 51.1755C158.311 51.2627 158.583 51.556 158.63 52.0554L158.66 52.3051C158.707 52.7887 158.487 53.0503 158 53.09C154.593 53.3694 150.812 52.5251 147.886 52.8224C145.694 53.0483 143.671 53.2089 141.816 53.304C141.388 53.3238 141.067 53.1494 140.853 52.7808C140.571 52.2893 140.95 51.776 141.988 51.2409C142.142 51.1622 142.307 51.1119 142.476 51.0922C144.795 50.7949 146.994 49.9269 147 47.1502C147.028 35.8059 147.026 23.5341 146.994 10.3348C146.994 10.2343 146.975 10.1349 146.936 10.0421C146.897 9.94941 146.841 9.86525 146.769 9.7945C146.698 9.72376 146.614 9.66783 146.521 9.62993C146.428 9.59204 146.328 9.57293 146.227 9.57371Z" fill="black"/>
<path d="M234.039 30.2467C233.92 30.4766 233.859 30.7243 233.855 30.9899C233.819 35.2034 233.819 39.9024 233.855 45.0871C233.878 48.6941 235.5 50.7156 238.718 51.1516C239.313 51.2349 239.721 51.5559 239.943 52.1148C239.987 52.2218 240.002 52.3368 239.99 52.4597C239.978 52.6246 239.906 52.7794 239.788 52.8953C239.67 53.0112 239.514 53.0803 239.348 53.0899C237.553 53.2049 235.696 53.1613 233.777 52.9591C230.466 52.6143 227.237 53.0721 223.961 53.1732C223.775 53.1775 223.595 53.1127 223.455 52.9917C223.316 52.8707 223.227 52.7021 223.206 52.5191C223.127 51.8611 223.418 51.4073 224.08 51.1576C226.851 50.0992 228.551 48.5891 228.539 45.42C228.515 34.2184 228.511 23.6312 228.527 13.6583C228.533 10.1504 226.417 8.73533 223.218 8.20616C222.619 8.10707 222.376 7.76024 222.486 7.16567C222.554 6.78912 222.859 6.48985 223.402 6.26788C223.57 6.19758 223.754 6.17099 223.937 6.19059C228.729 6.78515 233.458 6.80894 238.124 6.26194C238.841 6.17474 239.216 6.49382 239.247 7.21919C239.256 7.43959 239.191 7.65651 239.063 7.83612C238.935 8.01573 238.751 8.14794 238.54 8.21211C235.829 9.04451 233.914 10.0969 233.866 13.367C233.811 17.5408 233.811 21.792 233.866 26.1204C233.868 26.3102 233.945 26.4917 234.079 26.6253C234.214 26.7589 234.396 26.8339 234.586 26.8339L258.624 26.8399C258.786 26.8399 258.94 26.7762 259.055 26.6626C259.17 26.549 259.235 26.3948 259.237 26.2334C259.284 21.9367 259.27 17.6518 259.195 13.3789C259.163 11.7062 258.511 10.3942 257.239 9.44286C256.222 8.68182 254.861 8.47372 253.654 8.09915C253.545 8.06446 253.445 8.00581 253.361 7.92758C253.278 7.84934 253.213 7.75353 253.172 7.64726C253.131 7.54099 253.115 7.427 253.124 7.31377C253.133 7.20054 253.168 7.09099 253.226 6.99325C253.459 6.59291 253.824 6.39472 254.32 6.39869C256.222 6.40662 258.069 6.50373 259.861 6.69003C262.804 7.00515 265.807 6.58895 268.815 6.38679C269.303 6.35112 269.647 6.5394 269.85 6.95163C269.905 7.06257 269.936 7.18365 269.943 7.30735C269.949 7.43104 269.93 7.55471 269.886 7.67068C269.843 7.78665 269.776 7.89244 269.69 7.98149C269.604 8.07053 269.5 8.14094 269.386 8.18833C268.292 8.64614 266.96 8.85425 266.086 9.66286C265.067 10.6023 264.56 11.7894 264.564 13.2243C264.588 23.5896 264.584 34.0519 264.552 44.6114C264.546 48.1907 265.741 50.8484 269.731 51.1576C270.234 51.1972 270.523 51.4667 270.599 51.9662L270.652 52.2872C270.735 52.8025 270.515 53.0741 269.992 53.1018C268.058 53.1969 266.205 53.1474 264.433 52.9532C261.121 52.5905 257.929 53.084 254.629 53.1553C254.456 53.1588 254.288 53.1019 254.154 52.9944C254.019 52.8868 253.926 52.7355 253.891 52.5667C253.769 51.9801 254.006 51.552 254.605 51.2824C257.923 49.802 259.278 48.5593 259.266 44.6887C259.25 40.2691 259.245 35.6513 259.248 30.8353C259.248 30.5483 259.134 30.2731 258.932 30.0702C258.729 29.8672 258.453 29.7532 258.166 29.7532L234.853 29.7592C234.687 29.7589 234.523 29.8041 234.38 29.89C234.236 29.9758 234.118 30.0991 234.039 30.2467Z" fill="black"/>
<path d="M292.936 8.16453C289.69 9.10394 288.079 10.192 288.091 13.8723C288.111 24.1663 288.121 34.6584 288.121 45.3486C288.121 48.7892 289.734 50.7057 292.96 51.0981C293.646 51.1813 293.995 51.5678 294.007 52.2575L294.013 52.5072C294.021 52.9313 293.812 53.1493 293.388 53.1612C291.494 53.2009 289.599 53.1275 287.704 52.9412C284.773 52.6499 282.038 52.971 279.172 53.1612C278.657 53.1929 278.146 53.1454 277.638 53.0185C277.428 52.9631 277.307 52.8283 277.276 52.6142C277.165 51.9285 277.458 51.4529 278.156 51.1873C282.966 49.3739 282.698 46.734 282.769 42.3877C282.912 33.6476 282.918 24.0632 282.704 14.1102C282.627 10.739 281.283 8.6818 277.674 8.24776C277.458 8.22169 277.26 8.11731 277.115 7.9542C276.971 7.7911 276.89 7.58048 276.889 7.36186C276.889 7.21916 276.917 7.0844 276.972 6.95756C277.218 6.38281 277.652 6.13309 278.275 6.2084C283.305 6.82278 288.047 6.82675 292.502 6.22029C292.68 6.19576 292.86 6.22714 293.02 6.31014C293.179 6.39314 293.31 6.52372 293.394 6.68405C293.589 7.06061 293.594 7.4233 293.412 7.77211C293.309 7.9703 293.151 8.10111 292.936 8.16453Z" fill="black"/>
<path d="M124.977 87.8483C124.51 87.1784 124.072 86.5026 123.663 85.8208C119.947 79.5719 122.433 72.0804 129.651 70.0945C133.753 68.9589 137.743 69.6308 141.685 71.3075C141.891 71.3907 142.093 71.3867 142.291 71.2956L143.486 70.7604C143.599 70.7095 143.722 70.687 143.845 70.6951C143.968 70.7033 144.087 70.7417 144.192 70.807C144.297 70.8723 144.384 70.9625 144.445 71.0695C144.507 71.1765 144.541 71.297 144.545 71.4204L144.854 79.9822C144.86 80.1646 144.803 80.3434 144.692 80.4878C144.581 80.6321 144.424 80.7329 144.247 80.7729C143.613 80.9117 143.175 80.6639 142.933 80.0297C141.82 77.1203 140.008 74.8154 137.499 73.1149C134.675 71.2004 130.358 70.9329 128.004 73.6084C125.572 76.385 126.684 79.8276 128.527 82.5923C130.239 85.1608 132.188 87.6362 134.372 90.0184C139.889 96.0473 146.237 102.383 153.416 109.027C153.59 109.189 153.745 109.173 153.879 108.979C155.681 106.405 157.952 101.363 154.979 99.1926C153.58 98.1699 151.814 97.5258 149.682 97.2602C149.552 97.2445 149.431 97.204 149.325 97.1413C148.651 96.737 148.378 96.3862 148.504 96.0889C148.617 95.8213 148.809 95.5953 149.053 95.4419C149.297 95.2885 149.581 95.2155 149.866 95.2328C154.607 95.5459 159.121 95.5439 163.41 95.2268C163.715 95.207 164.009 95.2308 164.29 95.2982C166.236 95.7857 166.316 96.4774 164.528 97.3732C162.215 98.5326 159.575 98.3186 159.45 101.838C159.339 105.001 158.249 108.048 156.18 110.977C156.01 111.215 156.036 111.429 156.258 111.619C159.736 114.568 163.434 117.927 167.275 119.937C168.845 120.757 170.224 120.341 171.776 119.955C171.907 119.921 172.046 119.924 172.176 119.964C172.306 120.003 172.422 120.077 172.513 120.179C172.604 120.28 172.665 120.404 172.69 120.537C172.715 120.671 172.703 120.809 172.656 120.936C172.263 121.982 171.181 122.63 170.176 122.963C163.624 125.157 157.292 120.621 152.524 116.387C152.423 116.297 152.292 116.249 152.157 116.252C152.023 116.256 151.894 116.31 151.798 116.405C145.991 122.073 138.811 124.44 130.257 123.504C118.836 122.256 111.778 113.04 112.747 101.607C113.318 94.8522 118.473 89.9946 124.805 88.312C125.083 88.2407 125.14 88.0861 124.977 87.8483ZM122.694 91.2432C115.476 95.0841 115.851 104.08 120.007 109.829C124.593 116.175 130.582 119.17 137.975 118.813C142.232 118.611 146.192 117.095 149.61 114.52C149.648 114.492 149.678 114.456 149.7 114.415C149.721 114.373 149.733 114.328 149.735 114.281C149.737 114.234 149.728 114.188 149.709 114.145C149.691 114.102 149.663 114.064 149.628 114.033C141.685 106.969 134.673 99.7634 128.592 92.4145C126.944 90.4208 124.977 90.0303 122.694 91.2432Z" fill="black"/>
<path d="M20.5183 169.179C17.5772 168.216 14.7133 167.268 11.9268 166.337C7.11082 164.726 2.58618 161.64 1.53974 156.336C-0.202335 147.448 5.07741 141.092 13.6391 139.605C18.0548 138.836 22.3713 139.393 26.5888 141.276C27.5104 141.692 28.4557 141.585 29.2524 140.919C29.3308 140.853 29.4255 140.81 29.5265 140.793C29.6275 140.776 29.7312 140.787 29.8267 140.824C29.9221 140.861 30.0058 140.923 30.0691 141.004C30.1323 141.084 30.1726 141.18 30.1859 141.282C30.6259 144.762 31.0183 148.135 31.3631 151.401C31.4067 151.822 31.3612 152.198 31.2264 152.531C31.1542 152.708 31.0305 152.86 30.8714 152.966C30.7122 153.072 30.5249 153.128 30.3335 153.127C30.1421 153.126 29.9555 153.067 29.7978 152.959C29.6401 152.851 29.5185 152.697 29.4486 152.519C26.4223 144.927 21.315 140.093 12.5273 142.18C8.97776 143.024 5.95142 145.813 5.3628 149.529C4.64932 154 6.99191 157.08 11.2371 158.703C19.7453 161.967 30.4891 162.924 32.4096 173.793C33.8246 181.807 30.4832 188.913 22.5398 191.588C18.3957 192.979 12.1884 193.11 7.42594 191.975C4.95849 191.392 1.88459 190.078 1.30191 187.361C0.671675 184.431 0.164314 181.841 -0.220171 179.59C-0.354939 178.809 -0.350975 178.014 -0.20828 177.206C-0.168642 176.972 -0.0338736 176.841 0.196025 176.813C0.988779 176.718 1.52191 177.045 1.79541 177.794C3.50775 182.444 5.02389 186.13 9.72096 188.449C11.8812 189.519 14.424 190.001 17.3492 189.894C24.1927 189.638 29.0146 185.113 28.646 177.978C28.3963 173.073 24.7337 170.552 20.5183 169.179Z" fill="black"/>
<path d="M73.4409 188.092C73.5241 187.442 73.4587 186.827 73.2447 186.249C72.0476 183.006 70.6821 179.459 69.1481 175.606C68.9854 175.199 68.7041 174.85 68.3407 174.604C67.9772 174.358 67.5481 174.227 67.1088 174.227C62.4751 174.23 57.2528 174.234 51.442 174.238C50.1934 174.238 49.4561 175.255 48.9864 176.278C47.7893 178.894 46.5923 181.5 45.3952 184.096C44.7234 185.565 43.9802 187.42 45.3655 188.776C46.2217 189.608 47.2285 190.068 48.3859 190.155C48.9448 190.199 49.2956 190.49 49.4383 191.029C49.5294 191.366 49.2817 191.695 48.6951 192.016C48.5214 192.112 48.3191 192.15 48.1183 192.123C43.9405 191.528 40.2403 191.499 37.0178 192.034C36.8127 192.067 36.6031 192.018 36.4348 191.897C36.2666 191.777 36.1533 191.595 36.12 191.392C36.0764 191.142 36.1081 190.904 36.2151 190.678C36.2789 190.547 36.3689 190.431 36.4794 190.336C36.59 190.242 36.7186 190.172 36.8573 190.131C39.4615 189.358 40.8944 186.992 41.9824 184.661C47.9756 171.823 54.1274 158.687 60.4377 145.253C60.628 144.845 60.8916 144.474 61.2285 144.142C61.7676 143.614 62.1739 143.702 62.4474 144.403C67.8579 158.181 73.2367 171.807 78.5839 185.279C79.6541 187.973 82.942 191.968 85.7603 188.52C86.779 187.275 87.6133 185.963 88.2634 184.584C95.0732 170.069 100.928 157.533 105.827 146.978C106.334 145.88 106.893 144.912 107.504 144.076C107.572 143.982 107.665 143.908 107.773 143.861C107.88 143.815 107.997 143.798 108.113 143.813C108.229 143.827 108.339 143.873 108.432 143.944C108.524 144.015 108.596 144.11 108.639 144.219C113.768 157.351 119.147 171.018 124.776 185.22C125.969 188.236 127.968 189.885 130.775 190.167C130.991 190.19 131.191 190.29 131.339 190.448C131.487 190.607 131.571 190.813 131.577 191.029L131.589 191.302C131.605 191.917 131.308 192.184 130.698 192.105C125.985 191.495 121.45 191.489 117.094 192.087C116.717 192.139 116.43 192.004 116.232 191.683C116.049 191.39 116.045 191.051 116.22 190.666C116.277 190.537 116.364 190.422 116.473 190.331C116.583 190.241 116.712 190.176 116.85 190.143C119.379 189.541 120.289 188.308 119.579 186.445C118.176 182.751 116.814 179.223 115.494 175.862C115.07 174.779 114.29 174.236 113.152 174.232C107.932 174.225 102.797 174.227 97.7467 174.238C97.2948 174.24 96.8527 174.371 96.4718 174.614C96.0908 174.857 95.7866 175.203 95.5944 175.612C94.2388 178.474 92.9387 181.278 91.694 184.025C91.4007 184.663 91.153 185.355 90.9508 186.1C90.2374 188.728 92.7167 189.87 94.8155 190.232C95.2872 190.312 95.5904 190.579 95.7252 191.035C95.8084 191.32 95.6697 191.61 95.309 191.903C95.1556 192.026 94.9649 192.087 94.7739 192.075C89.399 191.802 84.0301 191.362 78.679 191.653C75.9281 191.804 73.2744 191.954 70.7178 192.105C70.5015 192.118 70.2879 192.053 70.1164 191.922C69.9448 191.791 69.8269 191.603 69.7843 191.392C69.7209 191.09 69.8021 190.819 70.0281 190.577C70.9378 189.596 73.2149 189.899 73.4409 188.092ZM97.8121 170.32C97.7636 170.424 97.7418 170.539 97.7488 170.654C97.7558 170.768 97.7913 170.879 97.8521 170.977C97.913 171.074 97.9972 171.155 98.0972 171.212C98.1971 171.268 98.3096 171.299 98.4245 171.301L112.587 171.646C112.701 171.649 112.815 171.624 112.917 171.573C113.019 171.521 113.107 171.445 113.172 171.351C113.238 171.258 113.279 171.149 113.292 171.036C113.305 170.922 113.289 170.807 113.247 170.701L106.57 153.964C106.521 153.837 106.436 153.727 106.325 153.648C106.214 153.57 106.082 153.526 105.946 153.522C105.81 153.518 105.676 153.555 105.56 153.627C105.445 153.699 105.354 153.804 105.298 153.928L97.8121 170.32ZM51.5609 170.285C51.5116 170.392 51.4898 170.51 51.4973 170.627C51.5048 170.745 51.5415 170.859 51.6039 170.96C51.6664 171.06 51.7527 171.143 51.8552 171.201C51.9577 171.26 52.0731 171.292 52.1911 171.295L66.318 171.64C66.4362 171.643 66.5532 171.616 66.6586 171.562C66.7639 171.509 66.8542 171.43 66.9215 171.332C66.9887 171.235 67.0306 171.123 67.0436 171.005C67.0566 170.888 67.0402 170.769 66.9958 170.659L60.3367 154.035C60.2856 153.904 60.1972 153.792 60.0824 153.711C59.9677 153.63 59.8317 153.585 59.6915 153.582C59.5513 153.578 59.4131 153.615 59.2941 153.69C59.1751 153.764 59.0807 153.872 59.0227 153.999L51.5609 170.285Z" fill="black"/>
<path d="M213.925 149.451L214.715 149.059C215.397 148.722 215.78 148.932 215.863 149.689C216.152 152.309 216.384 154.832 216.559 157.258C216.61 157.967 216.614 158.671 216.57 159.369C216.565 159.458 216.534 159.544 216.48 159.616C216.426 159.688 216.352 159.743 216.267 159.773C215.572 160.023 214.9 159.618 214.638 158.964C211.071 149.921 202.325 144.463 192.645 147.364C176.532 152.186 177.585 178.365 189.06 187.105C197.616 193.621 210.333 189.757 214.924 180.404C215.013 180.22 215.166 180.074 215.355 179.993C215.543 179.911 215.755 179.899 215.952 179.958C216.463 180.113 216.662 180.468 216.547 181.023C216.13 183.02 215.689 184.919 215.221 186.719C215.074 187.273 214.767 187.719 214.299 188.056C208.556 192.177 202.348 192.967 195.398 192.688C187.97 192.395 182.367 189.396 178.59 183.692C173.577 176.123 173.684 164.19 177.87 156.277C181.913 148.631 188.325 144.724 197.104 144.558C203.351 144.439 208.653 146.04 213.009 149.362C213.139 149.46 213.293 149.521 213.455 149.536C213.617 149.552 213.779 149.523 213.925 149.451Z" fill="black"/>
<path d="M146.566 148.666C146.372 148.532 146.156 148.464 145.918 148.464C142.64 148.48 139.432 148.482 136.292 148.47C132.463 148.452 131.048 151.722 130.43 154.939C130.4 155.1 130.314 155.245 130.187 155.347C130.061 155.45 129.902 155.503 129.74 155.498L129.52 155.492C128.886 155.476 128.602 155.151 128.67 154.517L129.532 146.425C129.571 146.049 129.757 145.703 130.049 145.461C130.341 145.22 130.717 145.103 131.096 145.135C140.567 145.925 149.979 145.896 160.093 145.658C163.196 145.586 166.229 145.408 169.189 145.123C169.33 145.11 169.471 145.125 169.605 145.167C169.739 145.209 169.863 145.277 169.971 145.368C170.078 145.459 170.166 145.57 170.23 145.696C170.294 145.821 170.332 145.958 170.343 146.098L170.866 153.363C170.875 153.495 170.855 153.628 170.807 153.751C170.759 153.874 170.683 153.986 170.587 154.077C170.361 154.291 170.125 154.378 169.879 154.338C169.372 154.255 169.084 153.96 169.017 153.453C168.569 150.206 166.684 148.553 163.363 148.494C159.926 148.434 156.65 148.448 153.535 148.536C153.315 148.541 153.105 148.626 152.945 148.777C152.785 148.927 152.685 149.131 152.667 149.35C152.619 149.869 152.595 150.363 152.595 150.831C152.571 162.896 152.565 174.486 152.577 185.601C152.577 189.025 155.199 189.519 157.94 190.161C158.396 190.268 158.622 190.557 158.618 191.029V191.237C158.614 191.895 158.285 192.214 157.631 192.194C155.966 192.143 154.274 192.026 152.554 191.844C149.521 191.523 146.519 191.749 143.552 192.189C142.878 192.288 142.188 192.296 141.483 192.212C141.376 192.199 141.273 192.165 141.179 192.112C141.086 192.058 141.004 191.987 140.938 191.902C140.872 191.817 140.824 191.719 140.796 191.616C140.768 191.512 140.761 191.403 140.775 191.297C141.084 188.936 147.036 191.029 147.03 185.898C147.01 174.066 147.006 161.941 147.018 149.522C147.018 149.354 146.977 149.188 146.899 149.039C146.82 148.89 146.706 148.762 146.566 148.666Z" fill="black"/>
<path d="M233.866 164.939C233.87 165.202 233.976 165.453 234.161 165.638C234.347 165.823 234.598 165.926 234.859 165.926L258.232 165.921C258.492 165.921 258.742 165.818 258.928 165.634C259.113 165.451 259.22 165.201 259.225 164.939C259.276 161.229 259.282 157.474 259.242 153.672C259.201 149.32 257.923 148.101 253.814 147.097C253.605 147.043 253.422 146.916 253.299 146.739C253.177 146.562 253.123 146.347 253.148 146.133C253.216 145.586 253.521 145.309 254.064 145.301C255.903 145.277 258.051 145.402 260.509 145.676C262.019 145.846 264.796 145.695 268.839 145.224C269.378 145.164 269.727 145.394 269.885 145.913C269.992 146.262 269.947 146.591 269.748 146.9C269.69 146.996 269.613 147.077 269.52 147.14C269.428 147.202 269.323 147.244 269.213 147.263C266.082 147.782 264.526 149.528 264.546 152.501C264.617 162.605 264.613 172.778 264.534 183.02C264.504 186.754 265.39 189.685 269.558 190.107C270.141 190.167 270.509 190.478 270.664 191.041C270.68 191.112 270.682 191.186 270.67 191.261C270.551 191.915 270.159 192.228 269.493 192.2C267.42 192.109 265.396 191.988 263.422 191.838C260.545 191.612 257.536 191.945 254.635 192.2C254.474 192.215 254.313 192.173 254.179 192.082C254.046 191.991 253.948 191.856 253.903 191.701C253.659 190.88 254.242 190.209 254.979 189.971C258.238 188.924 259.207 186.879 259.231 183.555C259.262 178.93 259.262 174.284 259.231 169.619C259.229 169.38 259.133 169.152 258.964 168.984C258.794 168.815 258.565 168.721 258.327 168.721H234.723C234.498 168.721 234.282 168.809 234.121 168.967C233.961 169.125 233.87 169.34 233.866 169.565C233.807 174.805 233.805 179.701 233.86 184.251C233.904 187.791 235.668 189.767 239.152 190.179C239.612 190.23 239.871 190.486 239.931 190.946C239.975 191.279 239.846 191.616 239.544 191.957C239.433 192.081 239.293 192.177 239.136 192.236C238.98 192.295 238.812 192.316 238.647 192.295C233.311 191.669 228.501 191.649 224.217 192.236C223.689 192.307 223.382 192.081 223.295 191.558L223.259 191.362C223.14 190.652 223.428 190.203 224.121 190.012C227.039 189.204 228.501 187.329 228.509 184.388C228.533 174.07 228.537 163.471 228.521 152.59C228.515 148.993 226.547 147.798 223.283 147.168C222.689 147.053 222.417 146.694 222.469 146.092C222.473 146.012 222.492 145.937 222.528 145.866C222.659 145.615 222.864 145.41 223.114 145.278C223.365 145.146 223.65 145.094 223.931 145.129C228.442 145.695 233.171 145.717 238.118 145.194C238.325 145.173 238.534 145.213 238.717 145.309C238.9 145.406 239.049 145.554 239.146 145.735C239.324 146.064 239.307 146.377 239.093 146.674C238.938 146.888 238.706 147.049 238.397 147.156C235.597 148.107 233.89 149.225 233.86 152.382C233.813 156.889 233.815 161.075 233.866 164.939Z" fill="black"/>
<path d="M288.132 184.495C288.138 187.551 289.892 189.965 293.002 190.06C293.727 190.08 294.058 190.452 293.995 191.178C293.991 191.245 293.985 191.312 293.977 191.38C293.964 191.514 293.925 191.644 293.861 191.762C293.797 191.881 293.71 191.985 293.604 192.069C293.499 192.154 293.378 192.216 293.248 192.253C293.118 192.29 292.981 192.3 292.847 192.283C288.094 191.689 283.384 191.651 278.714 192.171C278.042 192.248 277.382 192.034 277.222 191.279C277.187 191.105 277.211 190.924 277.291 190.767C277.371 190.609 277.502 190.484 277.662 190.411C279.814 189.424 282.038 188.68 282.46 185.939C282.678 184.52 282.795 182.903 282.811 181.088C282.874 173.846 282.856 165.766 282.757 156.847C282.733 154.653 282.965 151.467 281.907 149.558C281.178 148.238 279.828 147.463 277.858 147.233C277.327 147.17 277.024 146.873 276.948 146.341C276.913 146.108 276.946 145.866 277.049 145.616C277.123 145.439 277.253 145.292 277.419 145.197C277.584 145.102 277.777 145.065 277.965 145.093C282.793 145.755 287.603 145.779 292.395 145.164C292.899 145.101 293.237 145.307 293.412 145.783C293.65 146.429 293.451 146.88 292.817 147.138C290.344 148.131 288.132 148.642 288.126 151.912C288.098 162.127 288.1 172.988 288.132 184.495Z" fill="black"/>
</g>
<defs>
<clipPath id="clip0_16_263">
<rect width="293.715" height="192.639" fill="white" transform="translate(0 0.173584)"/>
</clipPath>
</defs>
</svg>
