<svg width="489" height="119" viewBox="0 0 489 119" fill="none" xmlns="http://www.w3.org/2000/svg">
<g clip-path="url(#clip0_16_32)">
<path d="M263.973 88.4514L263.733 85.9476C263.615 84.9925 264.092 84.3975 265.157 84.1601C270.772 83.205 272.324 80.9523 272.324 74.5146V52.2354C272.324 48.0628 269.816 45.4416 265.992 45.4416C261.703 45.4416 256.088 48.7791 251.669 54.7378V75.8163C251.669 81.0614 253.113 83.2063 257.523 84.1601C258.597 84.3985 259.075 84.9943 258.956 85.9476L258.716 88.4514C258.676 88.859 258.48 89.2352 258.168 89.5016C257.856 89.7681 257.454 89.9041 257.044 89.8814H232.935C232.524 89.9072 232.12 89.7723 231.808 89.5053C231.495 89.2382 231.3 88.8602 231.262 88.4514L231.023 85.9476C230.904 84.9925 231.372 84.3975 232.447 84.1601C236.275 83.205 237.822 81.0614 237.822 75.8163V52.4741C237.822 48.3029 235.313 45.4416 231.5 45.4416C227.2 45.4416 222.065 48.6591 217.654 54.7378V74.5173C217.654 80.9536 219.196 83.2091 224.811 84.1629C225.886 84.4012 226.363 84.997 226.244 85.9503L226.005 88.4542C225.964 88.8617 225.768 89.2379 225.456 89.5044C225.145 89.7708 224.742 89.9069 224.332 89.8841H196.151C195.742 89.9038 195.341 89.7667 195.03 89.5008C194.719 89.2349 194.522 88.8605 194.478 88.4542L194.239 85.9503C194.194 85.7362 194.198 85.5149 194.248 85.3022C194.299 85.0894 194.397 84.8906 194.534 84.7199C194.671 84.5491 194.844 84.4106 195.041 84.3143C195.237 84.218 195.453 84.1663 195.672 84.1629C201.884 83.2077 203.676 80.9549 203.676 74.5173L203.557 56.5294C203.557 52.118 200.685 49.3768 196.638 48.6618C195.553 48.423 195.075 47.9468 195.075 46.993V44.4892C195.039 44.0985 195.14 43.7076 195.359 43.3821C195.578 43.0566 195.903 42.8164 196.279 42.7017C203.122 40.7373 209.695 37.938 215.85 34.3674C216.627 33.8431 217.54 33.5536 218.478 33.5338C218.645 33.5195 218.813 33.546 218.967 33.6109C219.121 33.6759 219.256 33.7773 219.362 33.9065C219.468 34.0357 219.541 34.1887 219.574 34.3522C219.607 34.5158 219.6 34.6849 219.553 34.8451L216.925 46.9889C222.539 41.0288 228.86 35.556 237.7 35.556C240.919 35.396 244.086 36.4077 246.612 38.403C249.139 40.3983 250.854 43.2413 251.437 46.4035C257.044 40.5635 263.493 35.556 272.203 35.556C281.521 35.556 287.006 42.8273 287.006 51.7564V74.5173C287.006 80.9536 288.569 83.2091 294.77 84.1629C294.99 84.1646 295.206 84.2152 295.404 84.3109C295.602 84.4067 295.775 84.5451 295.913 84.7164C296.05 84.8876 296.147 85.0872 296.198 85.3007C296.248 85.5141 296.25 85.7361 296.203 85.9503L295.964 88.4542C295.924 88.8617 295.727 89.2379 295.415 89.5044C295.104 89.7708 294.701 89.9069 294.291 89.8841H265.642C265.233 89.9069 264.83 89.7708 264.518 89.5044C264.207 89.2379 264.01 88.8617 263.97 88.4542" fill="black"/>
<path d="M263.973 88.4514L263.733 85.9476C263.615 84.9925 264.092 84.3975 265.157 84.1601C270.772 83.205 272.324 80.9523 272.324 74.5146V52.2354C272.324 48.0628 269.816 45.4416 265.992 45.4416C261.703 45.4416 256.088 48.7791 251.669 54.7378V75.8163C251.669 81.0614 253.113 83.2063 257.523 84.1601C258.597 84.3985 259.075 84.9943 258.956 85.9476L258.716 88.4514C258.676 88.859 258.48 89.2352 258.168 89.5016C257.856 89.7681 257.454 89.9041 257.044 89.8814H232.935C232.524 89.9072 232.12 89.7723 231.808 89.5053C231.495 89.2382 231.3 88.8602 231.262 88.4514L231.023 85.9476C230.904 84.9925 231.372 84.3975 232.447 84.1601C236.275 83.205 237.822 81.0614 237.822 75.8163V52.4741C237.822 48.3029 235.313 45.4416 231.5 45.4416C227.2 45.4416 222.065 48.6591 217.654 54.7378V74.5173C217.654 80.9536 219.196 83.2091 224.811 84.1629C225.886 84.4012 226.363 84.997 226.244 85.9503L226.005 88.4542C225.964 88.8617 225.768 89.2379 225.456 89.5044C225.145 89.7708 224.742 89.9069 224.332 89.8841H196.151C195.742 89.9038 195.341 89.7667 195.03 89.5008C194.719 89.2349 194.522 88.8605 194.478 88.4542L194.239 85.9503C194.194 85.7362 194.198 85.5149 194.248 85.3022C194.299 85.0894 194.397 84.8906 194.534 84.7199C194.671 84.5491 194.844 84.4106 195.041 84.3143C195.237 84.218 195.453 84.1663 195.672 84.1629C201.884 83.2077 203.676 80.9549 203.676 74.5173L203.557 56.5294C203.557 52.118 200.685 49.3768 196.638 48.6618C195.553 48.423 195.075 47.9468 195.075 46.993V44.4892C195.039 44.0985 195.14 43.7076 195.359 43.3821C195.578 43.0566 195.903 42.8164 196.279 42.7017C203.122 40.7373 209.695 37.938 215.85 34.3674C216.627 33.8431 217.54 33.5536 218.478 33.5338C218.645 33.5195 218.813 33.546 218.967 33.6109C219.121 33.6759 219.256 33.7773 219.362 33.9065C219.468 34.0357 219.541 34.1887 219.574 34.3522C219.607 34.5158 219.6 34.6849 219.553 34.8451L216.925 46.9889C222.539 41.0288 228.86 35.556 237.7 35.556C240.919 35.396 244.086 36.4077 246.612 38.403C249.139 40.3983 250.854 43.2413 251.437 46.4035C257.044 40.5635 263.493 35.556 272.203 35.556C281.521 35.556 287.006 42.8273 287.006 51.7564V74.5173C287.006 80.9536 288.569 83.2091 294.77 84.1629C294.99 84.1646 295.206 84.2152 295.404 84.3109C295.602 84.4067 295.775 84.5451 295.913 84.7164C296.05 84.8876 296.147 85.0872 296.198 85.3007C296.248 85.5141 296.25 85.7361 296.203 85.9503L295.964 88.4542C295.924 88.8617 295.727 89.2379 295.415 89.5044C295.104 89.7708 294.701 89.9069 294.291 89.8841H265.642C265.233 89.9069 264.83 89.7708 264.518 89.5044C264.207 89.2379 264.01 88.8617 263.97 88.4542" stroke="black" stroke-width="3.25449"/>
<path d="M474.373 81.6594C467.444 87.9674 460.038 92.2587 452.87 92.2587C444.4 92.2587 438.556 87.0137 438.914 78.0845C439.391 67.4756 440.458 59.9764 440.458 51.3938C440.458 45.5634 438.68 42.8208 433.18 41.8683C432.095 41.6296 431.627 41.0333 431.746 40.0809L431.985 37.5771C432.024 37.1689 432.22 36.7916 432.532 36.5248C432.844 36.2581 433.248 36.1226 433.658 36.1471H453.238C453.437 36.1276 453.637 36.1503 453.826 36.2136C454.015 36.277 454.189 36.3795 454.335 36.5146C454.482 36.6497 454.598 36.8142 454.677 36.9973C454.755 37.1804 454.793 37.378 454.79 37.5771C454.79 48.4138 453.953 60.8101 452.997 73.4356C452.639 78.4419 455.506 80.9403 460.284 80.9403C464.824 80.9403 469.951 77.2453 474.002 72.954V51.5084C474.002 45.678 472.225 42.8167 466.725 41.8643C465.649 41.625 465.172 41.0292 465.292 40.0768L465.53 37.573C465.57 37.1655 465.767 36.7892 466.078 36.5228C466.39 36.2563 466.792 36.1203 467.202 36.143H486.663C486.862 36.1235 487.062 36.1462 487.252 36.2095C487.441 36.2729 487.615 36.3755 487.761 36.5105C487.908 36.6456 488.024 36.8101 488.102 36.9932C488.181 37.1763 488.219 37.374 488.215 37.573V80.7029C488.215 101.195 468.277 118.349 446.555 118.349C443.242 118.405 439.991 117.448 437.239 115.608C436.613 115.19 436.093 114.634 435.717 113.984C435.342 113.333 435.122 112.604 435.075 111.854C435.027 111.105 435.154 110.355 435.445 109.662C435.735 108.969 436.182 108.352 436.751 107.86L443.559 101.311C443.858 100.973 444.226 100.702 444.639 100.517C445.051 100.332 445.498 100.236 445.95 100.237H448.339C448.79 100.208 449.241 100.304 449.642 100.515C450.042 100.725 450.376 101.042 450.608 101.429C451.544 103.182 452.937 104.649 454.64 105.676C456.343 106.702 458.293 107.249 460.283 107.26C469.829 107.26 474.727 98.9255 474.478 88.5555L474.373 81.6594Z" fill="black" stroke="black" stroke-width="3.25449"/>
<path d="M160.316 71.9726L158.645 70.7815C158.245 70.526 157.763 70.4329 157.297 70.5215C156.83 70.61 156.416 70.8735 156.138 71.2577C154.397 73.3556 152.233 75.0654 149.787 76.2763C147.341 77.4872 144.668 78.1724 141.94 78.2875C132.642 78.5263 126.548 73.284 124.041 65.4314L154.826 53.7555C155.197 53.6352 155.517 53.3932 155.734 53.0688C155.951 52.7444 156.051 52.3566 156.019 51.968V50.3006C156.017 49.6617 155.94 49.0253 155.791 48.404C153.877 40.7779 148.27 32.9158 136.568 32.9158C120.818 32.9158 109.724 45.6641 109.724 62.0952C109.724 77.4538 120.699 90.9076 136.926 90.7875C149.702 90.6688 157.574 81.9811 160.796 74.2363C160.984 73.8604 161.039 73.432 160.952 73.021C160.864 72.6099 160.64 72.2404 160.316 71.9726ZM133.351 40.0629C139.55 40.0629 142.65 45.1852 141.581 51.133L123.202 59.4727C120.457 49.5938 124.158 40.0629 133.351 40.0629Z" fill="black" stroke="black" stroke-width="3.25449"/>
<path d="M389.567 74.6582C389.567 81.0985 390.525 83.354 396.74 84.3092C396.959 84.312 397.174 84.3634 397.371 84.4598C397.568 84.5562 397.741 84.695 397.877 84.8663C398.013 85.0376 398.11 85.2369 398.159 85.4499C398.209 85.663 398.21 85.8843 398.163 86.098L397.925 88.6031C397.886 89.0117 397.69 89.3893 397.378 89.6563C397.066 89.9233 396.662 90.059 396.251 90.0345H368.063C367.653 90.0572 367.25 89.921 366.938 89.6543C366.626 89.3876 366.43 89.011 366.389 88.6031L366.15 86.098C366.103 85.8835 366.105 85.6613 366.155 85.4475C366.205 85.2338 366.303 85.034 366.44 84.8626C366.577 84.6912 366.751 84.5526 366.949 84.4568C367.147 84.3611 367.364 84.3106 367.584 84.3092C373.799 83.354 375.592 81.0985 375.592 74.6582L375.462 56.6607C375.462 52.2479 372.603 49.5039 368.54 48.7889C367.464 48.5501 366.987 48.074 366.987 47.1202V44.615C366.948 44.225 367.046 43.8336 367.264 43.5075C367.482 43.1813 367.806 42.9406 368.182 42.8261C375.026 40.8564 381.603 38.056 387.763 34.4878C388.544 33.9612 389.461 33.6712 390.403 33.6528C390.569 33.6388 390.736 33.6656 390.89 33.7308C391.043 33.7961 391.178 33.8978 391.283 34.0271C391.388 34.1564 391.46 34.3094 391.492 34.4727C391.524 34.636 391.516 34.8047 391.468 34.964L388.848 47.1188C394.455 41.156 401.155 35.679 409.993 35.679C419.306 35.679 424.803 42.9544 424.803 51.8891V74.6582C424.803 81.0985 426.347 83.354 432.562 84.3092C432.782 84.3101 432.999 84.3601 433.197 84.4557C433.396 84.5513 433.57 84.69 433.707 84.8616C433.845 85.0331 433.942 85.2332 433.992 85.4472C434.042 85.6611 434.043 85.8835 433.995 86.098L433.757 88.6031C433.717 89.0093 433.523 89.3846 433.213 89.6512C432.904 89.9177 432.503 90.055 432.094 90.0345H403.302C402.891 90.0572 402.488 89.921 402.177 89.6543C401.865 89.3876 401.668 89.011 401.628 88.6031L401.39 86.098C401.343 85.8836 401.345 85.6615 401.395 85.4479C401.445 85.2342 401.542 85.0344 401.68 84.8631C401.817 84.6917 401.991 84.5531 402.189 84.4572C402.386 84.3614 402.603 84.3108 402.823 84.3092C409.038 83.354 410.105 81.0985 410.105 74.6582V52.3666C410.105 48.1926 407.605 45.5688 403.78 45.5688C399.478 45.5688 393.98 48.6689 389.567 54.7518V74.6582Z" fill="black" stroke="black" stroke-width="3.25449"/>
<path d="M364.073 82.8812L363.585 79.5519C363.466 78.5886 362.399 78.3498 361.562 78.8273C359.537 79.9009 357.282 80.4737 354.989 80.4975C354.458 80.554 353.921 80.4915 353.417 80.3143C352.914 80.1372 352.456 79.8499 352.078 79.4737C351.7 79.0974 351.411 78.6416 351.232 78.1395C351.053 77.6375 350.989 77.1019 351.044 76.5719V34.831C351.054 34.714 351.049 34.5962 351.03 34.4803C351.009 34.2839 350.921 34.1006 350.781 33.9605C350.758 33.9369 350.734 33.9146 350.709 33.8936C350.67 33.8616 350.628 33.8329 350.584 33.8077L350.568 33.7994C350.455 33.739 350.332 33.6985 350.206 33.6794H350.171C350.108 33.6708 350.045 33.6663 349.982 33.6658H349.965C349.023 33.6842 348.106 33.9742 347.325 34.5008C344.628 36.0195 342.128 37.3144 339.597 38.4714C335.049 35.4995 329.731 33.9127 324.294 33.9045C307.084 33.9045 296.226 46.0593 296.226 62.8656C296.226 78.9665 305.061 91.9564 321.067 91.9564C324.447 91.9537 327.779 91.1527 330.79 89.6188C333.8 88.0848 336.404 85.8617 338.388 83.131C338.996 85.4549 340.38 87.5022 342.313 88.9338C344.245 90.3653 346.61 91.0953 349.015 91.0027C354.283 90.9342 359.343 88.9397 363.236 85.3973C363.579 85.0839 363.836 84.6883 363.982 84.2479C364.129 83.8075 364.16 83.337 364.073 82.8812ZM331.573 78.8328C324.521 81.4472 315.567 78.1069 311.155 67.7409C306.369 56.5399 308.046 46.7607 314.97 43.5405C322.38 40.0911 331.822 43.7793 336.832 55.5862C341.611 66.9059 338.505 76.1994 331.573 78.8328Z" fill="black" stroke="black" stroke-width="3.25449"/>
<path d="M108.314 83.3318C102.101 82.3671 100.549 80.113 100.549 73.6754V50.9199C100.549 41.9907 95.0647 34.718 85.7566 34.718C76.9175 34.718 70.9445 40.0819 65.3394 46.0433L65.9124 1.97045C65.9231 1.86794 65.9231 1.76465 65.9124 1.66214C65.9043 1.53035 65.8695 1.40153 65.8101 1.28354C65.7507 1.16555 65.668 1.06076 65.5669 0.975569C65.4658 0.890379 65.3484 0.826522 65.2219 0.787852C65.0954 0.749183 64.9623 0.73663 64.8307 0.750709C63.8887 0.769167 62.9721 1.0591 62.1916 1.58569C56.6456 4.79955 50.7586 7.38797 44.6392 9.3032L43.9637 9.58569C43.6953 9.69152 43.4521 9.85229 43.2499 10.0577C43.0774 10.2529 42.9452 10.4803 42.8609 10.7266C42.7767 10.973 42.742 11.2334 42.759 11.4932V13.8674C42.759 14.8225 43.2362 15.3083 44.322 15.5361C48.3832 16.2511 51.2398 18.9924 51.2398 23.4037L51.3697 73.674C51.3697 80.1116 49.5674 82.3658 43.3661 83.3305C43.1471 83.3315 42.931 83.381 42.7334 83.4754C42.5358 83.5698 42.3617 83.7068 42.2235 83.8765C42.0854 84.0462 41.9867 84.2443 41.9346 84.4566C41.8825 84.6689 41.8782 84.8901 41.9221 85.1042L42.171 87.6082C42.2109 88.0159 42.4072 88.3924 42.7189 88.6592C43.0305 88.9259 43.4334 89.0621 43.8434 89.0394H72.0125C72.4228 89.0635 72.8264 88.9278 73.1384 88.6608C73.4503 88.3938 73.6462 88.0165 73.6849 87.6082L73.9242 85.1042C73.9699 84.8907 73.9674 84.6698 73.9167 84.4575C73.866 84.2451 73.7685 84.0466 73.6312 83.8767C73.4938 83.7067 73.3202 83.5694 73.123 83.4749C72.9258 83.3804 72.7099 83.3311 72.4911 83.3305C66.2898 82.3658 65.334 80.1116 65.334 73.674V53.7784C69.7439 47.7106 75.2383 44.6105 79.5389 44.6105C83.3677 44.6105 85.8605 47.2331 85.8605 51.3948V73.674C85.8605 80.1116 84.7857 82.3658 78.583 83.3305C78.3642 83.3311 78.1483 83.3804 77.9511 83.4749C77.7538 83.5694 77.5802 83.7067 77.4429 83.8767C77.3056 84.0466 77.2081 84.2451 77.1574 84.4575C77.1067 84.6698 77.1041 84.8907 77.1499 85.1042L77.3892 87.6082C77.4292 88.0159 77.6255 88.3924 77.9371 88.6592C78.2488 88.9259 78.6517 89.0621 79.0616 89.0394H107.841C108.249 89.0603 108.65 88.9231 108.96 88.6565C109.269 88.3899 109.464 88.0144 109.503 87.6082L109.743 85.1042C109.788 84.8912 109.786 84.6707 109.735 84.4588C109.684 84.2469 109.587 84.0489 109.45 83.8792C109.314 83.7094 109.141 83.5723 108.944 83.4776C108.747 83.3829 108.532 83.3331 108.314 83.3318Z" fill="black" stroke="black" stroke-width="3.25449"/>
<path d="M39.8232 78.8029L37.6627 75.8228C37.5382 75.6126 37.3657 75.4348 37.1592 75.3038C36.9527 75.1728 36.718 75.0922 36.4745 75.0689C36.2309 75.0456 35.9852 75.0802 35.7575 75.1697C35.5298 75.2592 35.3266 75.4013 35.1644 75.5841C33.492 77.2529 29.201 80.2329 26.6863 80.2329C23.8147 80.2329 22.3762 78.5641 22.3762 75.3452L22.5061 41.9906L24.5367 42.1092H36.2337C36.6756 42.1602 37.1202 42.0405 37.4763 41.7745C37.8323 41.5086 38.0728 41.1166 38.1481 40.6792L39.1053 36.2693C39.1715 36.0698 39.1871 35.8569 39.1508 35.6499C39.1145 35.4428 39.0274 35.2481 38.8973 35.0829C38.7671 34.9176 38.598 34.7871 38.405 34.7029C38.212 34.6188 38.0012 34.5836 37.7912 34.6005H22.383L24.5121 24.8321L24.817 23.4145L26.5591 15.4187C26.5811 15.3207 26.5961 15.2212 26.6043 15.1212L27.1307 12.676C27.1788 12.5167 27.1871 12.348 27.1549 12.1847C27.1227 12.0214 27.0509 11.8684 26.9459 11.7391C26.8409 11.6098 26.7057 11.508 26.5523 11.4428C26.3988 11.3776 26.2317 11.3507 26.0655 11.3647C25.1235 11.3831 24.2069 11.6732 23.4264 12.1998C22.2777 12.8466 21.166 13.4523 20.072 14.024C19.6359 14.26 19.2785 14.6181 19.0437 15.0542C17.5764 17.7081 15.9127 20.2491 14.0663 22.6558C13.6369 23.2125 13.2002 23.7582 12.7563 24.2931C9.42295 28.291 5.50451 31.7645 1.1331 34.5963C0.752588 34.8281 0.448746 35.1665 0.259354 35.5692C0.0699623 35.972 0.00337433 36.4213 0.0678697 36.8614L0.665438 40.5565C0.709655 40.9945 0.895999 41.4061 1.19614 41.7287C1.49627 42.0514 1.89379 42.2673 2.32824 42.3438C6.04082 43.299 7.94291 44.8478 7.94291 49.019V77.845C7.82395 85.583 12.3625 90.5892 20.4864 90.5892C26.927 90.5892 34.333 85.8217 39.4691 81.1743C39.8062 80.889 40.028 80.4914 40.0932 80.0551C40.1583 79.6189 40.0624 79.1739 39.8232 78.8029Z" fill="black" stroke="black" stroke-width="3.25449"/>
</g>
<defs>
<clipPath id="clip0_16_32">
<rect width="488.174" height="117.599" fill="white" transform="translate(0.0473633 0.753174)"/>
</clipPath>
</defs>
</svg>
