<svg width="456" height="81" viewBox="0 0 456 81" fill="none" xmlns="http://www.w3.org/2000/svg">
<g clip-path="url(#clip0_16_221)">
<path d="M136.683 27.0993C129.269 26.9853 122.197 30.7471 118.318 37.0167V6.0106C118.546 3.04679 116.265 0.538947 113.413 0.424954C110.562 0.310961 107.938 2.47683 107.824 5.32665C107.824 5.55463 107.824 5.78262 107.824 6.0106V75.0903C107.596 78.0541 109.877 80.5619 112.729 80.6759C115.695 80.9039 118.204 78.624 118.318 75.7742C118.318 75.5462 118.318 75.3183 118.318 75.0903V70.5306C121.398 76.3442 128.812 80.4479 136.569 80.4479C149.801 80.4479 161.549 69.7326 161.549 53.7736C161.663 37.7006 149.801 27.0993 136.683 27.0993ZM134.858 70.9865C125.619 70.8725 118.204 63.349 118.318 54.1156C118.318 54.0016 118.318 53.8876 118.318 53.6596C118.09 44.4262 125.39 36.6747 134.63 36.4467C134.744 36.4467 134.858 36.4467 134.858 36.4467C144.097 36.4467 151.283 43.1723 151.283 53.6596C151.283 64.147 144.097 70.9865 134.858 70.9865ZM346.679 27.0993C339.265 26.9853 332.307 30.7471 328.428 37.0167V6.0106C328.428 3.04679 326.033 0.766933 323.181 0.766933C320.33 0.766933 317.934 3.16078 317.934 6.0106V75.0903C317.934 78.0541 320.33 80.3339 323.181 80.3339C326.033 80.3339 328.428 77.9401 328.428 75.0903V70.5306C331.508 76.3442 338.922 80.4479 346.679 80.4479C359.911 80.4479 371.659 69.7326 371.659 53.7736C371.773 37.7006 359.911 27.0993 346.679 27.0993ZM344.968 70.9865C335.728 70.8725 328.314 63.349 328.428 54.2296C328.428 54.1156 328.428 53.8876 328.428 53.7736C328.2 44.5402 335.5 36.7887 344.74 36.5607C344.854 36.5607 344.968 36.5607 344.968 36.5607C354.207 36.5607 361.393 43.2863 361.393 53.7736C361.393 64.261 354.207 70.9865 344.968 70.9865ZM211.853 28.4672C208.887 28.4672 206.606 30.861 206.606 33.7109V51.7217C206.606 64.3749 200.788 70.5306 191.663 70.5306C184.363 70.5306 179.572 64.9449 179.572 56.7374V33.8249C179.572 30.861 177.176 28.5812 174.325 28.5812C171.359 28.5812 169.078 30.975 169.078 33.8249V58.9033C169.078 71.5565 177.062 80.3339 189.267 80.3339C196.682 80.3339 203.982 76.2302 206.606 70.4166V75.0903C206.491 78.0541 208.773 80.4479 211.739 80.5619C214.02 80.6759 216.073 79.308 216.871 77.1421C217.1 76.4582 217.214 75.7742 217.214 74.9763V33.8249C217.1 30.861 214.818 28.4672 211.853 28.4672ZM289.189 27.0993C280.863 27.0993 274.019 30.6331 270.369 37.2446C267.175 30.975 260.673 26.9853 253.601 27.0993C246.871 27.2133 240.597 31.089 237.403 37.0167V33.8249C237.403 30.975 235.122 28.5812 232.156 28.4672C230.674 28.4672 229.305 29.0372 228.392 30.0631C227.366 31.089 226.795 32.4569 226.795 33.8249V75.0903C226.795 78.0541 229.191 80.3339 232.042 80.3339C234.894 80.3339 237.289 77.9401 237.289 75.0903V53.8876C237.289 42.6023 242.536 36.7887 250.749 36.7887C257.251 36.7887 262.156 41.4624 262.156 48.8719V74.9763C262.156 77.9401 264.551 80.22 267.403 80.22C270.254 80.22 272.65 77.8261 272.65 74.9763V53.8876C272.65 42.6023 278.125 36.7887 286.224 36.7887C292.726 36.7887 297.63 41.4624 297.63 48.8719L297.516 74.9763C297.516 77.9401 299.912 80.22 302.763 80.22C304.132 80.22 305.501 79.65 306.528 78.624C307.554 77.5981 308.01 76.2302 308.124 74.8623V46.82C308.353 34.9648 299.684 27.0993 289.189 27.0993ZM403.142 73.7224C402.571 71.2145 400.176 69.6186 397.666 70.0746C397.096 70.1886 396.412 70.3026 395.841 70.3026C392.533 70.6446 389.682 68.2507 389.34 64.9449C389.34 64.7169 389.34 64.6029 389.34 64.3749V6.0106C389.34 3.16078 387.058 0.766933 384.207 0.766933C381.241 0.766933 378.96 3.16078 378.96 6.0106V65.0589C378.96 73.4944 385.689 80.3339 394.13 80.4479C396.184 80.4479 398.237 80.22 400.176 79.536C402.457 78.738 403.826 76.4582 403.37 74.0643L403.142 73.7224ZM455.27 53.0897C454.471 45.5661 450.365 26.9853 430.289 26.9853C416.031 26.9853 404.168 37.7006 404.168 53.6596C404.168 69.6186 416.145 80.22 429.947 80.22C438.73 80.22 446.03 76.9142 450.821 70.4166C452.532 68.3647 452.19 65.4009 450.251 63.805C448.198 62.0951 445.232 62.4371 443.635 64.3749C443.521 64.4889 443.407 64.7169 443.293 64.8309C439.757 69.7326 434.852 70.9865 429.947 70.9865C422.533 70.9865 415.689 65.4009 414.662 56.0535H452.532C454.129 56.0535 455.27 54.7995 455.27 53.2036C455.27 53.3176 455.27 53.2036 455.27 53.0897ZM414.89 48.7579C416.373 41.4624 422.875 36.3327 430.175 36.4467C437.133 36.4467 442.837 40.5504 444.548 48.7579H414.89ZM89.8017 37.5866L70.1823 3.50276C69.1557 1.67888 67.2166 0.65294 65.1634 0.65294H25.8106C23.7574 0.65294 21.8183 1.79287 20.7917 3.61675L1.17229 37.5866C0.145695 39.4105 0.145695 41.5764 1.17229 43.4003L20.7917 77.4841C21.8183 79.308 23.7574 80.4479 25.8106 80.4479H65.1634C67.2166 80.4479 69.1557 79.308 70.1823 77.4841L89.8017 43.4003C90.8283 41.5764 90.8283 39.4105 89.8017 37.5866ZM34.4796 18.4358H56.4944C59.232 18.4358 61.5133 20.7157 61.5133 23.4515C61.5133 26.1873 59.232 28.4672 56.4944 28.4672H34.4796C31.742 28.4672 29.4607 26.1873 29.4607 23.4515C29.4607 20.7157 31.742 18.4358 34.4796 18.4358ZM51.5896 62.6651H39.3845C36.6469 62.6651 34.3656 60.3852 34.3656 57.6494C34.3656 54.9135 36.6469 52.6337 39.3845 52.6337H51.5896C54.3271 52.6337 56.6085 54.9135 56.6085 57.6494C56.4944 60.4992 54.3271 62.6651 51.5896 62.6651ZM65.3916 45.5661H25.5825C22.8449 45.5661 20.5635 43.2863 20.5635 40.5504C20.5635 37.8146 22.8449 35.5348 25.5825 35.5348H65.3916C68.1292 35.5348 70.4105 37.8146 70.4105 40.5504C70.4105 43.2863 68.1292 45.5661 65.3916 45.5661Z" fill="black"/>
</g>
<defs>
<clipPath id="clip0_16_221">
<rect width="454.896" height="80.365" fill="white" transform="translate(0.373535 0.310791)"/>
</clipPath>
</defs>
</svg>
