<svg width="489" height="145" viewBox="0 0 489 145" fill="none" xmlns="http://www.w3.org/2000/svg">
<g clip-path="url(#clip0_16_26)">
<path d="M0.231689 72.5527L72.9034 144.965V72.5527H0.231689Z" fill="black"/>
<path d="M72.9034 0.140381V72.5528H145.575L72.9034 0.140381Z" fill="black"/>
<path d="M72.9034 72.5527V144.965L145.575 72.5527H72.9034Z" fill="black"/>
<path d="M173.084 101.088V42.8921H216.091V54.1426H187.762V64.7795H214.244V76.03H187.762V89.7351H218.555V100.986L173.084 101.088ZM240.521 65.8022C234.465 65.8022 231.693 71.0184 231.693 79.4051C231.693 86.5645 233.336 93.008 240.521 93.008C247.09 93.008 249.451 86.8714 249.451 78.5869C249.451 70.7115 247.193 65.8022 240.521 65.8022ZM262.281 101.088H249.964V96.7923H249.759C246.885 100.27 242.574 102.315 238.057 102.213C227.588 102.213 219.171 95.4627 218.965 79.712C218.76 62.4271 228.717 56.495 237.544 56.495C242.06 56.2904 246.371 57.9269 249.553 61.0975V42.8921H262.281V101.088ZM296.359 74.0867C296.461 69.5865 292.869 65.8022 288.353 65.7H288.25H287.737C283.118 65.8022 279.32 69.3819 279.012 74.0867H296.359ZM279.217 81.9621C279.217 90.3488 284.657 92.9057 288.763 92.9057C293.485 92.9057 295.743 90.4511 299.438 85.2349L308.984 90.1443C304.57 98.3264 297.591 102.111 287.839 102.111C274.29 102.111 266.387 92.8035 266.387 80.5302C266.387 65.1886 274.496 56.3927 287.839 56.3927C303.749 56.3927 309.189 68.4614 309.292 81.9621H279.217ZM313.808 42.8921H326.639V101.088H313.808V42.8921ZM333.824 57.62H346.654V61.5066C349.939 57.62 355.379 56.5973 359.279 56.5973C363.898 56.495 368.209 58.6428 370.776 62.4271C374.471 58.6428 379.5 56.495 384.838 56.5973C389.046 56.5973 398.284 58.0291 398.284 68.0523V101.19H385.454V75.6209C385.454 69.4842 383.811 66.7227 378.884 66.7227C374.676 66.7227 372.418 69.8933 372.418 74.2913V100.986H359.69V73.8821C359.69 69.5865 358.356 66.7227 353.429 66.7227C348.502 66.7227 346.654 69.9956 346.654 73.9844V101.088H333.824V57.62ZM430.001 79.9165L421.379 82.3712C418.197 83.2917 415.22 84.519 415.22 87.9964C415.22 91.4739 418.094 92.9057 421.174 92.9057C426.101 92.9057 429.898 89.6329 429.898 82.8826L430.001 79.9165ZM442.318 91.9853C442.113 95.0536 442.523 98.1219 443.447 101.088H431.643C431.13 99.6561 430.925 98.1219 430.822 96.5877H430.617C428.461 100.065 422.097 102.213 417.478 102.213C409.164 102.213 402.903 97.6105 402.903 89.326C402.903 78.8937 411.32 75.2118 425.279 73.2685L430.001 72.6548V69.0751C430.001 65.8022 427.332 64.3703 423.945 64.3703C419.839 64.3703 417.889 65.8022 417.273 70.2002H404.956C405.366 57.7223 417.068 56.5973 422.919 56.5973C434.825 56.5973 442.318 59.3588 442.318 69.1774V91.9853ZM449.811 57.62H462.539V61.5066C465.824 57.62 471.264 56.5973 475.164 56.5973C485.531 56.5973 488.405 62.5294 488.405 69.0751V101.19H475.677V73.8821C475.677 69.5865 474.343 66.7227 469.416 66.7227C464.489 66.7227 462.642 69.9956 462.642 73.9844V101.088H449.811V57.62Z" fill="black"/>
</g>
<defs>
<clipPath id="clip0_16_26">
<rect width="488.174" height="144.825" fill="white" transform="translate(0.231689 0.140381)"/>
</clipPath>
</defs>
</svg>
