<?xml version="1.0" encoding="utf-8"?>
<!-- Generator: Adobe Illustrator 27.9.0, SVG Export Plug-In . SVG Version: 6.00 Build 0)  -->
<svg version="1.1" id="Layer_1" xmlns="http://www.w3.org/2000/svg" xmlns:xlink="http://www.w3.org/1999/xlink" x="0px" y="0px"
	 viewBox="0 0 2500 2500" style="enable-background:new 0 0 2500 2500;" xml:space="preserve">
<style type="text/css">
	.st0{fill-rule:evenodd;clip-rule:evenodd;fill:#FFFFFF;}
</style>
<path class="st0" d="M1441.9,985.1l-205.3,524.2h-34l205.3-524.2H1441.9L1441.9,985.1z"/>
<path class="st0" d="M36.8,982.7h525V1516h-525V982.7z"/>
<path class="st0" d="M2283.3,1322.3l-58.3-184.4l-58.9,184.4H2283.3z M2284.6,994l178.7,510.6h-124.9l-30.7-95.7h-165.8l-30.1,95.7
	h-124.9l178-510.6L2284.6,994L2284.6,994z M1913.2,1227.3v277.3h-89.6v-47.5c-12.4,18.3-26.7,31.9-42.9,40.6
	c-16.2,8.7-32.7,14.7-49.3,17.9c-8.1,1.4-16.1,2.4-24,3.1c-7.9,0.7-15.5,1-22.7,1l-6.4,0.7c-0.4-0.5-0.7-0.7-1-0.7h-0.9
	c-9.4,0-24.6-0.9-45.5-2.7c-20.9-1.9-42.9-8.3-66-19.3c-30.3-14.7-57.9-40.7-82.9-78.1c-25-37.4-37.5-94.6-37.5-171.7
	c0-79.8,20.2-144.5,60.5-194c40.3-49.5,103.6-74.3,189.9-74.3h6.4c49.1,0,87.5,9.5,115.3,28.6c27.7,19,48.4,39.8,62.1,62.3
	c12,20.2,20,39,24,56.4s6.3,28.4,6.7,33h-123.6c-0.9-20.2-8.2-38.5-22.1-55c-13.9-16.5-36-25-66.3-25.5c-36.7,0.5-63.7,10.5-81,30.3
	c-17.3,19.7-29.1,41.3-35.5,64.7c-3.7,14-6.2,28.2-7.4,42.7c-1,11.4-1.5,22.9-1.6,34.4c0,57.3,10.8,98.5,32.3,123.5
	c21.6,25,45.1,39.5,70.8,43.7c3.1,0.9,6.4,1.5,9.6,1.7c3,0.3,6,0.4,9,0.4c32.5-0.9,57.8-11.2,76.2-31c18.4-19.7,28.4-42.9,30.1-69.5
	h-94.8v-92.9L1913.2,1227.3L1913.2,1227.3L1913.2,1227.3z M816.3,1223.2h98c17-0.3,33.7-5.1,48.4-13.8c14.7-8.7,22.1-25.5,22.1-50.2
	c0-26.6-7.4-44.3-22.1-53c-14.7-8.7-32.8-13.1-54.1-13.1h-92.2L816.3,1223.2L816.3,1223.2L816.3,1223.2z M697.8,994h249.7
	c57.6,0,98.2,14.6,121.7,43.7c23.5,29.1,35.2,63,35.2,101.5c0,33.5-6.4,59.7-19.2,78.8c-12.8,19-26.9,32.7-42.3,40.9
	c-3,1.8-5.9,3.3-8.6,4.5s-5.4,2.2-8,3.1v2.1c25.2,7.3,42.2,19.8,50.9,37.5s14,36.4,15.7,56.1c0.9,10.1,1.3,20.2,1.3,30.3
	c0.4,30.7,1.4,53.1,2.9,67.1c1.5,14,5.2,26.2,11.2,36.8c0.4,1.4,1.1,2.7,1.9,4.1c0.8,1.4,1.7,2.7,2.6,4.1H992.4
	c-6.8-10.6-11.4-23-13.8-37.2c-2.3-14.2-3.9-38.1-4.8-71.6c0-2.3-0.1-4.8-0.3-7.6c-0.2-2.5-0.3-5-0.3-7.6
	c-1.2-15.9-6.6-31.2-15.7-44.4c-9.2-13.6-29.6-20.3-61.2-20.3h-80v188.5H697.8L697.8,994L697.8,994z"/>
</svg>
