<svg width="312" height="125" viewBox="0 0 312 125" fill="none" xmlns="http://www.w3.org/2000/svg">
<g clip-path="url(#clip0_16_44)">
<path d="M40.7349 27.5476C18.8109 27.5476 0.541718 36.8238 0.541718 64.8096C0.541718 86.9806 12.8264 100.942 41.301 100.942C74.8169 100.942 76.9654 78.924 76.9654 78.924H60.7253C60.7253 78.924 57.2433 90.7801 40.3103 90.7801C26.5188 90.7801 16.5995 81.4887 16.5995 68.4653H78.6637V60.293C78.6637 47.4089 70.4625 27.5476 40.7349 27.5476ZM40.1688 37.9923C53.2969 37.9923 62.2467 46.0131 62.2467 58.0347H16.9586C16.9586 45.2723 28.6405 37.9923 40.1688 37.9923Z" fill="black"/>
<path d="M78.6521 0.447998V86.8882C78.6521 91.7948 78.301 98.6842 78.301 98.6842H93.7906C93.7906 98.6842 94.3465 93.7361 94.3465 89.2141C94.3465 89.2141 101.999 101.154 122.808 101.154C144.72 101.154 159.605 85.9822 159.605 64.2451C159.605 44.0234 145.933 27.7594 122.843 27.7594C101.222 27.7594 94.503 39.4038 94.503 39.4038V0.447998H78.6521ZM118.845 38.451C133.725 38.451 143.188 49.465 143.188 64.2451C143.188 80.0941 132.259 90.4626 118.951 90.4626C103.07 90.4626 94.503 78.0957 94.503 64.3862C94.503 51.6117 102.19 38.451 118.845 38.451Z" fill="black"/>
<path d="M198.099 27.5476C165.117 27.5476 163.001 45.5588 163.001 48.4369H179.418C179.418 48.4369 180.279 37.9217 196.967 37.9217C207.812 37.9217 216.215 42.8719 216.215 52.389V55.7764H196.967C171.415 55.7764 157.906 63.2313 157.906 78.3595C157.906 93.2477 170.388 101.348 187.255 101.348C210.243 101.348 217.648 88.6806 217.648 88.6806C217.648 93.7191 218.037 98.6842 218.037 98.6842H232.632C232.632 98.6842 232.066 92.5298 232.066 88.5924V54.559C232.066 32.2438 214.017 27.5476 198.099 27.5476ZM216.215 65.9388V70.4554C216.215 76.3463 212.57 90.9918 191.112 90.9918C179.361 90.9918 174.323 85.1433 174.323 78.3595C174.323 66.0183 191.289 65.9388 216.215 65.9388Z" fill="black"/>
<path d="M223.225 30.3735H241.694L268.2 83.3328L294.645 30.3735H311.375L263.206 124.658H245.657L259.557 98.3747L223.225 30.3735Z" fill="black"/>
</g>
<defs>
<clipPath id="clip0_16_44">
<rect width="311.041" height="124.416" fill="white" transform="translate(0.438232 0.344727)"/>
</clipPath>
</defs>
</svg>
