<?xml version="1.0" encoding="utf-8"?>
<!-- Generator: Adobe Illustrator 27.7.0, SVG Export Plug-In . SVG Version: 6.00 Build 0)  -->
<svg version="1.1" id="Layer_1" xmlns:serif="http://www.serif.com/"
	 xmlns="http://www.w3.org/2000/svg" xmlns:xlink="http://www.w3.org/1999/xlink" x="0px" y="0px" viewBox="0 0 1920 507.6"
	 style="enable-background:new 0 0 1920 507.6;" xml:space="preserve">
<style type="text/css">
	.st0{fill:#FFFFFF;}
</style>
<g transform="matrix(4.62633,0,0,5.90278,-6.58925,-73.8393)">
	<path class="st0" d="M337.9,48.8v25.7c-0.8,10.2-19.9,10.2-20.8,0V48.8H299v28.4c0,9.6,12.7,17.4,28.4,17.4s28.4-7.8,28.4-17.4
		V48.8H337.9z M396.7,18.3V93h18.2V18.3H396.7z M365.9,93H384V18.3h-18.2L365.9,93L365.9,93z M276.9,54.1c5-3.5,7.9-8.5,8-13.8
		c0-4.8-2.3-9.4-6.6-12.8c-4.2-3.7-12-5.9-22.3-5.9h-31.1v71.4h40.2c15.4-0.2,27.7-9.3,27.7-20.5C292.8,64.4,289.1,58.6,276.9,54.1z
		 M261.7,80.6h-17.4V33.9h12.1c5.4,0.2,9.7,3.7,9.6,8c0,4.2-4.3,7.6-9.6,7.6H250v12.8h11.5C277.2,62.3,277.2,80.7,261.7,80.6
		L261.7,80.6z M64.8,42.8c-0.1-5.6-3-11-8.1-15c-5.1-4-12.1-6.1-19.3-6.1H4.1V93h19.4V33.9h10c6.8-0.2,12.4,4,12.5,9.3
		c-0.3,5.3-6,9.5-12.8,9.3h-4.5v17.1L47.9,93h22.6L43.9,63.2C56,61,64.7,52.6,64.8,42.8z M98.6,46.9c-16.5,0.4-29.6,10.9-29.6,23.9
		s13.1,23.5,29.6,23.9c12.7,0,22.5-4.5,27.6-11.5l-14.8-5.4c-2.2,3.4-6.6,5.5-11.3,5.4c-6.6,0.2-12.2-3.8-12.3-9v-0.5h40.1
		c0.1-0.9,0.2-1.9,0.2-2.9C128.2,55.4,115.1,46.9,98.6,46.9z M87.7,65.6c-0.3-4.9,4.8-9.1,11.1-9.1c6.3,0,11.3,4.2,11.1,9.1H87.7z
		 M200.1,93V18.3H182v35.4c-4.9-3.8-11.4-6-18.3-6c-15,0-27.2,10.4-27.2,23.3s12.2,23.4,27.2,23.4c6.9-0.1,13.5-2.3,18.4-6.1v5
		L200.1,93z M168.8,82.1c-7.4,0-13.3-5.2-13.3-11.4c0-6.3,5.9-11.5,13.3-11.5c7.4,0,13.3,5.2,13.3,11.4
		C182.1,76.9,176.2,82.1,168.8,82.1z"/>
</g>
</svg>
