<svg width="401" height="107" viewBox="0 0 401 107" fill="none" xmlns="http://www.w3.org/2000/svg">
<g clip-path="url(#clip0_16_202)">
<path d="M0.733643 0.723633H20.0483L54.1311 83.3693C54.1916 83.5169 54.2521 83.5169 54.3126 83.3693L87.7283 0.723633H107.166L107.377 104.944C107.377 105.058 107.32 105.115 107.206 105.115H91.8906C91.8659 105.115 91.8421 105.105 91.8246 105.087C91.8071 105.07 91.7972 105.046 91.7972 105.021V32.5145C91.7972 32.2975 91.7554 32.2886 91.6718 32.4878L60.7775 104.976C60.7601 105.017 60.7309 105.052 60.6934 105.077C60.6559 105.101 60.6118 105.115 60.5667 105.115H47.7036C47.6502 105.115 47.6129 105.09 47.5915 105.04L16.2142 31.514C16.1359 31.3308 16.0968 31.3388 16.0968 31.538L15.8353 105.035C15.8353 105.044 15.8334 105.053 15.8298 105.062C15.8262 105.071 15.8209 105.079 15.8142 105.085C15.8075 105.092 15.7996 105.097 15.7908 105.101C15.7821 105.105 15.7727 105.107 15.7633 105.107H0.733643V0.723633Z" fill="black"/>
<path d="M271.584 106.382H268.796C259.143 105.896 251.074 100.17 249.831 90.1355C249.71 89.1679 249.653 87.7217 249.66 85.7971C249.698 74.3152 249.699 62.683 249.663 50.9005C249.663 50.7956 249.611 50.7431 249.506 50.7431C242.881 50.7573 236.203 50.7582 229.471 50.7458C221.952 50.7324 215.572 55.93 213.931 63.2887C213.695 64.3488 213.579 66.0066 213.584 68.2621C213.62 80.813 213.616 93.0402 213.574 104.944C213.574 105.058 213.516 105.114 213.4 105.114H199.43C199.33 105.114 199.281 105.065 199.281 104.965V37.9574C199.281 37.9377 199.284 37.9183 199.292 37.9002C199.299 37.8821 199.31 37.8656 199.324 37.8517C199.338 37.8378 199.355 37.8268 199.373 37.8193C199.391 37.8118 199.41 37.808 199.43 37.808H213.451C213.542 37.808 213.587 37.8533 213.587 37.944L213.608 46.2686C213.608 46.3931 213.651 46.41 213.736 46.3193C215.61 44.3378 217.361 42.5795 218.99 41.0444C219.908 40.1826 220.895 39.3021 222.04 38.7631C223.37 38.1352 224.744 37.8195 226.162 37.816C234.396 37.7946 242.207 37.7937 249.596 37.8133C249.606 37.8136 249.616 37.8119 249.626 37.8082C249.635 37.8045 249.644 37.7988 249.651 37.7916C249.658 37.7844 249.664 37.7757 249.668 37.7662C249.672 37.7566 249.674 37.7463 249.674 37.7359V23.7228C249.674 23.5797 249.723 23.4404 249.812 23.328L260.907 9.2802C260.951 9.22328 261.011 9.19482 261.085 9.19482H263.623C263.636 9.19482 263.649 9.19745 263.662 9.20254C263.674 9.20764 263.685 9.21511 263.694 9.22452C263.704 9.23394 263.711 9.24511 263.716 9.25741C263.721 9.26971 263.724 9.2829 263.724 9.29621L263.719 37.6612C263.719 37.6994 263.734 37.7361 263.761 37.7631C263.788 37.7901 263.825 37.8053 263.863 37.8053L277.953 37.808C278 37.808 278.023 37.8311 278.023 37.8773V50.6844C278.023 50.7324 278 50.7564 277.953 50.7564L263.82 50.7538C263.793 50.7538 263.767 50.7642 263.748 50.7827C263.729 50.8012 263.719 50.8263 263.719 50.8525C263.722 62.3895 263.725 74.1329 263.727 86.0826C263.727 89.5485 266.606 92.5182 269.842 93.1585C271.02 93.3897 272.643 93.3835 274.711 93.1398C276.371 92.9442 277.982 92.5849 279.543 92.0619C279.552 92.0589 279.562 92.0581 279.571 92.0595C279.58 92.0609 279.589 92.0645 279.597 92.07C279.604 92.0755 279.61 92.0827 279.615 92.091C279.619 92.0994 279.621 92.1086 279.621 92.1179V104.778C279.621 104.822 279.607 104.865 279.58 104.901C279.554 104.936 279.517 104.963 279.474 104.976C276.888 105.755 274.258 106.224 271.584 106.382Z" fill="black"/>
<path d="M152.604 106.382H148.952C142.415 106.046 136.658 104.11 131.681 100.573C120.565 92.6757 116.544 78.6306 118.313 65.4073C119.848 53.9423 126.27 44.0595 136.868 39.2275C143.439 36.2286 151.14 35.6389 158.138 37.0877C163.403 38.1763 167.848 40.5252 171.473 44.1343C171.571 44.2303 171.687 44.2632 171.82 44.233C172.154 44.1529 172.373 43.8541 172.37 43.5126C172.365 41.6093 172.365 39.7478 172.373 37.9282C172.373 37.9124 172.376 37.8968 172.382 37.8822C172.388 37.8676 172.397 37.8544 172.408 37.8433C172.419 37.8321 172.432 37.8233 172.447 37.8172C172.461 37.8112 172.477 37.8081 172.493 37.8081L186.628 37.8054C186.646 37.8054 186.663 37.8125 186.676 37.825C186.688 37.8375 186.695 37.8544 186.695 37.8721V105.053C186.695 105.069 186.688 105.085 186.676 105.097C186.664 105.108 186.648 105.115 186.631 105.115H172.509C172.413 105.115 172.365 105.067 172.365 104.973C172.366 103.168 172.367 101.245 172.367 99.2047C172.37 98.8231 172.082 98.5189 171.732 98.4095C171.682 98.3944 171.629 98.3931 171.579 98.4058C171.529 98.4185 171.483 98.4447 171.447 98.4816C166.484 103.506 159.758 106.038 152.604 106.382ZM156.249 93.3054C166.719 92.046 172.722 84.2871 173.531 74.1028C174.224 65.394 171.756 56.1062 163.541 51.6931C158.853 49.1717 153.042 48.6808 147.906 49.7347C134.432 52.5042 129.522 66.5253 132.751 78.5799C133.389 80.9635 134.388 83.1353 135.747 85.0955C140.448 91.8779 148.21 94.2739 156.249 93.3054Z" fill="black"/>
<path d="M332.589 44.2035C332.643 44.206 332.696 44.1943 332.745 44.1695C332.793 44.1447 332.834 44.1077 332.864 44.0621C336.629 38.3362 344.545 36.0176 351.039 36.4232C359.844 36.9755 367.734 40.6789 372.246 48.2777C374.851 52.6677 376.162 57.562 376.176 62.9605C376.215 76.8704 376.221 90.8764 376.194 104.978C376.194 105.073 376.146 105.12 376.05 105.12C371.116 105.114 366.432 105.114 361.997 105.117C361.883 105.117 361.845 105.064 361.883 104.957C361.883 104.953 361.874 91.2143 361.856 63.7396C361.854 61.9235 361.529 59.9588 360.879 57.8457C359.607 53.6994 356.573 50.8338 352.315 49.8172C344.497 47.9469 337.088 51.0312 333.43 58.1338C332.181 60.5565 331.791 63.0566 331.794 65.8581C331.815 79.3447 331.82 92.399 331.807 105.021C331.807 105.046 331.797 105.07 331.779 105.087C331.761 105.105 331.737 105.114 331.711 105.114H317.57C317.55 105.114 317.531 105.107 317.517 105.093C317.503 105.08 317.495 105.062 317.495 105.042V37.9494C317.495 37.8533 317.543 37.8053 317.639 37.8053L331.773 37.8106C331.824 37.8106 331.85 37.8364 331.85 37.888C331.845 39.7877 331.838 41.594 331.831 43.307C331.828 43.8797 332.08 44.1786 332.589 44.2035Z" fill="black"/>
<path d="M304.944 37.8081H290.867C290.797 37.8081 290.739 37.8654 290.739 37.9362V104.987C290.739 105.057 290.797 105.115 290.867 105.115H304.944C305.015 105.115 305.072 105.057 305.072 104.987V37.9362C305.072 37.8654 305.015 37.8081 304.944 37.8081Z" fill="black"/>
<path d="M400.955 96.8723V98.6066C400.197 103.038 397.611 105.629 393.196 106.382H391.35C389.507 106.12 387.936 105.431 386.638 104.314C382.345 100.616 382.654 93.7479 387.417 90.5569C393.047 86.7841 400.117 90.4048 400.955 96.8723Z" fill="black"/>
</g>
<defs>
<clipPath id="clip0_16_202">
<rect width="400.221" height="105.658" fill="white" transform="translate(0.733643 0.723633)"/>
</clipPath>
</defs>
</svg>
