<?xml version="1.0" encoding="utf-8"?>
<!-- Generator: Adobe Illustrator 27.9.0, SVG Export Plug-In . SVG Version: 6.00 Build 0)  -->
<svg version="1.1" id="Ebene_1" xmlns="http://www.w3.org/2000/svg" xmlns:xlink="http://www.w3.org/1999/xlink" x="0px" y="0px"
	 viewBox="0 0 330.2 125" style="enable-background:new 0 0 330.2 125;" xml:space="preserve">
<style type="text/css">
	.st0{fill:#FFFFFF;}
</style>
<path class="st0" d="M317.6,61.7h-18.1c-1.8-4.4-3.7-7.9-13.8-7.9c-7,0-10,2.9-10,5.8c0,3.2,2.5,5.8,10.2,7.5l16.4,4.4
	c10.7,2.9,15.9,11.4,15.9,20.3c0,5-1.1,11-5.8,16c-3.5,3.7-8.9,8.6-26.7,8.6c-24.4,0-32.5-15.4-32.5-24.8h19
	c1.9,6.8,6.5,9.4,15.8,9.4c6.4,0,11.9-2.3,11.9-7.2c0-4.7-4-6.4-9.1-7.8l-12.9-3.5c-6.2-1.9-11.4-3.4-15.1-6.5
	c-9.6-8.2-8.9-22.9,1.5-30.5c5.8-4.2,11.7-6.4,21.2-6.4c11.1,0,17.4,3.2,22.4,6.6C312.2,48.5,317.5,55.9,317.6,61.7 M12.5,9.5
	c0.2,0.6,37.8,106,37.8,106h22.5l34.6-87.7h215L324,9.5H90.9L62.2,82.2L36.4,9.5H12.5 M198.4,77.6l28.1,37.9h17.6v-75h-20.2v40.8
	l-25.4-40.7h-19.4v74.9h19.4L198.4,77.6L198.4,77.6z M324.7,111.6c0-2.2-1.8-4-4-4s-4,1.8-4,4s1.8,4,4,4S324.8,113.8,324.7,111.6
	C324.8,111.6,324.8,111.6,324.7,111.6L324.7,111.6z M324.3,111.6c0,1.9-1.6,3.5-3.5,3.5s-3.5-1.6-3.5-3.5s1.6-3.5,3.5-3.5
	C322.7,108,324.3,109.5,324.3,111.6C324.3,111.5,324.3,111.5,324.3,111.6L324.3,111.6z M322.6,110.7c0-0.8-0.7-1.4-1.4-1.4
	c-0.1,0-0.1,0-0.2,0h-1.9v4.2h0.9v-1.4h0.7l0.9,1.4h1.1l-1-1.5C322.3,111.9,322.7,111.3,322.6,110.7L322.6,110.7z M321.7,110.8
	c0,0.3-0.3,0.6-0.6,0.6H321h-0.9v-1.2h0.9c0.3-0.1,0.7,0.1,0.8,0.4C321.7,110.7,321.8,110.7,321.7,110.8L321.7,110.8z M91.4,115.5
	H113l4-11.7h28.5l4.1,11.7h21.2l-27.2-74.9h-22.9L91.4,115.5z M123,90.2l8.4-24.9l8.2,24.9H123L123,90.2z"/>
</svg>
