<svg width="309" height="180" viewBox="0 0 309 180" fill="none" xmlns="http://www.w3.org/2000/svg">
<g clip-path="url(#clip0_16_179)">
<path d="M75.7065 85.5684C73.9961 90.122 72.2857 94.6755 70.5753 99.229C75.7065 101.696 80.8377 103.972 84.8286 108.146C82.358 114.407 79.8874 120.858 77.2268 127.119C73.2359 123.325 68.6748 119.91 63.5436 118.012C60.693 125.412 58.0323 132.811 55.1817 140.211C47.96 140.211 40.7383 140.211 33.5166 140.211C36.7474 131.673 39.9781 122.945 43.2089 114.407C36.1773 114.218 29.1456 117.823 25.1547 123.704C23.4443 126.171 22.4941 129.206 22.8741 132.242C23.2542 138.503 26.485 144.575 31.4261 148.559C38.0777 154.061 46.8197 156.338 55.3717 156.907C62.4034 157.476 69.625 156.907 76.2766 154.63C82.358 152.733 87.8693 149.128 91.8602 144.005C96.9914 137.555 99.0819 129.017 98.5118 120.669C97.9416 114.407 96.4213 108.336 95.281 102.075C93.9507 95.055 92.8105 88.0349 92.8105 81.0149C87.4892 83.6711 81.5978 84.9992 75.7065 85.5684ZM52.7111 42.879C51.0007 46.6737 50.8107 51.0375 52.7111 54.6423C54.6115 58.6267 57.8423 62.4213 62.0233 64.3186C62.7834 62.4213 63.5436 60.3343 64.3038 58.437C65.4441 55.2115 66.9644 52.1758 67.3445 48.7607C67.7246 45.9147 67.3445 42.879 65.4441 40.6023C63.5436 38.3255 60.1228 37.3769 57.4622 38.3255C55.1817 39.0844 53.6613 40.792 52.7111 42.879ZM58.2224 17.0757H63.1635C68.1047 17.4551 73.0458 18.7833 77.2268 21.6292C82.168 24.8546 85.7788 30.1671 87.2992 36.0487C89.1996 43.2585 88.4394 51.0375 85.7788 57.8678C84.8286 60.3343 84.0684 62.8008 83.1182 65.0775C87.1091 63.9391 91.1 62.2316 93.9507 59.0062C96.9914 55.7807 98.7018 51.6067 99.652 47.2429C107.064 47.2429 114.285 47.2429 121.697 47.2429C117.896 57.2986 115.046 67.9235 115.236 78.7381C115.236 91.2604 119.797 103.024 121.127 115.546C122.077 123.894 121.697 132.432 119.417 140.59C117.136 148.18 113.145 155.2 107.634 160.891C102.123 166.583 95.281 170.947 87.8693 173.793C78.3671 177.588 68.1047 178.916 57.8423 178.726C45.6795 178.536 33.5166 175.69 23.0642 169.429C14.3222 164.307 6.91043 155.958 3.29958 146.093C-0.501301 136.227 -0.121213 124.843 4.24981 115.356C7.6706 107.957 13.9421 101.885 21.3538 98.2804C30.4759 93.9166 40.9284 92.7782 50.8107 93.7269C52.141 90.122 53.6613 86.5171 54.9916 82.9122C46.6297 79.3073 39.0279 73.4257 34.4669 65.2673C27.8153 53.1245 29.3357 36.4282 38.8379 26.1828C43.9691 20.8703 51.0007 17.6449 58.2224 17.0757Z" fill="black"/>
<path d="M110.864 39.4637C121.887 31.1156 127.588 26.3723 131.199 20.1112C136.33 11.3836 133.1 3.98408 126.828 0.948394C120.747 -1.70784 113.715 0.758663 110.864 6.64031C108.014 0.758663 100.982 -1.70784 94.9007 0.948394C88.4392 3.79435 85.3985 11.1938 90.5297 20.1112C94.1405 26.3723 99.6518 31.1156 110.864 39.4637Z" fill="black"/>
<path d="M140.322 63.3695C140.322 54.4522 147.163 47.2424 156.665 47.2424C162.177 47.2424 165.597 48.7603 168.828 51.4165L164.457 56.5392C161.987 54.4522 159.896 53.3138 156.285 53.3138C151.344 53.3138 147.353 57.6776 147.353 62.9901C147.353 68.682 151.344 72.8561 156.855 72.8561C159.326 72.8561 161.606 72.2869 163.317 70.9588V66.595H156.475V60.7133H169.968V74.1842C166.738 76.8404 162.367 79.1172 156.665 79.1172C146.973 79.4966 140.322 72.6663 140.322 63.3695Z" fill="black"/>
<path d="M191.444 65.0775C191.064 62.0418 189.353 59.9548 186.502 59.9548C183.652 59.9548 181.941 62.0418 181.371 65.0775H191.444ZM174.72 67.1646C174.72 60.3343 179.471 54.6423 186.502 54.6423C194.484 54.6423 198.095 60.7137 198.095 67.544C198.095 68.1132 198.095 68.6824 198.095 69.2516H181.561C182.321 72.2873 184.412 73.9949 187.453 73.9949C189.733 73.9949 191.444 73.2359 193.154 71.5284L196.955 74.9435C194.674 77.5997 191.444 79.3073 187.263 79.3073C179.851 79.497 174.72 74.3743 174.72 67.1646Z" fill="black"/>
<path d="M203.036 55.2112H209.878V58.6264C211.398 56.5394 213.489 54.8318 216.91 54.8318C222.041 54.8318 225.082 58.2469 225.082 63.5594V78.9276H218.24V65.6464C218.24 62.421 216.72 60.9032 214.249 60.9032C211.588 60.9032 210.068 62.6107 210.068 65.6464V78.9276H203.226V55.2112" fill="black"/>
<path d="M246.366 65.0775C245.986 62.0418 244.276 59.9548 241.425 59.9548C238.575 59.9548 236.864 62.0418 236.294 65.0775H246.366ZM229.452 67.1646C229.452 60.3343 234.203 54.6423 241.235 54.6423C249.217 54.6423 252.828 60.7137 252.828 67.544C252.828 68.1132 252.828 68.6824 252.828 69.2516H236.294C237.054 72.2873 239.145 73.9949 242.185 73.9949C244.466 73.9949 246.176 73.2359 247.887 71.5284L251.688 74.9435C249.407 77.5997 246.176 79.3073 241.995 79.3073C234.774 79.497 229.452 74.3743 229.452 67.1646Z" fill="black"/>
<path d="M257.959 55.2115H264.801V59.9548C266.131 56.7294 268.411 54.6423 272.402 54.6423V61.6624H272.022C267.461 61.6624 264.801 64.3186 264.801 70.0105V78.7381H257.959V55.2115Z" fill="black"/>
<path d="M289.316 70.5799V69.4415C288.176 68.8723 286.656 68.4928 284.945 68.4928C282.095 68.4928 280.194 69.6312 280.194 71.7183C280.194 73.6156 281.714 74.5642 283.805 74.5642C287.226 74.754 289.316 72.8567 289.316 70.5799ZM273.923 72.0977C273.923 66.7853 277.914 64.5085 283.425 64.5085C285.895 64.5085 287.606 64.888 289.316 65.4572V65.0777C289.316 62.2317 287.606 60.7139 284.185 60.7139C281.524 60.7139 279.814 61.2831 277.533 62.042L275.823 56.9193C278.484 55.7809 280.954 55.022 285.135 55.022C288.746 55.022 291.407 55.9706 293.117 57.6782C294.827 59.3858 295.778 62.042 295.778 65.2674V79.1178H289.316V76.4615C287.606 78.3588 285.325 79.4972 282.095 79.4972C277.533 79.3075 273.923 76.841 273.923 72.0977Z" fill="black"/>
<path d="M308.701 46.4839H301.859V78.9278H308.701V46.4839Z" fill="black"/>
<path d="M141.652 90.6912H149.064L157.235 103.783L165.407 90.6912H172.819V121.617H165.978V101.316L157.235 114.597H157.045L148.493 101.506V121.617H141.652V90.6912Z" fill="black"/>
<path d="M179.851 97.9009H186.692V121.617H179.851V97.9009ZM179.661 89.363H186.692V95.4344H179.661V89.363Z" fill="black"/>
<path d="M200.186 89.363H193.344V121.807H200.186V89.363Z" fill="black"/>
<path d="M213.488 89.363H206.647V121.807H213.488V89.363Z" fill="black"/>
<path d="M217.86 118.581L220.71 114.217C223.371 116.115 226.032 117.063 228.122 117.063C230.022 117.063 230.973 116.305 230.973 115.356C230.973 113.838 228.692 113.459 226.032 112.7C222.611 111.751 219 110.233 219 105.49C219 100.747 222.991 97.9006 227.742 97.9006C230.783 97.9006 234.013 98.8493 236.674 100.557L234.013 105.3C231.733 103.972 229.262 103.023 227.552 103.023C225.841 103.023 225.081 103.782 225.081 104.731C225.081 106.059 227.362 106.628 229.832 107.577C233.253 108.715 237.054 110.233 237.054 114.597C237.054 119.909 233.063 122.186 227.932 122.186C224.701 121.996 221.09 121.048 217.86 118.581Z" fill="black"/>
</g>
<defs>
<clipPath id="clip0_16_179">
<rect width="308.062" height="179.106" fill="white" transform="translate(0.638916)"/>
</clipPath>
</defs>
</svg>
