<svg width="620" height="85" viewBox="0 0 620 85" fill="none" xmlns="http://www.w3.org/2000/svg">
<g clip-path="url(#clip0_16_214)">
<path fill-rule="evenodd" clip-rule="evenodd" d="M1.67981 42.8016C1.66639 37.3616 2.72796 31.9726 4.80356 26.9441C6.87916 21.9156 9.92786 17.3468 13.7745 13.5001C17.6212 9.65344 22.19 6.60475 27.2185 4.52915C32.247 2.45356 37.636 1.39197 43.076 1.4054C48.516 1.39197 53.905 2.45356 58.9335 4.52915C63.962 6.60475 68.5308 9.65344 72.3774 13.5001C76.2241 17.3468 79.2728 21.9156 81.3484 26.9441C83.424 31.9726 84.4856 37.3616 84.4722 42.8016C84.4722 65.7429 66.0173 84.447 43.076 84.447C20.1347 84.447 1.67981 65.7429 1.67981 42.8016ZM45.3227 59.5117C51.8067 59.5117 56.0474 54.5232 56.0474 46.0418C56.0474 38.0659 51.8067 33.0774 45.0735 33.0774C41.8333 33.0774 39.088 34.3236 37.094 36.5669V22.1035H32.6041V59.0132H36.8448V55.5237C39.088 58.2655 41.5805 59.5117 45.3227 59.5117ZM37.0905 46.291C37.0905 40.5548 39.8322 37.3146 44.3222 37.3146C48.5629 37.3146 51.5539 40.5548 51.5539 46.0418C51.5539 52.0273 48.8122 55.271 44.3222 55.271C39.8322 55.271 37.0905 51.7815 37.0905 46.291ZM134.848 42.8016C134.835 37.3616 135.896 31.9726 137.972 26.9441C140.048 21.9156 143.096 17.3468 146.943 13.5001C150.79 9.65344 155.358 6.60475 160.387 4.52915C165.415 2.45356 170.804 1.39197 176.244 1.4054C181.684 1.39197 187.073 2.45356 192.102 4.52915C197.13 6.60475 201.699 9.65344 205.546 13.5001C209.393 17.3468 212.441 21.9156 214.517 26.9441C216.592 31.9726 217.654 37.3616 217.641 42.8016C217.641 65.7429 199.186 84.447 176.244 84.447C153.303 84.447 134.848 65.7429 134.848 42.8016ZM178.491 59.5117C184.979 59.5117 189.216 54.5232 189.216 46.0418C189.216 38.0659 184.979 33.0774 178.245 33.0774C175.005 33.0774 172.26 34.3236 170.266 36.5669V22.1035H165.776V59.0132H170.017V55.5237C172.256 58.2655 174.749 59.5117 178.491 59.5117ZM170.262 46.291C170.262 40.5548 173.253 37.3146 177.494 37.3146C181.984 37.3146 184.729 40.5548 184.729 46.0418C184.729 52.0273 181.984 55.271 177.494 55.271C173.004 55.271 170.262 51.7815 170.262 46.291ZM268.764 42.8016C268.751 37.3616 269.813 31.9726 271.888 26.9441C273.964 21.9156 277.012 17.3468 280.859 13.5001C284.706 9.65344 289.275 6.60475 294.303 4.52915C299.332 2.45356 304.721 1.39197 310.161 1.4054H310.659C333.105 2.15314 351.055 20.3587 351.055 42.8016C351.055 65.7429 332.603 84.1977 309.908 84.447C298.934 84.3644 288.441 79.9343 280.729 72.1277C273.016 64.3212 268.714 53.7752 268.764 42.8016ZM315.651 43.0508V59.0132H320.134V42.8051C320.134 36.3211 317.143 33.0774 311.656 33.0774C309.409 33.0774 306.917 34.0744 304.674 36.0719V22.1035H300.433V59.0132H304.674V49.5383C304.674 41.8081 306.169 37.0689 311.407 37.0689C314.159 37.0654 315.651 39.0628 315.651 43.0508ZM535.603 43.0508C535.603 20.1095 554.307 1.4054 577.249 1.4054C600.197 1.4054 618.648 20.1095 618.648 43.0508C618.648 65.7464 600.197 84.4505 577.249 84.4505C554.307 84.447 535.603 65.7429 535.603 43.0508Z" fill="black"/>
<path fill-rule="evenodd" clip-rule="evenodd" d="M481.492 85.6966C481.492 85.6966 481.492 85.4474 481.239 85.4474C480.994 85.4474 481.239 84.9454 481.239 84.6997C481.239 84.6997 481.239 83.7027 481.492 83.2007C481.738 81.9579 481.738 82.2037 481.994 81.7052C481.994 81.4559 482.489 80.7082 483.237 80.7082C483.739 80.7082 484.483 79.7112 484.739 78.9635C485.234 78.4614 486.481 76.2182 486.481 75.969C486.726 75.2212 486.726 74.972 486.983 74.2207C486.983 73.7222 486.983 71.7282 487.228 70.7313V69.2358C486.983 68.7338 486.983 67.7368 486.481 66.989C486.481 66.4905 485.487 64.7423 485.234 64.7423L484.241 62.9976C483.995 62.7483 482.493 61.7548 482.247 61.2528C482.247 60.7508 481.246 60.5051 480.499 60.2558C480.004 60.2558 480.004 59.5081 479.253 59.5081C478.758 59.7573 477.259 59.5081 477.009 59.2589C476.262 60.0066 476.016 60.0066 475.763 60.0066C475.517 60.2558 474.022 61.2528 474.022 61.5056C474.022 61.7583 473.52 63.2503 473.769 63.7523C474.77 67.7403 472.274 70.4855 472.028 71.479C471.775 71.981 470.782 73.7257 470.28 74.972C470.034 75.969 469.286 78.4615 469.033 78.7107C468.788 79.4584 469.286 80.4554 468.04 80.7047C466.537 80.7047 466.046 81.7017 466.046 81.7017C465.793 82.2002 465.544 81.9509 465.793 82.9444C465.793 83.4464 465.045 83.9449 463.55 84.1906C462.802 84.4399 462.549 84.4399 462.304 84.1906C462.058 84.1906 462.058 83.6921 462.058 83.4429C462.058 83.4429 462.058 82.4459 462.304 81.6982C462.304 80.7012 462.304 80.9469 462.549 80.4519C462.802 80.2027 463.051 79.4549 463.796 79.2057C464.543 79.2057 465.042 78.2087 465.544 77.7102C465.79 76.9624 466.537 75.2177 466.537 74.9685C466.79 74.2172 467.039 73.7222 467.039 73.4695C467.292 73.2237 468.04 71.2263 468.04 69.98C468.04 69.4815 468.286 68.7338 468.286 68.4845C468.04 68.2353 468.286 66.9855 468.04 66.2378C467.787 65.7358 467.039 64.2438 466.794 64.2438C466.541 64.2438 466.292 63.7453 465.298 63.7453C464.298 63.991 463.304 64.2438 462.3 64.2438C461.552 64.493 460.306 64.493 459.558 64.493C458.811 64.493 456.817 64.2438 456.315 64.2438C455.813 63.9946 455.321 63.2468 454.574 62.9976C453.819 62.9976 452.579 62.7483 452.077 62.4991C451.33 62.4991 451.077 61.5021 450.084 61.2528C449.336 61.2528 447.588 61.5021 446.84 61.5021C446.338 61.7513 445.846 61.7513 444.344 61.7513C443.101 61.9971 442.848 62.2498 441.855 62.2498C441.107 62.2498 440.854 62.4991 439.861 62.7483C439.113 62.7483 438.86 63.2503 438.113 63.4996C437.611 63.7488 437.365 63.4996 436.866 63.7488C436.621 63.7488 436.371 63.7488 435.873 63.9946C435.742 64.0028 435.62 64.0584 435.527 64.1508C435.435 64.2432 435.379 64.3661 435.371 64.4966C434.623 65.2443 435.125 66.2413 434.869 66.989C434.623 67.491 434.623 68.488 434.623 68.7338C434.869 69.2358 434.121 73.9715 434.121 75.2212C434.121 76.2147 434.374 79.2092 434.374 79.2092C434.374 79.9604 434.62 80.9539 433.373 81.7052C432.127 81.9544 432.127 83.2007 432.127 83.2007C431.881 83.4499 431.625 82.7022 431.881 83.9519C431.881 84.4504 431.134 84.9454 429.631 85.4474C429.385 85.4474 429.136 85.4474 429.136 85.6966H428.388C428.136 85.4474 428.136 84.9454 428.136 84.6997V83.2007C428.136 81.9579 428.136 82.7022 428.388 82.2037C428.388 81.9579 428.883 81.4559 429.382 81.4559C430.13 80.9539 430.382 80.2097 430.382 79.2092C430.628 78.9635 430.628 78.7107 430.628 78.2122V76.2182C430.628 75.4705 430.874 74.7227 430.628 74.2242C430.874 73.7257 430.628 69.987 430.382 68.99V66.2483C430.382 65.7463 430.382 65.5006 429.88 65.2513C429.378 65.0021 429.133 65.0021 428.634 64.7493C428.388 64.5036 428.132 64.5036 427.388 64.2508H427.142C426.64 64.5001 425.896 64.5001 425.647 65.2478C425.647 65.7463 425.647 66.7433 425.394 66.9925C425.148 67.4945 425.148 68.9865 425.148 68.7373C425.148 69.4885 424.148 73.7257 424.148 75.2247C424.148 76.4675 423.902 78.2157 423.902 78.465C423.656 79.2127 424.148 80.2097 422.901 80.4589C421.406 80.7082 421.16 81.9579 421.16 81.9579C420.908 82.2037 420.658 81.7087 420.908 82.9514C420.908 83.4534 420.413 83.9519 418.914 84.4504C418.166 84.4504 417.92 84.6997 417.671 84.4504C417.418 84.4504 417.418 83.9519 417.418 83.7027V81.9579V80.7117C417.671 80.4625 417.92 79.7147 418.664 79.4655C419.166 79.4655 419.911 78.7177 419.911 77.97C420.156 77.468 420.658 75.7232 420.658 75.474V73.9785C420.904 73.4765 421.16 69.7378 420.904 68.7408C420.904 67.4981 421.157 66.9961 421.157 65.9991C421.157 65.0021 421.157 63.7558 420.904 63.2573C420.904 62.7553 420.156 61.7619 419.409 61.5126L419.163 61.2634C418.468 60.8061 417.802 60.3066 417.169 59.7679C416.539 59.485 415.864 59.3151 415.175 59.2659C414.427 59.2659 413.679 58.7639 413.427 58.7639C413.181 58.7639 412.932 58.5181 412.433 58.2654C412.433 58.2654 411.685 58.0161 411.433 58.0161C410.685 58.0161 409.439 57.7704 408.944 57.0191C408.445 56.5021 408.025 55.9142 407.697 55.2744C407.423 54.8744 407.174 54.4582 406.95 54.0282C406.697 54.0282 406.448 53.2804 405.949 52.5327C405.447 52.2834 405.201 51.5357 405.201 51.0372C404.699 50.2859 404.454 49.2889 404.208 48.5412C403.955 47.7935 403.706 46.7965 403.706 46.0452C403.706 45.5467 402.958 43.802 403.204 44.0547C402.958 43.3035 402.702 42.0608 402.702 42.0608C402.702 42.0608 402.456 38.817 402.702 38.0693C402.456 38.0693 402.702 35.3241 402.456 34.3306C402.21 33.0843 401.954 32.5823 401.954 31.8346C401.514 30.9639 401.18 30.0434 400.961 29.0929C400.961 28.5944 400.708 27.8466 400.961 27.3481C400.961 27.0989 400.708 26.8496 400.708 26.6004C400.436 26.0651 400.102 25.5633 399.714 25.1049C399.469 24.8556 397.966 24.8556 397.72 24.8556C396.973 24.6064 395.224 24.6064 394.979 24.6064C394.231 24.6064 392.735 25.1084 391.981 25.3541C390.987 25.3541 390.987 25.1049 390.485 24.8556C389.738 24.8556 388.99 24.1079 388.99 24.1079C388.488 23.6094 388.488 23.1109 388.488 22.6124C387.74 22.1139 386.992 21.3662 387.242 20.3692C387.494 18.8737 388.744 17.8767 389.492 16.6305C389.987 15.6335 391.486 14.6365 392.981 13.3868C393.975 11.8913 394.227 11.8913 395.723 10.645C396.716 9.3988 397.218 8.9003 397.966 8.15256C398.468 7.40482 400.708 5.90934 401.21 5.66009H401.463C402.161 5.32025 402.929 5.14946 403.706 5.16157C404.208 5.16157 404.952 4.41383 405.949 4.91233C406.195 4.41383 406.195 3.66611 406.451 3.41686L407.199 2.6691C407.701 2.1706 408.445 1.66859 408.694 0.920851C408.947 -0.0761392 409.941 0.671619 410.443 1.91786C410.688 2.6656 410.945 2.91485 410.945 3.6626C411.19 3.1641 411.44 2.91484 411.692 2.41635C411.938 2.1671 412.187 1.66859 412.939 1.1701C413.686 0.422353 414.933 0.173128 415.182 -0.578125H416.677C416.93 -0.328877 416.93 0.169603 417.179 0.668098C417.425 2.16358 417.927 3.16058 417.425 4.40682C416.93 5.90231 414.936 6.4008 417.678 6.65005C418.426 6.65005 418.671 6.4008 419.921 6.65005C420.915 6.65005 421.915 6.89928 422.663 7.89627C422.908 8.14552 423.165 8.39479 424.158 8.39479C424.906 8.14554 425.405 8.89328 425.907 9.14252C426.9 9.38826 427.153 9.38825 427.9 10.1395C428.648 10.638 428.648 10.638 429.396 11.3858C429.898 11.635 429.898 12.1335 430.396 12.3863C431.144 12.3863 431.892 12.8847 432.64 13.3832C432.885 13.3832 433.142 13.8852 433.633 14.131C434.388 14.3802 435.627 14.6295 436.631 14.3802C437.877 13.8817 440.121 14.3802 441.616 14.8822C442.862 15.1315 443.364 15.63 444.614 15.63C445.86 15.3807 447.356 15.63 448.104 15.3807C449.054 15.1598 449.975 14.825 450.845 14.3837C452.092 13.8852 453.587 13.8852 454.588 13.8852C455.83 13.8852 458.323 13.3832 459.572 13.636C461.321 13.636 463.315 13.3867 465.056 13.636C467.306 14.1345 468.3 13.3868 470.048 13.3868C472.042 13.1375 473.783 13.3867 475.033 13.636C477.529 14.1345 478.031 14.1345 479.024 14.1345C481.52 13.8852 483.514 14.633 484.016 15.1315C484.511 15.3807 485.512 16.3777 486.751 17.1255C488.253 17.8732 489.001 19.8672 489.5 20.8642C490.247 21.6119 490.493 22.6089 491.241 23.3567C491.989 23.8552 492.989 25.3506 493.235 25.8491C493.488 26.3512 493.983 27.0954 493.983 27.5974C494.485 28.3451 494.983 29.3421 495.478 29.8406C496.724 30.0899 497.728 32.8351 497.974 33.5828C497.974 34.0813 498.476 35.0783 498.476 35.5768C498.722 35.5768 498.722 35.8261 498.722 36.0753V38.817C498.476 39.3155 498.722 39.5648 498.722 39.814C498.476 40.0633 498.476 40.811 498.476 41.0603C498.476 41.313 498.476 41.808 498.23 42.3065C497.978 43.3035 497.978 43.8055 497.978 44.0547C497.732 45.5502 497.476 46.0452 497.476 46.7965C497.476 47.295 497.728 49.289 497.23 50.0367C496.482 51.2829 496.236 52.5327 495.984 52.7819V54.0247C495.738 54.7759 495.738 55.5236 495.482 56.0186C495.482 56.5206 494.987 57.0156 494.488 57.2649C494.017 57.7623 493.408 58.1092 492.74 58.2618C492.245 58.5111 491.747 59.0096 491.244 59.2589C490.742 59.7609 490.497 59.7608 490.497 60.5051V61.5021C490.742 62.0006 491.743 62.9976 491.992 63.7488C493.495 67.7368 491.497 70.7278 491.244 71.7248C491.244 72.476 489.998 75.9655 489.998 76.7132C489.503 77.7102 488.503 80.2027 488.503 80.2027C488.257 80.9504 488.503 81.9509 487.257 82.1966C486.01 82.1966 485.263 83.1936 485.263 83.1936C485.263 83.4429 484.768 83.1936 485.017 84.4399C484.771 84.9384 484.269 85.4369 482.774 85.6861H481.492V85.6966Z" fill="black"/>
</g>
<defs>
<clipPath id="clip0_16_214">
<rect width="618.353" height="84.6167" fill="white" transform="translate(0.987549 0.244385)"/>
</clipPath>
</defs>
</svg>
