<?xml version="1.0" encoding="utf-8"?>
<!-- Generator: Adobe Illustrator 27.7.0, SVG Export Plug-In . SVG Version: 6.00 Build 0)  -->
<svg version="1.1" id="svg3161" xmlns:svg="http://www.w3.org/2000/svg"
	 xmlns="http://www.w3.org/2000/svg" xmlns:xlink="http://www.w3.org/1999/xlink" x="0px" y="0px" viewBox="0 0 577.3 63.4"
	 style="enable-background:new 0 0 577.3 63.4;" xml:space="preserve">
<style type="text/css">
	.st0{fill:#FFFFFF;}
</style>
<g id="layer1" transform="translate(-79.31097,-665.20007)">
	<path id="path136" class="st0" d="M207.8,706.5c-2.7,4.7-6.4,7.8-13.3,7.8c-9.6,0-17-7.8-17-17.4c0-9.6,7.4-17.4,17-17.4
		c7,0,11.2,3.5,13.8,8.8h10.2c-2.7-10.5-12.4-18.1-24.2-18.1c-14.8,0-26.1,11.9-26.1,26.7c0,14.8,11.3,26.7,26.1,26.7
		c11.4,0,20.8-6.7,23.9-17.1L207.8,706.5L207.8,706.5z M630,723.6c-8.8,0-17.9-3.6-22.8-10.7l7.9-5.7c3.7,5,9.1,7.5,14.9,7.5
		c5.1,0,11.6-1.5,11.6-6.5c0-5.6-9.5-6.5-13.7-7.5c-8.4-2-17.8-3.8-17.8-14.8c0-10.7,10.3-15.8,19.7-15.8c8.7,0,16,3.1,21.3,10.1
		l-7.6,5.7c-3.4-4.4-7.5-7-13.7-7c-5.5,0-9.7,2-9.7,5.5c0,5.7,8.2,5.8,15.3,7.5c7.5,1.8,16.2,4.1,16.2,14.7
		C651.6,719.3,640.2,723.6,630,723.6 M591.8,688.5c0,4.3-3.5,7.8-7.8,7.8h-15.2v-15.6H584C588.3,680.7,591.8,684.2,591.8,688.5
		 M602.9,722.4L592,703.7c5.4-2.8,9.1-8.6,9.1-15.1c0-9.5-7.6-17.1-17.1-17.1h-24.5v50.9h9.3v-16.7h13.5l9.6,16.7H602.9L602.9,722.4
		z M539.5,696.9c0,9.6-7.8,17.4-17.4,17.4c-9.6,0-17.4-7.8-17.4-17.4c0-9.6,7.8-17.4,17.4-17.4C531.7,679.5,539.5,687.3,539.5,696.9
		 M548.8,696.9c0-14.8-11.9-26.7-26.7-26.7c-14.8,0-26.7,11.9-26.7,26.7c0,14.8,11.9,26.7,26.7,26.7
		C536.8,723.6,548.8,711.7,548.8,696.9 M483.5,722.4l-16.7-23.4l-6.5,6.7v16.7h-9.3v-50.9h9.3v21.2l20.7-21.2h12.4l-19.9,20.7
		l21.6,30.3L483.5,722.4L483.5,722.4z M383.7,722.4v-50.9h9.3V713h21.8v9.3L383.7,722.4L383.7,722.4z M335,722.4v-50.9h35.3v9.3h-26
		v11.5h26v9.3h-26V713h26v9.3L335,722.4L335,722.4z M309.4,701.6h-13.8l6.9-17.5L309.4,701.6z M327.7,722.4l-20.4-50.9h-9.6
		l-20.4,50.9h10l4.7-11.6H313l4.7,11.6H327.7z M260.6,722.4v-20.8H237v20.8h-9.3v-50.9h9.3v20.8h23.6v-20.8h9.3v50.9H260.6z
		 M150.4,671.4h9.3v50.9h-9.3V671.4z M129.1,722.4v-36.7l-12.7,36.7h-10.2l-12.6-36.7v36.7h-9.3v-50.9h13.8l13.2,36.7l13.2-36.7
		h13.8v50.9H129.1z"/>
</g>
</svg>
