<?xml version="1.0" encoding="utf-8"?>
<!-- Generator: Adobe Illustrator 27.9.0, SVG Export Plug-In . SVG Version: 6.00 Build 0)  -->
<svg version="1.1" id="Layer_1" xmlns="http://www.w3.org/2000/svg" xmlns:xlink="http://www.w3.org/1999/xlink" x="0px" y="0px"
	 viewBox="0 0 97.8 43.6" style="enable-background:new 0 0 97.8 43.6;" xml:space="preserve">
<style type="text/css">
	.st0{fill:#FFFFFF;}
	.st1{stroke:#FFFFFF;stroke-width:1.3004;}
</style>
<g>
	<path class="st0" d="M20.2,1.5L20.2,1.5L25.1,16h2l4.3-16H30l-3.8,14.6l0,0L21.1,0h-1.8l-4.8,14.6l0,0L10.8,0H9.2l4.2,16h2.1
		L20.2,1.5"/>
	<path class="st0" d="M33.4,4.9V16h1.4V4.9H33.4z M34.9,0h-1.6v1.7h1.6V0"/>
	<path class="st0" d="M48.1,10.7c0-3.5-1.4-6.2-5.2-6.2c-3.4,0-5.1,2.9-5.1,5.9s1.6,5.9,5,5.9c2.7,0,4.4-1.2,5.1-3.9h-1.4
		c-0.3,1.5-1.7,2.7-3.3,2.7c-2.8,0-3.9-2-3.9-4.4C39.3,10.7,48.1,10.7,48.1,10.7z M39.4,9.5c0.2-1.9,1.4-3.8,3.6-3.8
		c2.3,0,3.5,1.6,3.7,3.8H39.4"/>
	<path class="st0" d="M58.8,10.2c0,2.5-0.9,4.9-3.9,4.9c-2.6,0-3.2-2.8-3.2-4.9s0.8-4.5,3.4-4.5C57.8,5.8,58.8,7.9,58.8,10.2z
		 M58.9,16h1.4c0-0.8-0.1-1.6-0.1-2.5V0h-1.4v6.5l0,0c-0.8-1.3-2.4-2-3.9-2c-3.4,0-4.7,3-4.7,5.9c0,2.8,1.3,5.9,4.7,5.9
		c1.6,0,3-0.7,3.9-2.1v0.1L58.9,16"/>
	<path class="st0" d="M73.2,10.7c0-3.5-1.4-6.2-5.2-6.2c-3.4,0-5.1,2.9-5.1,5.9s1.6,5.9,5,5.9c2.7,0,4.4-1.2,5.1-3.9h-1.4
		c-0.3,1.5-1.7,2.7-3.3,2.7c-2.8,0-3.9-2-3.9-4.4C64.4,10.7,73.2,10.7,73.2,10.7z M64.5,9.5c0.2-1.9,1.4-3.8,3.6-3.8
		c2.3,0,3.5,1.6,3.7,3.8H64.5"/>
	<path class="st0" d="M77.6,9.6c0-2,1-3.8,3.3-3.8c1.8,0,3,1.1,3,3.1V16h1.4V9c0-1.3-0.3-4.5-4-4.5c-1.5,0-2.8,0.6-3.5,2l0,0
		l-0.1-1.6h-1.4c0,0.8,0.1,1.6,0.1,2.5V16h1.4L77.6,9.6"/>
	<path class="st0" d="M1.4,39.4V31l7.8,8.4h2L3,30.6l7.5-7.2H8.8l-7.3,7v-7H0v16H1.4"/>
	<path class="st0" d="M22.8,34.1c0-3.5-1.4-6.2-5.2-6.2c-3.4,0-5.1,2.9-5.1,5.9s1.6,5.9,5,5.9c2.7,0,4.4-1.2,5.1-3.9h-1.4
		c-0.3,1.5-1.7,2.7-3.3,2.7c-2.8,0-3.9-2-3.9-4.4C14.1,34.1,22.8,34.1,22.8,34.1z M14.1,32.9c0.2-1.9,1.4-3.8,3.6-3.8
		c2.3,0,3.5,1.6,3.7,3.8H14.1"/>
	<path class="st0" d="M27.3,33c0-2,1-3.8,3.3-3.8c1.8,0,3,1.1,3,3.1v7.2H35v-7c0-1.3-0.3-4.5-4-4.5c-1.5,0-2.8,0.6-3.5,2l0,0
		l-0.1-1.6H26c0,0.8,0.1,1.6,0.1,2.5v8.6h1.4L27.3,33"/>
	<path class="st0" d="M39.8,33c0-2,1-3.8,3.3-3.8c1.8,0,3,1.1,3,3.1v7.2h1.4v-7c0-1.3-0.3-4.5-4-4.5c-1.5,0-2.8,0.6-3.5,2l0,0
		l-0.1-1.6h-1.4c0,0.8,0.1,1.6,0.1,2.5v8.6H40L39.8,33"/>
	<path class="st0" d="M60.6,34.1c0-3.5-1.4-6.2-5.2-6.2c-3.4,0-5.1,2.9-5.1,5.9s1.6,5.9,5,5.9c2.7,0,4.4-1.2,5.1-3.9H59
		c-0.3,1.5-1.7,2.7-3.3,2.7c-2.8,0-3.9-2-3.9-4.4H60.6z M51.9,32.9c0.2-1.9,1.4-3.8,3.6-3.8c2.3,0,3.5,1.6,3.7,3.8H51.9"/>
	<path class="st0" d="M71.4,33.5c0,2.5-0.9,4.9-3.9,4.9c-2.6,0-3.2-2.8-3.2-4.9s0.8-4.5,3.4-4.5C70.4,29.1,71.4,31.3,71.4,33.5z
		 M71.5,39.4h1.4c0-0.8-0.1-1.6-0.1-2.5V23.4h-1.4v6.5l0,0c-0.8-1.3-2.4-2-3.9-2c-3.4,0-4.7,3-4.7,5.9c0,2.8,1.3,5.9,4.7,5.9
		c1.6,0,3-0.7,3.9-2.1v0.1L71.5,39.4"/>
	<path class="st0" d="M74.7,28.2l4.7,11.1l-1.7,4.3h1.5l6.3-15.4H84l-3.8,9.3l-3.8-9.3L74.7,28.2"/>
</g>
<g>
	<path class="st1" d="M91.5,16v12.3"/>
	<path class="st1" d="M85.2,22.1h12.5"/>
</g>
</svg>
