<?xml version="1.0" encoding="utf-8"?>
<!-- Generator: Adobe Illustrator 27.9.0, SVG Export Plug-In . SVG Version: 6.00 Build 0)  -->
<svg version="1.1" id="Layer_1" xmlns="http://www.w3.org/2000/svg" xmlns:xlink="http://www.w3.org/1999/xlink" x="0px" y="0px"
	 viewBox="0 0 88 22" style="enable-background:new 0 0 88 22;" xml:space="preserve">
<style type="text/css">
	.st0{fill-rule:evenodd;clip-rule:evenodd;fill:#FFFFFF;}
	.st1{fill:#FFFFFF;}
</style>
<path class="st0" d="M3.7,0h14.6c1,0,1.9,0.4,2.6,1.1C21.6,1.8,22,2.7,22,3.7v14.6c0,2-1.6,3.7-3.7,3.7H3.7c-2,0-3.7-1.6-3.7-3.7
	V3.7C0,1.6,1.6,0,3.7,0z M16.8,18c0.6,0,1.2-0.5,1.2-1.2l0-11.7C18,4.5,17.5,4,16.8,4H5.2C4.9,4,4.6,4.1,4.3,4.3
	C4.1,4.6,4,4.9,4,5.2v11.7C4,17.5,4.5,18,5.2,18H16.8z"/>
<path class="st1" d="M8.7,14C8.3,14,8,13.7,8,13.3V8.7c0-0.2,0.1-0.3,0.2-0.5C8.3,8.1,8.5,8,8.7,8h4.7c0.2,0,0.3,0.1,0.5,0.2
	C13.9,8.3,14,8.5,14,8.7v4.7c0,0.2-0.1,0.3-0.2,0.5c-0.1,0.1-0.3,0.2-0.5,0.2L8.7,14z"/>
<path class="st1" d="M33.2,10c-0.7-0.2-1.3-0.4-1.8-0.6C30.4,9,30,8.4,30,7.6c0-1.5,1.5-2.2,3-2.2c1.4,0,2.6,0.6,3.5,1.6l0.1,0.1
	l1.2-0.9l-0.1-0.1c-1.1-1.4-2.7-2.2-4.6-2.2c-1.2,0-2.4,0.3-3.2,0.9c-0.9,0.7-1.4,1.7-1.4,2.8c0,2.7,2.6,3.4,4.6,3.9
	c2.1,0.6,3.4,1,3.4,2.6c0,1.6-1.3,2.6-3.2,2.6c-1,0-2.8-0.3-3.9-2l-0.1-0.1L28,15.6l0,0.1c1.1,1.6,2.9,2.5,5.1,2.5
	c2.9,0,4.9-1.6,4.9-4.1C38,11.3,35.3,10.6,33.2,10z"/>
<path class="st0" d="M47.5,9.5V8h1.4v14h-1.4v-5.5c-0.8,1.1-2,1.7-3.4,1.7c-2.7,0-4.5-2.1-4.5-5.2c0-3.1,1.9-5.2,4.5-5.2
	C45.5,7.7,46.7,8.4,47.5,9.5z M41.1,13c0,2.9,1.6,3.9,3.2,3.9l0,0c2,0,3.3-1.5,3.3-3.9s-1.3-3.9-3.3-3.9C41.9,9.1,41.1,11.1,41.1,13
	z"/>
<path class="st1" d="M58.2,8v5.5c0,1.9-1.3,3.3-3.2,3.3c-1.5,0-2.3-0.9-2.3-2.8V8h-1.4v6.4c0,2.4,1.3,3.8,3.5,3.8
	c1.4,0,2.5-0.6,3.3-1.6V18h1.4V8H58.2z"/>
<path class="st0" d="M62.3,9c1-0.8,2.4-1.3,3.9-1.3c2.2,0,3.6,1.1,3.6,3V18h-1.4v-1.1c-0.7,0.9-1.7,1.3-3.1,1.3
	c-2.2,0-3.5-1.2-3.5-3.1c0-2.5,2.3-2.8,3.3-3c0.2,0,0.3-0.1,0.5-0.1h0l0,0c1.4-0.2,2.7-0.4,2.7-1.6c0-1.3-1.7-1.4-2.2-1.4
	c-0.9,0-2.2,0.3-3.1,1L63,10.2L62.3,9L62.3,9z M63.2,15.1c0,1.6,1.5,1.8,2.2,1.8h0c1.4,0,2.9-0.8,2.9-2.9v-1.4
	c-0.7,0.4-1.7,0.6-2.5,0.8l0,0l-0.4,0.1C63.9,13.6,63.2,14,63.2,15.1z"/>
<path class="st1" d="M77.9,8.2c-0.3-0.2-0.9-0.4-1.4-0.4c-1.1,0-2.2,0.6-2.8,1.5V8h-1.4v10h1.4v-5.4c0-2.4,1.3-3.4,2.7-3.4
	c0.4,0,0.8,0.1,1.1,0.2l0.1,0.1L77.9,8.2L77.9,8.2z"/>
<path class="st0" d="M78.3,13c0-3.1,1.9-5.3,4.7-5.3c2.7,0,4.5,1.9,4.5,4.7c0,0.2,0,0.5,0,0.7l0,0.1h-7.7c0,2.2,1.4,3.6,3.4,3.6
	c1.2,0,2.2-0.5,2.8-1.3l0.1-0.1l1,0.9L87,16.4c-0.7,0.8-1.9,1.8-3.9,1.8C80.2,18.2,78.3,16.1,78.3,13z M82.9,9.1
	c-1.7,0-2.9,1.1-3.1,2.9H86C85.9,10.6,85,9.1,82.9,9.1z"/>
</svg>
