<?xml version="1.0" encoding="utf-8"?>
<!-- Generator: Adobe Illustrator 27.7.0, SVG Export Plug-In . SVG Version: 6.00 Build 0)  -->
<svg version="1.1"
	 id="Layer_1" xmlns:cc="http://creativecommons.org/ns#" xmlns:rdf="http://www.w3.org/1999/02/22-rdf-syntax-ns#"
	 xmlns="http://www.w3.org/2000/svg" xmlns:xlink="http://www.w3.org/1999/xlink" x="0px" y="0px" viewBox="0 0 948 191"
	 style="enable-background:new 0 0 948 191;" xml:space="preserve">
<style type="text/css">
	.st0{fill:#FFFFFF;}
</style>
<path id="Logo0" class="st0" d="M31.1,126c0,11,2.4,19.4,5.6,24.5c4.1,6.7,10.3,9.5,16.6,9.5c8.1,0,15.5-2,29.8-21.8
	c11.4-15.8,24.9-38.1,34-52l15.4-23.6c10.7-16.4,23-34.6,37.2-47C181.1,5.6,193.5,0,206.1,0c21.1,0,41.1,12.2,56.5,35.1
	c16.8,25.1,25,56.7,25,89.3c0,19.4-3.8,33.6-10.3,44.9c-6.3,10.9-18.5,21.8-39.1,21.8v-31c17.6,0,22-16.2,22-34.7
	c0-26.4-6.2-55.7-19.7-76.7c-9.6-14.9-22.1-23.9-35.8-23.9c-14.9,0-26.8,11.2-40.2,31.2c-7.1,10.6-14.5,23.5-22.7,38.1l-9.1,16.1
	c-18.2,32.3-22.8,39.6-31.9,51.8C84.7,182.9,71.1,191,53.2,191c-21.3,0-34.7-9.2-43-23.1C3.3,156.6,0,141.8,0,124.9L31.1,126z"/>
<path id="Logo1" class="st0" d="M24.5,37.3C38.7,15.3,59.3,0,82.8,0c13.7,0,27.2,4,41.4,15.6c15.5,12.6,32,33.5,52.6,67.8l7.4,12.3
	c17.8,29.7,28,45,33.9,52.2c7.6,9.3,13,12,19.9,12c17.6,0,22-16.2,22-34.7l27.4-0.9c0,19.4-3.8,33.6-10.3,44.9
	c-6.3,10.9-18.5,21.8-39.1,21.8c-12.8,0-24.1-2.8-36.7-14.6c-9.6-9.1-20.9-25.2-29.6-39.7l-25.8-43.1c-12.9-21.6-24.8-37.7-31.7-45
	c-7.4-7.8-16.9-17.3-32-17.3c-12.3,0-22.7,8.6-31.4,21.8L24.5,37.3z"/>
<path id="Logo2" class="st0" d="M82.3,31.2c-12.3,0-22.7,8.6-31.4,21.8C38.6,71.6,31.1,99.3,31.1,126c0,11,2.4,19.4,5.6,24.5
	l-26.5,17.4C3.3,156.6,0,141.8,0,124.9c0-30.8,8.4-62.8,24.5-87.6C38.7,15.4,59.3,0,82.8,0L82.3,31.2z"/>
<path id="Text" class="st0" d="M347.9,6h35.9L445,116.6L506.1,6h35.2v181.6h-29.3V48.5l-53.6,96.4h-27.5l-53.6-96.4v139.2h-29.3V6z
	 M633,73.8c-21,0-33.7,15.8-36.7,35.4h71.3C666.2,89,654.6,73.8,633,73.8L633,73.8z M567.3,120.3c0-41.2,26.6-71.2,66.3-71.2
	c39,0,62.3,29.6,62.3,73.4v8h-99.5c3.5,21.3,17.7,35.7,40.5,35.7c18.2,0,29.6-5.6,40.3-15.7l15.6,19.1c-14.7,13.5-33.3,21.3-57,21.3
	C592.9,190.9,567.3,159.6,567.3,120.3z M731.4,76.3h-27v-24h27V12.7h28.3v39.7h41v24h-41v60.8c0,20.8,6.6,28.1,23,28.1
	c7.5,0,11.7-0.6,18-1.7v23.7c-7.9,2.2-15.4,3.2-23.5,3.2c-30.5,0-45.8-16.7-45.8-50.1L731.4,76.3z M919.7,99.7
	c-5.7-14.3-18.3-24.9-37-24.9c-24.2,0-39.7,17.2-39.7,45.1c0,27.3,14.3,45.3,38.5,45.3c19.1,0,32.7-11.1,38.1-24.9V99.7z M948,187.6
	h-27.8v-18.9c-7.8,11.1-21.9,22.2-44.8,22.2c-36.8,0-61.4-30.8-61.4-70.9c0-40.5,25.2-70.8,62.9-70.8c18.7,0,33.3,7.5,43.2,20.6
	V52.4H948V187.6z"/>
</svg>
