<svg width="188" height="38" viewBox="0 0 188 38" fill="none" xmlns="http://www.w3.org/2000/svg">
<path d="M0.319824 0.960067H9.95983V4.80007H4.35982V33.2001H9.95983V37.0001H0.319824V0.960067Z" fill="white"/>
<path d="M26.3333 22.2401C26.4133 23.3201 26.8933 24.2001 27.8133 24.8801C28.7333 25.5601 29.9333 25.8801 31.4133 25.8801C32.6933 25.8801 33.7733 25.6401 34.5733 25.1601C35.3733 24.6801 35.8133 24.0001 35.8133 23.1601C35.8133 22.4801 35.6133 21.9601 35.2533 21.6001C34.8533 21.2801 34.3733 21.0401 33.7333 20.8801C33.0933 20.7201 32.1333 20.5601 30.8533 20.4001C29.0533 20.2001 27.5733 19.9201 26.4133 19.5601C25.2533 19.2001 24.3333 18.6401 23.6133 17.8401C22.8933 17.0401 22.5733 16.0001 22.5733 14.6401C22.5733 13.4001 22.8933 12.2801 23.6133 11.3201C24.3333 10.3601 25.2933 9.60007 26.5333 9.04007C27.7733 8.52007 29.1733 8.24007 30.7733 8.24007C33.3333 8.24007 35.4533 8.84007 37.0533 9.96007C38.6533 11.1201 39.5333 12.7201 39.6933 14.8001H35.4933C35.3733 13.8801 34.8933 13.1201 34.0933 12.5201C33.2533 11.9201 32.2133 11.6001 30.9733 11.6001C29.6933 11.6001 28.6933 11.8401 27.9333 12.3201C27.1333 12.8001 26.7733 13.4801 26.7733 14.2801C26.7733 14.9201 26.9333 15.3601 27.3333 15.6801C27.7333 16.0001 28.2133 16.2001 28.8133 16.3201C29.3733 16.4401 30.3333 16.5601 31.6533 16.7201C33.4133 16.9201 34.8933 17.2001 36.0933 17.6001C37.2933 18.0001 38.2533 18.6001 38.9733 19.4401C39.6933 20.2801 40.0533 21.4001 40.0533 22.8401C40.0533 24.1201 39.6533 25.2801 38.9333 26.2401C38.1733 27.2001 37.1333 27.9601 35.8533 28.4801C34.5333 29.0001 33.0533 29.2401 31.4533 29.2401C28.6933 29.2401 26.4533 28.6401 24.7733 27.4001C23.0933 26.1601 22.2133 24.4401 22.1733 22.2401H26.3333Z" fill="white"/>
<path d="M44.8773 12.3201H41.3173V8.52007H44.8773V2.80007H49.2373V8.52007H54.1573V12.3201H49.2373V23.0001C49.2373 23.8001 49.3973 24.4001 49.7173 24.7201C50.0373 25.0401 50.5573 25.2001 51.3573 25.2001H54.6373V29.0001H50.4773C48.5173 29.0001 47.0773 28.5601 46.1973 27.6401C45.3173 26.7601 44.8773 25.3601 44.8773 23.4401V12.3201Z" fill="white"/>
<path d="M76.3214 25.2401V29.0001H74.0414C72.6814 29.0001 71.7214 28.7201 71.1614 28.1601C70.5614 27.6001 70.2814 26.8001 70.2814 25.7201C68.7214 28.0801 66.4814 29.2401 63.5214 29.2401C61.2014 29.2401 59.3614 28.7201 58.0014 27.6401C56.6014 26.6001 55.9214 25.1201 55.9214 23.2401C55.9214 21.1601 56.6414 19.5201 58.1614 18.4001C59.6414 17.2801 61.8014 16.6801 64.6814 16.6801H69.8414V15.4401C69.8414 14.3201 69.4414 13.4001 68.6414 12.7601C67.8414 12.1201 66.7214 11.7601 65.3214 11.7601C64.0414 11.7601 63.0014 12.0401 62.2014 12.6001C61.4014 13.1601 60.9214 13.8801 60.7614 14.7601H56.5214C56.7214 12.7201 57.6414 11.1201 59.2414 10.0001C60.8414 8.88007 62.9214 8.28007 65.5214 8.28007C68.2414 8.28007 70.3614 8.92007 71.8814 10.2001C73.3614 11.4801 74.1214 13.3201 74.1214 15.7201V23.8001C74.1214 24.7601 74.5614 25.2401 75.4814 25.2401H76.3214ZM69.8414 19.8801H64.4814C63.1214 19.8801 62.1214 20.1601 61.4014 20.6801C60.6814 21.2001 60.3214 21.9601 60.3214 22.9601C60.3214 23.8401 60.6414 24.5601 61.3214 25.0801C62.0014 25.6401 62.9214 25.8801 64.1214 25.8801C65.8814 25.8801 67.2814 25.4001 68.2814 24.4401C69.2814 23.4801 69.8014 22.2001 69.8414 20.6001V19.8801Z" fill="white"/>
<path d="M98.5545 1.00007V29.0001H94.7945L94.2745 25.9201C92.6345 28.1601 90.3945 29.2401 87.5945 29.2401C85.7145 29.2401 84.0345 28.8401 82.5945 28.0001C81.1145 27.1601 79.9545 25.9601 79.1545 24.3601C78.3145 22.7601 77.9145 20.9201 77.9145 18.7601C77.9145 16.6801 78.3145 14.8801 79.1545 13.2801C79.9945 11.6801 81.1545 10.4801 82.6345 9.60007C84.0745 8.72007 85.7545 8.28007 87.5945 8.28007C89.0745 8.28007 90.3945 8.56007 91.5145 9.12007C92.6345 9.68007 93.5145 10.4001 94.2345 11.3601V1.00007H98.5545ZM92.6345 23.7201C93.7145 22.4801 94.2745 20.8401 94.2745 18.8401C94.2745 16.8001 93.7145 15.1601 92.6345 13.8801C91.5145 12.6001 90.0745 11.9601 88.3145 11.9601C86.5145 11.9601 85.0745 12.6001 83.9945 13.8801C82.8745 15.1601 82.3545 16.7601 82.3545 18.7601C82.3545 20.8001 82.8745 22.4401 83.9945 23.7201C85.0745 25.0001 86.5145 25.6001 88.3145 25.6001C90.0745 25.6001 91.5145 25.0001 92.6345 23.7201Z" fill="white"/>
<path d="M106.816 1.08007C107.296 1.56007 107.576 2.20007 107.576 2.92007C107.576 3.68007 107.296 4.32007 106.816 4.80007C106.296 5.28007 105.656 5.52007 104.936 5.52007C104.176 5.52007 103.536 5.28007 103.056 4.80007C102.536 4.32007 102.296 3.68007 102.296 2.92007C102.296 2.20007 102.536 1.56007 103.056 1.08007C103.536 0.600067 104.176 0.320068 104.936 0.320068C105.656 0.320068 106.296 0.600067 106.816 1.08007ZM102.776 8.52007H107.096V29.0001H102.776V8.52007Z" fill="white"/>
<path d="M129.691 8.52007V29.0001H125.891L125.411 26.4001C123.851 28.3201 121.731 29.2401 119.091 29.2401C116.691 29.2401 114.731 28.5201 113.251 27.0001C111.731 25.5201 111.011 23.1201 111.011 19.8001V8.52007H115.331V19.3601C115.331 21.3601 115.731 22.8801 116.531 23.9201C117.331 24.9601 118.491 25.4801 120.091 25.4801C121.731 25.4801 123.011 24.8801 123.971 23.6801C124.891 22.4801 125.371 20.8001 125.371 18.6801V8.52007H129.691Z" fill="white"/>
<path d="M163.068 10.4801C164.468 11.9201 165.188 14.2401 165.188 17.4401V29.0001H160.868V17.4801C160.868 15.7201 160.508 14.3601 159.788 13.4001C159.068 12.4801 157.988 12.0001 156.588 12.0001C155.068 12.0001 153.908 12.5601 153.028 13.6001C152.148 14.6401 151.748 16.0801 151.748 17.9201V29.0001H147.388V17.4801C147.388 15.6801 146.988 14.3201 146.268 13.4001C145.548 12.4801 144.468 12.0001 143.068 12.0001C141.588 12.0001 140.428 12.5601 139.548 13.6401C138.668 14.7601 138.268 16.2001 138.268 18.0401V29.0001H133.948V8.52007H137.708L138.188 11.2001C139.628 9.28007 141.628 8.32007 144.188 8.28007C145.628 8.28007 146.868 8.60007 147.988 9.20007C149.068 9.84007 149.908 10.7601 150.508 12.0001C151.228 10.8401 152.148 9.92007 153.348 9.28007C154.508 8.64007 155.908 8.28007 157.588 8.28007C159.828 8.28007 161.628 9.04007 163.068 10.4801Z" fill="white"/>
<path d="M187.419 37.0401H177.779V33.2001H183.379V4.80007H177.779V1.00007H187.419V37.0401Z" fill="white"/>
</svg>
