<?xml version="1.0" encoding="utf-8"?>
<!-- Generator: Adobe Illustrator 27.7.0, SVG Export Plug-In . SVG Version: 6.00 Build 0)  -->
<svg version="1.1"
	 id="svg200" xmlns:inkscape="http://www.inkscape.org/namespaces/inkscape" xmlns:sodipodi="http://sodipodi.sourceforge.net/DTD/sodipodi-0.dtd" xmlns:svg="http://www.w3.org/2000/svg" xmlns:rdf="http://www.w3.org/1999/02/22-rdf-syntax-ns#" xmlns:cc="http://creativecommons.org/ns#"
	 xmlns="http://www.w3.org/2000/svg" xmlns:xlink="http://www.w3.org/1999/xlink" x="0px" y="0px" viewBox="0 0 512 211"
	 style="enable-background:new 0 0 512 211;" xml:space="preserve">
<style type="text/css">
	.st0{fill-rule:evenodd;clip-rule:evenodd;fill:#FFFFFF;}
</style>
<sodipodi:namedview  bordercolor="#111111" borderopacity="1" id="namedview202" inkscape:current-layer="hbo-logo-blk" inkscape:cx="129.33648" inkscape:cy="119.7796" inkscape:deskcolor="#d1d1d1" inkscape:pagecheckerboard="1" inkscape:pageopacity="0" inkscape:showpageshadow="0" inkscape:window-height="1009" inkscape:window-maximized="1" inkscape:window-width="1920" inkscape:window-x="-8" inkscape:window-y="-8" inkscape:zoom="2.3543242" pagecolor="#ffffff" showgrid="false">
	</sodipodi:namedview>
<g id="hbo-logo-blk" transform="translate(0,3.0006123e-5)">
	<polyline id="Fill-15" class="st0" points="150.2,209.8 94.2,209.8 94.2,129.6 57.8,129.6 57.8,209.8 0,209.8 0,3.1 57.8,3.1 
		57.8,80 94.2,80 94.2,3.1 150.2,3.1 150.2,209.8 	"/>
	<path id="Fill-16" class="st0" d="M407,146.3c22.7,0,41.2-18.5,41.2-41.3c0-22.8-18.4-41.3-41.2-41.3c-22.7,0-41.2,18.5-41.2,41.3
		C365.8,127.8,384.3,146.3,407,146.3z M354.6,105c0-29,23.5-52.5,52.4-52.5c28.9,0,52.4,23.5,52.4,52.5c0,29-23.5,52.5-52.4,52.5
		C378.1,157.5,354.6,134,354.6,105z M281.7,105c6.5-0.8,17.3-8.3,21.1-13c-1.3,5.9-1.4,22.9,0.1,28.8
		C298.6,114.1,288.3,105.8,281.7,105L281.7,105z M244,49.4c8.2,0,14.7,8.1,14.7,17.4s-6.5,17.4-14.7,17.4h-28.3V49.4H244z
		 M243.9,126.8c8.2,0,14.7,8.2,14.7,17.4c0,9.3-6.5,17.4-14.7,17.4h-28.3v-34.9H243.9z M407,210.8c57.7,0,104.6-48,104.6-105.9
		C511.6,45.9,464.7,0,407,0c-57.6,0-87,42.5-94.3,59.6c0.1-25.8-25.3-56.1-54.9-56.2h-95.4v206.3l89,0c35.9,0,61.4-31.2,61.4-57.9
		C321,168.7,349.4,210.8,407,210.8L407,210.8z"/>
</g>
</svg>
