<svg width="427" height="117" viewBox="0 0 427 117" fill="none" xmlns="http://www.w3.org/2000/svg">
<path d="M148.844 52.1902H140.407V21.2098H129.342V95.8948H140.407V62.0099H148.844V95.8948H159.908V21.2098H148.844V52.1902ZM165.579 95.8948H188.952V85.9368H176.366V62.0099H187.154V52.1902H176.366V31.0295H188.952V21.2098H165.579V95.8948ZM202.506 21.2098L193.24 95.8948H203.474L205.272 78.4683H213.571L215.369 95.8948H226.018L216.752 21.2098H202.506ZM206.24 69.0635L208.177 49.5624L209.283 38.3597H209.56L210.666 49.5624L212.603 69.0635H206.24ZM239.71 21.2098H228.646V95.8948H252.849V85.9368H239.71V21.2098ZM249.945 31.0295H258.935V95.8948H270.138V31.0295H279.128V21.2098H249.945V31.0295ZM303.469 52.1902H295.033V21.2098H284.107V95.8948H295.033V62.0099H303.469V95.8948H314.534V21.2098H303.469V52.1902ZM340.12 21.2098L330.854 95.8948H341.089L342.887 78.4683H351.185L352.983 95.8948H363.632L354.366 21.2098H340.12ZM343.855 69.0635L345.791 49.5624L346.897 38.3597H347.036L348.142 49.5624L350.078 69.0635H343.855ZM382.58 21.3481H366.952V95.8948H382.58C391.294 95.8948 396.411 90.7775 396.411 82.7558V34.4871C396.411 26.3271 391.294 21.3481 382.58 21.3481ZM385.485 81.7877C385.485 84.6921 384.24 86.2134 381.75 86.2134H378.016V30.8912H381.75C384.102 30.8912 385.485 32.4125 385.485 35.3169V81.7877ZM425.87 31.1678V21.3481H402.358V95.7565H425.87V85.9368H413.284V62.1482H424.072V52.1902H413.284V31.1678H425.87ZM324.354 51.7753C321.311 51.7753 318.96 54.1265 318.96 57.1692C318.96 60.0737 321.449 62.5632 324.354 62.5632C327.396 62.5632 329.747 60.212 329.747 57.1692C329.747 54.2648 327.396 51.7753 324.354 51.7753ZM57.5618 2.12356C26.8579 2.67678 1.54797 27.5718 1.54797 58.5523C1.54797 89.9477 27.6878 115.673 60.0513 114.981C90.6169 114.29 115.927 89.3945 115.789 58.5523C115.927 27.0186 89.6487 1.43203 57.5618 2.12356ZM58.8066 108.342C30.8688 108.342 8.32495 86.0751 8.32495 58.5523C8.32495 31.0295 30.8688 8.76223 58.6682 8.76223C86.4677 8.76223 109.012 31.0295 109.012 58.5523C109.012 86.0751 86.4677 108.342 58.8066 108.342Z" fill="black"/>
<path d="M85.0849 74.0434L87.7127 74.8732C85.9147 77.9159 83.8401 80.4054 81.7655 82.3417C79.6909 84.0014 73.7438 88.0122 68.3499 83.8631C63.0943 79.7139 63.0943 74.1817 63.0943 71.9688V40.9883C63.0943 38.2222 65.3072 36.0093 68.2116 36.0093H73.8821C74.8502 37.254 76.5099 38.0839 78.1696 38.0839C81.2123 38.0839 83.7018 35.5944 83.7018 32.5516C83.7018 29.5089 81.2123 27.0194 78.1696 27.0194C76.2333 27.0194 74.5736 27.9876 73.6055 29.5089H64.7539C64.339 29.5089 63.7858 29.3706 63.3709 29.2323C63.3709 29.2323 63.2326 29.094 63.0943 29.094C60.4664 27.7109 61.5729 26.0513 62.8177 24.2533C63.5092 23.2852 64.0624 22.1787 64.0624 20.934C64.0624 18.0295 61.5729 15.54 58.6685 15.54C55.6258 15.54 53.2746 17.8912 53.2746 20.934C53.2746 22.0404 53.5512 23.0085 54.2427 23.9767C54.381 24.115 54.381 24.2533 54.5193 24.3916C55.7641 26.0513 56.7322 27.8493 54.2427 29.094C53.6895 29.3706 53.1362 29.5089 52.583 29.5089H43.8698C42.9016 27.9876 41.242 27.0194 39.3057 27.0194C36.2629 27.0194 33.7734 29.5089 33.7734 32.5516C33.7734 35.5944 36.2629 38.0839 39.3057 38.0839C41.1036 38.0839 42.625 37.254 43.5932 36.0093H49.2637C52.0298 36.0093 54.381 38.2222 54.381 40.9883V71.9688C54.381 74.1817 54.381 79.7139 49.1254 83.8631C43.8698 88.0122 37.9226 84.0014 35.7097 82.3417C33.6351 80.4054 31.5606 77.9159 29.7626 74.8732L32.3904 74.0434C32.9436 73.7668 32.9436 73.0752 32.3904 72.7986L22.1558 66.4366C21.7408 66.1599 21.1876 66.4365 21.0493 66.9898L20.6344 78.7458C20.6344 79.299 21.1876 79.7139 21.7408 79.4373L23.8154 77.6393C34.0501 95.6191 51.4766 97.0021 56.4556 97.0021H61.0197C65.9987 97.0021 83.2869 95.6191 93.6598 77.6393L95.7344 79.4373C96.2876 79.7139 96.8409 79.299 96.8409 78.7458L96.4259 66.9898C96.4259 66.4365 95.8727 66.1599 95.3195 66.4366L85.0849 72.7986C84.5316 73.0752 84.5316 73.7668 85.0849 74.0434ZM58.6685 22.7319C57.7003 22.7319 56.8705 21.9021 56.8705 20.934C56.8705 19.9658 57.7003 19.136 58.6685 19.136C59.6366 19.136 60.4665 19.9658 60.4665 20.934C60.4665 22.0404 59.7749 22.7319 58.6685 22.7319Z" fill="black"/>
</svg>
