<?xml version="1.0" encoding="utf-8"?>
<!-- Generator: Adobe Illustrator 27.7.0, SVG Export Plug-In . SVG Version: 6.00 Build 0)  -->
<svg version="1.1"
	 id="Layer_1" xmlns:inkscape="http://www.inkscape.org/namespaces/inkscape" xmlns:sodipodi="http://sodipodi.sourceforge.net/DTD/sodipodi-0.dtd" xmlns:svg="http://www.w3.org/2000/svg" xmlns:rdf="http://www.w3.org/1999/02/22-rdf-syntax-ns#" xmlns:cc="http://creativecommons.org/ns#" xmlns:dc="http://purl.org/dc/elements/1.1/"
	 xmlns="http://www.w3.org/2000/svg" xmlns:xlink="http://www.w3.org/1999/xlink" x="0px" y="0px" viewBox="0 0 1000 209.2"
	 style="enable-background:new 0 0 1000 209.2;" xml:space="preserve">
<style type="text/css">
	.st0{fill:#FFFFFF;}
</style>
<sodipodi:namedview  bordercolor="#666666" borderopacity="1" gridtolerance="10" guidetolerance="10" id="namedview12" inkscape:current-layer="Layer_1" inkscape:cx="611.40177" inkscape:cy="160.75581" inkscape:pageopacity="0" inkscape:pageshadow="2" inkscape:window-height="705" inkscape:window-maximized="1" inkscape:window-width="1366" inkscape:window-x="-8" inkscape:window-y="-8" inkscape:zoom="0.70710678" objecttolerance="10" pagecolor="#ffffff" showgrid="false">
	</sodipodi:namedview>
<g id="g3" transform="matrix(1.2500506,0,0,1.2500506,0,-0.00246783)">
	<g id="g5">
		<g id="g7">
			<g id="g9">
				<path id="path11" inkscape:connector-curvature="0" class="st0" d="M130.6,151c-37.2,0-67.3-30.2-67.3-67.4
					c0-37.2,30.1-67.3,67.3-67.3c13.1,0,25.3,3.7,35.7,10.2l-35.7,57.1l67.2-38.8c-7.3-11.6-17.8-21.7-30.4-29.3
					C151.3,6,128.9,0,104.1,0C68.7,0,37.7,12.8,20.4,32.1C7.6,46.3,0,64.2,0,83.7c0,19.5,7.6,37.4,20.4,51.6
					c17.3,19.3,47.9,32,82.7,32c34.8,0,65.3-12.8,82.6-32c0.9-1.1,1.9-2.1,2.7-3.2l-2.6-9.8C173.7,139.6,153.5,151,130.6,151"/>
				<path id="path13" inkscape:connector-curvature="0" class="st0" d="M353.4,163.3L325.2,58.1c-4.5-17-20-29.5-38.4-29.5
					c-4.8,0-9.4,0.9-13.6,2.4l-60.7,22.1h62.4l10.7,39.8c-10.4-8.9-23.8-14.3-38.6-14.3c-29.3,0-53,19.6-53,43.9
					c0,24.2,23.7,43.9,53,43.9c21.1,0,39.8-10.3,51.3-26.2l6.2,23.1H353.4 M267.4,146.9c-13.5,0-24.5-10.9-24.5-24.5
					c0-13.5,11-24.5,24.5-24.5s24.5,11,24.5,24.5C291.8,136,280.9,146.9,267.4,146.9z"/>
				<path id="path15" inkscape:connector-curvature="0" class="st0" d="M468.4,28.6c-3.7,0-7.2,0.8-10.3,2.3l-39,18.2
					c-1.9-11.6-12-20.4-24.2-20.4c-3.7,0-7.2,0.8-10.4,2.3l-47.6,22.2h33.5v110.2h49v-98c0-6.8,5.5-12.3,12.2-12.3
					c6.7,0,12.2,5.5,12.2,12.3v98h49V53.1C492.8,39.5,481.9,28.6,468.4,28.6"/>
				<path id="path17" inkscape:connector-curvature="0" class="st0" d="M775.5,28.6c-3.7,0-7.2,0.8-10.4,2.3L726.2,49
					c-1.9-11.6-12-20.4-24.2-20.4c-3.7,0-7.2,0.8-10.4,2.3l-47.6,22.2h33.5v110.2h49v-98c0-6.8,5.5-12.3,12.3-12.3
					c6.8,0,12.2,5.5,12.2,12.3v98h49V53.1C800,39.5,789,28.6,775.5,28.6"/>
				<path id="path19" inkscape:connector-curvature="0" class="st0" d="M652,98c0,38.3-31,69.4-69.3,69.4c-38.3,0-69.4-31-69.4-69.4
					c0-38.3,31.1-69.4,69.4-69.4C621,28.6,652,59.7,652,98 M585.5,49.6c-2.2-8.2-10.6-13-18.7-10.8c-8.2,2.2-13,10.6-10.8,18.7
					l23.8,88.7c2.2,8.2,10.6,13,18.7,10.8c8.2-2.2,13-10.6,10.8-18.8L585.5,49.6z"/>
			</g>
		</g>
	</g>
</g>
</svg>
