<svg width="493" height="69" viewBox="0 0 493 69" fill="none" xmlns="http://www.w3.org/2000/svg">
<path d="M114.699 45.3001C111.994 50.2811 109.431 54.5518 102.743 58.9658C99.1847 61.3856 91.7817 64.0901 87.5132 64.0901C87.5132 64.0901 84.5242 64.0901 82.8168 61.9548C81.8197 60.6732 81.1094 59.107 81.1094 57.115V32.4903H88.9382C90.361 32.4903 94.3471 33.4874 96.6257 36.1919C98.1919 38.1838 99.6148 40.8883 99.6148 46.2993H101.181V18.3989H99.7581C99.6148 23.5233 97.0537 27.366 94.4904 29.3601C93.4934 30.0726 91.358 31.2109 88.9382 31.3521H81.1094V9.1473C81.1094 6.29949 84.3829 3.59504 88.5102 3.59504C94.0625 3.59504 99.4714 5.30244 103.314 8.43482C106.446 10.8547 108.295 14.6974 110.005 18.9681H111.286L110.433 2.59799H64.8826V3.73625C70.4349 4.16417 71.1452 9.14516 71.1452 10.4268V57.5429C71.1452 58.8245 70.7173 63.0952 64.8826 64.2335V65.3717H111.714L116.126 45.7281L114.703 45.3001H114.699ZM253.056 14.8386C252.059 11.8496 252.344 10.1422 253.769 7.72233C256.189 3.73625 260.031 3.59504 260.031 3.59504V2.59799H234.41V3.73625C234.41 3.73625 238.537 3.02377 241.954 12.1342L260.744 65.3696H262.167L275.973 17.9689L291.774 65.3696H293.341C293.341 65.3696 309.283 21.3858 313.126 12.1342C316.827 3.16712 320.813 3.73625 320.813 3.73625V2.59799H304.871V3.73625C306.863 3.73625 308.998 4.16417 310.139 5.58701C312.843 8.57603 310.851 13.2746 310.708 13.9849L297.327 50.1399C295.761 45.5847 281.241 5.30244 280.387 2.7392H278.965L265.014 50.1399L253.056 14.8386ZM190.995 37.6125L200.39 14.4107L208.931 37.6125H190.995ZM146.44 31.7779H137.614V10.4268C137.614 9.85765 137.757 8.57603 138.327 7.43776C140.319 3.59504 145.727 3.87961 145.727 3.87961C152.987 3.87961 157.399 10.001 157.399 19.1114C157.399 19.1114 157.542 26.7969 152.987 30.2138C151.421 31.0675 148.86 31.78 146.44 31.78V31.7779ZM203.664 2.59585C203.664 2.59585 185.727 46.5796 181.885 55.8312C181.457 56.9695 180.887 57.9666 180.462 58.8203C179.608 60.2431 177.473 63.66 175.337 64.6571C175.053 64.8005 173.915 65.085 173.202 65.085C168.79 65.2284 166.086 59.3915 164.376 54.9775L161.813 48.7149C158.539 40.8861 154.697 34.9081 149.998 32.7728C154.269 32.6294 158.111 32.6294 161.385 31.0654C165.656 29.0734 167.648 24.6594 167.648 19.1093C167.648 14.8386 165.656 10.568 162.095 7.43776C158.394 4.30539 153.413 2.45677 148.004 2.45677H121.67V3.59504C127.222 4.02296 127.932 9.00395 127.932 10.2856V57.4017C127.932 58.6833 127.504 62.954 121.67 64.0922V65.2305H143.875V64.0922C138.038 62.954 137.612 58.6833 137.612 57.4017V32.7771H141.739C144.587 32.7771 146.436 34.1999 149.283 41.4596L153.126 51.2803C155.403 57.2584 160.67 66.7967 170.207 66.9379C173.339 66.9379 175.759 65.7996 176.328 65.3717H191.986V64.3747C189.994 64.3747 186.292 64.0901 184.726 62.3827C182.021 59.3937 183.872 54.9818 184.013 54.2693L188.569 43.0236H210.917L214.76 53.2723C215.757 56.2613 215.472 57.9687 214.047 60.3886C211.627 64.3747 207.784 64.5159 207.784 64.5159V65.5129H232.268V64.3747C232.268 64.3747 227.997 65.0872 224.58 55.9767L205.221 2.59799H203.655L203.664 2.59585ZM45.0913 2.59585V3.73411C47.0833 3.73411 49.2186 4.16203 50.5002 5.58487C53.2047 8.57389 51.2127 13.2703 51.0694 13.9828L34.9838 53.4114C34.1301 51.276 21.0336 16.8285 20.3233 14.8365C19.3262 11.8475 19.6108 10.1401 21.0358 7.72019C23.5969 3.73411 27.4417 3.5929 27.4417 3.5929V2.59585H2.38916V3.73411C2.38916 3.73411 6.6598 3.02163 10.218 12.132C14.0607 21.9528 30.5741 65.3674 30.5741 65.3674H31.7124C31.7124 65.3674 49.6487 21.3837 53.4914 12.132C57.0495 3.30619 61.4635 3.73411 61.4635 3.73411V2.59585H45.0935H45.0913ZM324.797 37.6125L334.192 14.4107L342.733 37.6125H324.797ZM409.206 2.59585V3.73411C412.195 3.73411 414.474 4.73117 416.182 6.29735C418.458 8.28932 419.74 11.2783 419.74 15.549V50.8503L384.297 2.59585H368.355V3.73411C370.49 3.87747 372.482 4.4466 374.333 6.01065C376.04 7.57684 376.61 9.5688 376.61 11.4196V52.5577C376.61 56.8283 375.187 59.8173 373.051 61.8093C371.344 63.2321 369.065 64.2292 366.076 64.3725C365.364 64.3725 361.521 63.9446 358.389 55.9746L339.03 2.59585H337.607C337.607 2.59585 315.828 55.9746 315.828 56.118C315.4 57.115 314.405 59.5349 312.126 62.2394C309.85 64.5159 308.14 64.2313 308.14 64.2313V65.3696H326.077V64.3725C324.085 64.3725 320.383 64.088 318.817 62.3806C316.112 59.3915 317.963 54.9797 318.104 54.2672L322.66 43.0215H344.723L348.566 53.2701C349.563 56.2592 349.278 57.9666 347.853 60.3865C345.434 64.3725 341.591 64.5137 341.591 64.5137V65.5108H388.848V64.3725C385.859 64.3725 383.58 63.3755 381.873 61.8093C379.596 59.8173 378.315 56.8283 378.315 52.5577V12.4166L418.74 65.2262H421.445V15.4056C421.445 11.135 422.868 8.14597 425.003 6.154C426.711 4.58781 428.989 3.73411 431.978 3.59076V2.59371H409.204L409.206 2.59585ZM484.221 42.5957C484.221 41.3141 484.649 37.0434 490.199 35.9051V34.7669H465.431V35.9051C468.279 35.9051 470.699 36.6176 472.406 38.1817C474.541 40.1736 474.541 43.306 474.541 47.5767V51.4194C474.541 51.4194 474.969 60.8144 466.997 63.9446C458.03 67.3616 450.77 63.66 445.646 54.4084C440.522 45.1568 442.942 23.0932 444.508 17.6843C446.074 12.2754 448.92 4.58781 459.027 3.87747C469.134 3.16498 476.251 13.1291 477.674 15.1232C479.096 17.1173 481.516 20.5321 482.655 23.3799L483.936 22.952L480.519 2.31128C480.519 2.31128 476.961 3.87747 471.837 3.87747C466.712 3.87747 463.011 2.31128 458.74 2.59585C454.47 2.88041 448.92 4.16203 442.37 10.1401C435.964 16.2615 432.263 27.5051 432.834 37.0434C433.405 46.5818 437.53 56.4025 444.08 61.2423C450.486 66.0821 457.033 67.5049 464.293 66.2233C471.552 64.9417 474.969 62.3806 478.527 61.3835C482.229 60.3865 482.939 60.1019 485.787 59.8173V58.5357C485.787 58.5357 484.08 58.2511 484.08 50.8481V42.5914L484.221 42.5957Z" fill="black"/>
</svg>
