<?xml version="1.0" encoding="utf-8"?>
<!-- Generator: Adobe Illustrator 27.7.0, SVG Export Plug-In . SVG Version: 6.00 Build 0)  -->
<svg version="1.1"
	 id="svg8" xmlns:svg="http://www.w3.org/2000/svg" xmlns:cc="http://creativecommons.org/ns#" xmlns:rdf="http://www.w3.org/1999/02/22-rdf-syntax-ns#" xmlns:dc="http://purl.org/dc/elements/1.1/"
	 xmlns="http://www.w3.org/2000/svg" xmlns:xlink="http://www.w3.org/1999/xlink" x="0px" y="0px" viewBox="0 0 265.8 58.6"
	 style="enable-background:new 0 0 265.8 58.6;" xml:space="preserve">
<style type="text/css">
	.st0{fill:#FFFFFF;}
</style>
<g id="layer1" transform="translate(-44.944093,-112.85835)">
	<path id="path4550" class="st0" d="M45.5,170.9c-0.3-0.3-0.5-2.1-0.5-4.1v-3.6l4.3-0.2l4.3-0.2l0.2-20.8l0.2-20.8h-4.5h-4.5V117
		v-4.1l18.2,0c10,0,46,0,80.1,0c34,0,80.5,0.1,103.3,0l41.5,0l-0.2,3.9l-0.2,3.9L177.1,121l-110.5,0.2l0.2,8.1
		c0.2,7.6,0.3,8.1,1.8,8.3c1.3,0.2,1.7-0.2,1.9-1.9c0.2-1.9,0.6-2.1,3.4-2.3l3.2-0.2v7.9v7.9h-2.6c-1.4,0-2.9,0.1-3.2,0.2
		c-0.3,0.1-0.7-0.8-0.8-1.9c-0.2-1.7-0.6-2.1-1.9-1.9c-1.6,0.2-1.6,0.6-1.6,8.9v8.6l4.4,0.2l4.4,0.2l-0.2,3.9l-0.2,3.9l-14.7,0.2
		C52.6,171.4,45.7,171.2,45.5,170.9L45.5,170.9z M86.4,170.3c-1.3-0.6-3.1-2.2-3.9-3.5c-1.4-2.3-1.5-3.8-1.5-17.9
		c0-14.7,0.1-15.6,1.6-17.5c2.7-3.5,5.5-4.1,17.1-4.1c16.9,0,18,1,18,16.5v9h-12h-12l0.2,5.8l0.2,5.8l4.1,0.4c5.8,0.6,6.8,0,6.8-4.6
		v-3.7h6.4h6.4v3.8c0,5.1-1.6,8-5.5,9.8c-2.6,1.2-4.9,1.4-13.3,1.4C91.9,171.4,88.1,171,86.4,170.3L86.4,170.3z M104.9,141.5
		c0-8.1-0.1-8.3-4.9-8.3c-6.4,0-6.4,0-6.4,7.6v6.7h5.6h5.6L104.9,141.5z M122.2,167c0-4.3,0-4.4,1.9-4l1.9,0.4V149v-14.3h-1.9
		c-1.8,0-1.9-0.3-1.9-3.8v-3.8h8.2h8.3v2.6c0,1.4,0.2,2.6,0.4,2.6c0.2,0,1.8-1,3.6-2.2c3.8-2.6,9.2-3.6,12.5-2.3
		c3.5,1.5,4.2,3.7,4.2,13.8v9.1l-6.5,0.2l-6.5,0.2l-0.2-8.1l-0.2-8.1l-3.6,3.5l-3.6,3.5l0.2,10.4c0.2,10.1,0.3,10.4,1.9,10.6
		c1.5,0.2,1.7,0.7,1.7,4.3v4.1h-10.1h-10.1V167z M163.4,167c0-4.3,0-4.4,1.9-4.1l1.9,0.3v-14.3v-14.3h-1.9c-1.8,0-1.9-0.3-1.9-3.8
		v-3.8h8.3h8.2v2.6c0,1.4,0.2,2.6,0.4,2.6c0.2,0,1.8-1,3.6-2.3c2.3-1.6,4.5-2.4,7.4-2.7c3.7-0.4,4.4-0.2,6.5,1.6l2.4,2v10.1v10.1
		h-6.4h-6.4v-7.5c0-4.1-0.3-7.6-0.7-7.9c-0.4-0.2-2.1,1.1-3.8,3l-3.1,3.4l0.2,10.3c0.2,10,0.3,10.3,1.9,10.5
		c1.5,0.2,1.7,0.7,1.7,4.3v4.1h-10.1h-10.1L163.4,167z M209.4,170.3c-3.7-1.6-5-4.2-5.3-11.3c-0.3-6.5,0.6-10.8,2.6-12.5
		c0.8-0.6,4.3-1.1,9.9-1.4l8.7-0.4l0.2-4.1c0.4-6.6-0.1-7.5-3.8-7.5c-4,0-5,1-5,5v3.2h-6.4h-6.4V138c0-5.1,1.7-8.4,4.9-9.8
		c2.2-0.9,5.2-1.1,13.9-0.9c11,0.2,11.2,0.3,13.2,2.3l2.1,2.1l0.3,15.4c0.2,14.5,0.3,15.5,1.7,15.8c1.2,0.3,1.4,1.1,1.4,4.4v4
		l-14.8,0C215.7,171.4,211.2,171.1,209.4,170.3L209.4,170.3z M225.5,157.4l-0.2-7.3l-3.2-0.2c-4.7-0.3-5.4,0.6-5.4,7
		c0,7.6,0.1,7.8,5,7.8h4.1L225.5,157.4z M245.9,167c0-4.1,0.1-4.4,1.7-4.3c1.7,0.1,1.7,0.1,1.9-14l0.2-14.1h-1.9
		c-1.8,0-1.9-0.2-1.9-3.8v-3.8h8.3h8.3v2.6v2.6l3.8-2.3c2.6-1.6,5-2.4,7.8-2.7c3.7-0.3,4.2-0.2,6.3,1.9l2.3,2.3v9.8v9.8h-6.4h-6.4
		v-7.5c0-4.5-0.3-7.7-0.8-7.9c-0.4-0.3-2.1,0.9-3.8,2.7l-3,3.2v10.8v10.8h1.9c1.8,0,1.9,0.2,1.9,4.1v4.1h-10.1h-10.1L245.9,167z
		 M289.4,167.3c0-4.2,0.3-4.6,3.6-4.2c0.7,0.1,0.9-3.2,0.9-14.2v-14.3h-2.2c-2.2,0-2.2-0.1-2.2-3.8v-3.8h10.5h10.5v3.8
		c0,3.5-0.1,3.8-1.9,3.8h-1.9l0.2,14.1c0.2,13.9,0.2,14.1,1.9,14.3c1.5,0.2,1.7,0.7,1.7,4.3v4.1h-10.5h-10.5L289.4,167.3z
		 M292.4,119.9c-5.8-2.9-1.4-6.9,7.6-6.9c2.7,0,6,0.4,7.3,0.8c4.5,1.6,4.4,4.9-0.1,6.6C303.8,121.6,295.4,121.3,292.4,119.9
		L292.4,119.9z"/>
</g>
</svg>
