<?xml version="1.0" encoding="utf-8"?>
<!-- Generator: Adobe Illustrator 27.7.0, SVG Export Plug-In . SVG Version: 6.00 Build 0)  -->
<svg version="1.1" id="Layer_1" xmlns="http://www.w3.org/2000/svg" xmlns:xlink="http://www.w3.org/1999/xlink" x="0px" y="0px"
	 viewBox="0 0 183.8 18" style="enable-background:new 0 0 183.8 18;" xml:space="preserve">
<style type="text/css">
	.st0{fill:#FFFFFF;}
</style>
<path class="st0" d="M9.4,7.5C5,6.4,4.2,6.2,4.2,4.9s1.4-2,2.6-2c1.8,0,3.3,0.5,3.4,2.6h3.7c0-4-3.3-5.5-6.9-5.5
	C3.9,0,0.6,1.7,0.6,5.2c0,3.2,2.6,4.2,5.1,4.9s5.1,1,5.1,2.8s-2,2.1-3.3,2.1c-2,0-3.8-0.9-3.8-3.2H0C-0.1,16.1,3.5,18,7.3,18
	c4.7,0,7.1-2.4,7.1-5.5C14.4,8.6,10.6,7.8,9.4,7.5z"/>
<path class="st0" d="M32.5,0.4h3.8v17.2h-3.8V0.4z"/>
<path class="st0" d="M50,11.9L50,11.9L42.8,0.4h-3.8v17.2h3.5V6.1h0.1l7.2,11.5h3.8v-14h5v14h3.8v-14h5.2V0.4H50V11.9z"/>
<path class="st0" d="M20.9,0.4l-6.5,17.2h3.8l1.3-3.8H26l1.3,3.8h3.9L24.8,0.4H20.9z M20.5,10.9l2.2-6.3h0.1l2.2,6.3H20.5z"/>
<path class="st0" d="M144,10.2h8.3V7.3H144V3.6h9V0.4h-12.8v17.2h13v-3.2H144V10.2z"/>
<path class="st0" d="M166.4,0.4v11.5l0,0l-7.2-11.5h-3.7v17.2h3.6V6.1l0,0l7.1,11.5h3.8v-14h5v14h3.8v-14h5.1V0.4H166.4z"/>
<path class="st0" d="M134.7,9.5L134.7,9.5c1.8-0.7,2.9-2.5,2.7-4.4c0-2.6-2.1-4.7-4.7-4.7c-0.1,0-0.2,0-0.3,0h-9.3v17.2h3.8v-6.7
	h3.8c1.9,0,2.6,0.8,2.9,2.6c0,1.4,0.2,2.8,0.6,4.1h3.8c-0.7-1-0.6-3-0.7-4.1C137.1,11.8,136.6,10,134.7,9.5z M131.1,8.2H127V3.3h4.1
	c1.7,0,2.6,0.7,2.6,2.4S132.8,8.2,131.1,8.2L131.1,8.2z"/>
<path class="st0" d="M116.6,11.1c0,2.6-0.9,3.7-3.6,3.7c-3.1,0-3.5-1.9-3.5-3.7V0.4h-3.8v10.7c0,4.7,2.7,6.9,7.3,6.9
	s7.3-2.3,7.3-6.9V0.4h-3.8L116.6,11.1L116.6,11.1z"/>
<path class="st0" d="M94.9,0.4l-6.5,17.2h3.8l1.3-3.8h6.4l1.3,3.8h3.9L98.7,0.4H94.9z M94.5,10.9l2.2-6.3h0.1l2.2,6.3H94.5z"/>
<path class="st0" d="M79,0.4h-3.8v17.2h12.2v-3.2H79V0.4z"/>
</svg>
