<?xml version="1.0" encoding="utf-8"?>
<!-- Generator: Adobe Illustrator 27.9.0, SVG Export Plug-In . SVG Version: 6.00 Build 0)  -->
<svg version="1.1" id="Layer_1" xmlns="http://www.w3.org/2000/svg" xmlns:xlink="http://www.w3.org/1999/xlink" x="0px" y="0px"
	 viewBox="0 0 2500 2500" style="enable-background:new 0 0 2500 2500;" xml:space="preserve">
<style type="text/css">
	.st0{fill-rule:evenodd;clip-rule:evenodd;fill:#FFFFFF;}
</style>
<path class="st0" d="M1250,1762.1c-622.6,0-1124.6-231-1124.6-512.1c0-276.1,502.1-512.1,1124.6-512.1s1124.6,236,1124.6,512.1
	C2374.6,1531.2,1872.6,1762.1,1250,1762.1z M1250,722.8c-627.6,0-1139.7,231-1139.7,527.2c0,301.3,512.1,527.2,1139.7,527.2
	c627.6,0,1139.7-225.9,1139.7-527.2C2389.7,953.8,1877.6,722.8,1250,722.8L1250,722.8z M1179.7,1465.9h30.1v-10h-20.1v-5h20.1v-10.1
	h-20.1v-5h20.1v-10h-30.1V1465.9L1179.7,1465.9z M1255,1465.9v-20.1H1240v5h5c0,5-5,5-5,5c-10,0-10-5-10-10.1c0-5,0-10,5-10
	s5,0,10,5h10c0-10-10-15-20.1-15c-10,0-20.1,10-20.1,20.1c0,15.1,10,20.1,20.1,20.1c5,0,10,0,10-5l5,5L1255,1465.9L1255,1465.9
	L1255,1465.9z M1265.1,1465.9h10.1v-10h-10.1V1465.9z M1300.2,1425.7v25.1c0,10,10,15,20.1,15c15.1,0,20.1-5,20.1-15v-25.1h-15v25.1
	c0,5,0,5-5,5c-5,0-5,0-5-5v-25.1H1300.2L1300.2,1425.7z M1345.4,1465.9h15.1v-10h-15.1V1465.9z M1385.6,1440.8h15.1
	c-5-10-10.1-15-20.1-15c-10.1,0-15.1,5-15.1,15c0,15.1,20.1,10.1,20.1,15.1h-20.1c0,5,5,10,15.1,10c10,0,20.1,0,20.1-10
	c0-15.1-25.1-15.1-25.1-20.1h10L1385.6,1440.8L1385.6,1440.8z M1405.7,1465.9h10v-10h-10V1465.9z M1440.8,1465.9h15.1v-10h5
	c10,0,20.1-5,20.1-15.1c0-10-10.1-15-20.1-15h-20.1V1465.9L1440.8,1465.9z M1481,1465.9h10l5-5h10.1l5,5h10l-15-40.2H1496
	L1481,1465.9z M1521.1,1425.7v10h15.1v30.1h10v-30.1h15.1v-10H1521.1L1521.1,1425.7z M1566.3,1465.9h10.1v-10h-10.1V1465.9z
	 M1641.6,1445.8c0-10-5-20.1-20.1-20.1c-10,0-20.1,10-20.1,20.1c0,15.1,10,20.1,20.1,20.1
	C1636.6,1465.9,1641.6,1460.9,1641.6,1445.8z M1651.7,1465.9h10v-15h15.1v-5h-15.1v-10h20.1v-10h-30.1L1651.7,1465.9L1651.7,1465.9z
	 M1686.8,1465.9h15.1v-15h10v-5h-10v-10h15v-10h-30.1V1465.9L1686.8,1465.9z M1721.9,1465.9h15.1v-10h-15.1V1465.9z M1009,1280.1
	c70.3-90.4,30.1-50.2,55.2-75.3h-70.3l-5,10c-55.2-20.1-120.5-45.2-251,100.4c-40.2,50.2-80.3,60.3-115.5,80.3
	c-95.4,40.2-115.5-55.2-15.1-175.7c190.8-231,266.1-185.8,231-125.5c-30.1,55.2-85.4,110.5-110.5,120.5
	c-10,25.1,90.4,30.1,205.9-90.4h-20.1c20.1-70.3,25.1-175.7-180.8-120.5c-75.3,20.1-246,155.6-286.2,296.2
	c-15.1,65.3,10,281.2,301.2,75.3c10,45.2,90.4,30.1,150.6-25.1c-25.1,55.2,45.2,70.3,110.5,25.1L913.6,1496h65.3l105.4-140.6
	c0,30.1,20.1,75.3,175.7,0c-10,45.2,55.2,70.3,155.6,0c-15,35.1,30.1,75.3,150.6,0c-15,50.2,75.3,90.4,190.8-35.2c5-5,5-5,20.1-5
	c10,5-20.1,85.4,55.2,85.4c55.2,0,90.4-25.1,115.5-45.2l15.1-70.3c-35.1,30.1-65.3,45.2-75.3,50.2c-20.1,0-45.2,10-35.1-60.2
	c45.2-45.2,160.7-105.4,175.7-236c10-55.2-140.6-10-220.9,180.7c-5,15.1-10.1,35.1-25.1,50.2c-15.1,10-10.1-15.1-10.1-45.2
	c0-25.1-70.3-55.2-135.5-5c-60.2,45.2-60.2,75.3-85.3,105.4c-30.1,15-115.5,50.2-5-90.4h40.2l35.1-35.1h-50.2l65.3-80.3h-75.3
	l-60.2,80.3h-45.2l-35.2,40.2h45.2c-30.1,75.3-251,205.8-30.1-40.2h-70.3c-70.3,95.4-160.7,155.6-110.5,95.4
	c65.3-75.3,30.1-120.5-50.2-85.3v-10h-60.3c-15.1,15.1-80.3,95.4-110.5,115.5C1004,1340.4,938.7,1365.5,1009,1280.1L1009,1280.1z
	 M1094.3,1149.6c-5,5-10,5-10,10v25.1L1094.3,1149.6z M1119.5,1144.6c-5,0-10,0-10,5v25.1L1119.5,1144.6z M1154.6,1134.5
	c-10,0-10,5-10,10v25.1L1154.6,1134.5z M1189.8,1129.5c-10,0-10,0-10,10v25.1L1189.8,1129.5z M1229.9,1124.5c-10,0-10,5-10,10v25.1
	L1229.9,1124.5z M1270.1,1124.5c-10-5-15.1,0-15.1,5v25.1L1270.1,1124.5z M1310.2,1124.5c-10,0-10,0-10,10v20.1L1310.2,1124.5z
	 M1350.4,1124.5c-10.1,0-10.1,0-10.1,10v20.1L1350.4,1124.5z M1390.6,1129.5c-15,0-15,0-15,5v20.1L1390.6,1129.5z M1420.7,1134.5
	c-10-5-10-5-10,5v25.1L1420.7,1134.5z M1455.9,1139.5c-10.1,0-10.1,0-10.1,5v25.1L1455.9,1139.5z M1481,1149.6
	c-10.1,0-10.1,0-10.1,5v20.1L1481,1149.6z M1430.7,873.4l-10.1,20.1l20.1-5l15.1,10l-5-20.1l20.1-10l-20.1-5l-5-20.1l-10,20.1
	l-20.1-5L1430.7,873.4L1430.7,873.4z M1616.5,923.7l-10,15.1l20.1-5l10,15.1l5-20.1l15.1-5l-15.1-5v-20.1l-15,15.1l-20.1-10
	L1616.5,923.7L1616.5,923.7z M1084.3,878.5l-5,20.1l15.1-15.1l20.1,5l-10-15.1l10-15.1l-20.1,5l-10-20.1v20.1l-20.1,5L1084.3,878.5
	L1084.3,878.5z M1506.1,1154.6c0,5,5,5,5-5c0-5,0-5,5-10c5-15.1-10-15.1-15-25.1v-5c0-15.1-25.1-20.1-25.1-20.1c0-5-5-15.1-5-15.1
	c-5-10-10-15.1-20.1-20.1c-5-10-5-10-10.1-20.1c-10-20.1-30.1-50.2-85.3-75.3c-15.1-5-15.1,0-20.1-10c-10-10-10-10-20.1-15.1
	c-5-5-10-5-10-10v-45.2c0-5,5-10,0-15.1s-5-15.1-10.1-20.1c-5-5-5-10-10-15.1c-5-5-15.1-5-15.1-10v-35.1c0-5-5-5-5,0v35.1
	c0,5-10,5-15.1,10c-5,5-5,10-5,15.1h-5c-5,5-5,10-10,15.1c0,5,5,10,5,15.1v55.2c-15.1,5-25.1,10-30.1,20.1c0,5,0,5-5,10
	c-20.1,5-50.2,20.1-85.4,65.3c-10,15.1-15.1,25.1-15.1,40.2c-10,5-20.1,15.1-20.1,25.1c-5,5,0,5-5,10c-5,5-15.1,10-20.1,20.1
	c5,10-10,15.1-10,20.1v10c0,5,5,5,5,5c5,5,5,25.1,5,40.2h5c5,0,5,0,5-10v-20.1v-15.1c10.1,0,15.1-5,25.1-10h5
	c35.1-10,75.3-20.1,110.5-20.1c65.3-10,140.6-5,210.9,0c20.1,5,30.1,5,45.2,10c5,5,20.1,10,30.1,10c0,0,5,5,10.1,5
	C1506.1,1149.6,1506.1,1154.6,1506.1,1154.6L1506.1,1154.6z M813.2,1626.6l-25.1-35.2c10.1,0,20.1-10,20.1-25.1
	c0-15-15.1-25.1-35.1-25.1h-35.1v85.4H763v-30.1l20.1,30.1L813.2,1626.6L813.2,1626.6L813.2,1626.6z M928.7,1561.3h30.1v-20.1h-55.2
	v85.4h55.2v-20.1h-30.1v-10.1h25.1v-20.1h-25.1V1561.3L928.7,1561.3z M1119.5,1571.3v-25.1c-5-5-15.1-5-20.1-5
	c-15.1,0-30.1,5-40.2,10.1c-5,10-10,20.1-10,35.1c0,10,5,20.1,15.1,30.1c10.1,10.1,20.1,15.1,35.1,15.1c5,0,10-5,20.1-5v-25.1
	c-5,5-15.1,5-20.1,5c-15.1,0-25.1-5-25.1-20.1s10-25.1,25.1-25.1C1104.4,1561.3,1114.4,1566.3,1119.5,1571.3L1119.5,1571.3z
	 M1315.3,1581.4c0-25.1-25.1-40.2-50.2-40.2c-30.1,0-55.2,15.1-55.2,40.2c0,30.1,25.1,50.2,55.2,50.2
	C1295.2,1631.6,1315.3,1611.5,1315.3,1581.4z M1486,1626.6l-30.1-35.2c15,0,20.1-10,20.1-25.1c0-15-15.1-25.1-30.1-25.1h-40.2v85.4
	h25.1v-30.1l25.1,30.1L1486,1626.6L1486,1626.6L1486,1626.6z M1571.3,1541.2v85.4h35.2c30.1,0,50.2-15.1,50.2-40.2
	c0-25.1-20.1-45.2-50.2-45.2H1571.3z M1797.2,1566.3l15.1-20.1c-10-5-20.1-5-30.1-5c-20.1,0-35.2,10.1-35.2,25.1
	c0,20.1,10.1,25.1,25.1,25.1c5,5,15.1,5,15.1,10.1c0,5-5,10-10,10c-10.1,0-15.1-5-20.1-10l-15.1,20.1c10.1,5,25.1,10.1,35.2,10.1
	c10,0,20.1-5,25.1-10.1c10-5,10-15,10-20.1c0-15.1-10-20.1-20.1-25.1h-10c0-5-10.1-5-10.1-10.1s5-10,10.1-10
	C1792.2,1556.3,1797.2,1561.3,1797.2,1566.3L1797.2,1566.3z M888.5,928.7v20.1l15.1-15.1l20.1,5l-15.1-20.1l10-15.1l-20.1,5
	l-15.1-15.1l5,20.1l-20.1,10L888.5,928.7L888.5,928.7z M1144.6,1450.8h5c10,0,10,5,10,10v5h10v-10c0-5,0-5-5-10.1c5,0,5-5,5-5
	c0-10-5-15-15.1-15h-20.1v40.2h10L1144.6,1450.8L1144.6,1450.8L1144.6,1450.8z M1310.2,948.8c-10,0-30.1-5-40.2-5
	c-15.1,0-20.1,0-30.1,5c-10,0-10,5-20.1,5c0,0-5,0,0-5c10-10,25.1-15.1,50.2-15.1c25.1,0,25.1,5,35.2,5c5,5,10,5,10,10
	C1320.3,948.8,1315.3,948.8,1310.2,948.8z M1280.1,1014v-50.2c0-5-10.1-15.1,0-10c0,5,5,10,10,15.1c10.1,20.1,10.1,30.1,15.1,50.2
	c0,0,5,5,0,10h-20.1C1280.1,1029.1,1280.1,1024.1,1280.1,1014z M1290.2,953.8c5,0,5,0,10.1,5c5,5,5,5,15,10c0,5,0,5,5,10
	c15.1,15.1,15.1,30.1,25.1,45.2c0,5,0,5-5,5c-10,5-10,0-20.1,0c0,0,0-10-5-15.1c-5-20.1-10-40.2-20.1-55.2L1290.2,953.8
	L1290.2,953.8z M1260,958.8c5,0,5-10,5,0v70.3H1245c-5,0,0-5-5-5c0,0,10-30.1,15.1-50.2C1260,968.8,1255,968.8,1260,958.8
	L1260,958.8z M1250,958.8c5,0,5,0,0,5c-5,5-5,15.1-10,25.1c-5,15.1-5,25.1-10,40.2c-5,5-5,5-10,5h-15.1v-5c0-5,5-10,5-20.1
	c5-5,5-10,10-15.1c5-5,5-10,10-15.1l10-10L1250,958.8L1250,958.8z M1325.3,963.8c10,5,15,10,20.1,15.1
	c15.1,15.1,20.1,25.1,30.1,45.2c5,5,5,10,0,10h-10.1c0,0-5,0-10-5c0-5-10.1-25.1-15.1-40.2c-10-20.1-30.1-25.1-25.1-30.1
	C1320.3,958.8,1325.3,963.8,1325.3,963.8L1325.3,963.8z M1229.9,963.8c0,0,10-5,5-5c0,5-10,15.1-10,15.1c-10,10-20.1,20.1-25.1,30.1
	c-5,10-10,20.1-10,30.1c0,0,0,5-5,5c-10,0-15.1,5-15.1-5c5-15.1,15.1-25.1,25.1-35.1c5-10,10-15.1,15.1-20.1l5-5
	C1219.9,968.8,1219.9,968.8,1229.9,963.8z M1119.5,1039.1c5-15.1,35.1-50.2,60.3-60.3c5-5,10-10,15.1-10c5,0-5,5-10,5l-5,5
	c-25.1,15.1-35.1,35.1-45.2,55.2c-5,5-5,15.1-10,20.1c-5,0-10,5-10,0S1119.5,1044.1,1119.5,1039.1z M1199.8,973.9c5,0,15.1-10,10-5
	l-20.1,20.1c-25.1,25.1-30.1,45.2-30.1,50.2c-5,5-10,5-15.1,5c-5,0,0-5,0-10c5-5,5-10,10-15.1c5-10,10-20.1,20.1-25.1
	c10-5,10-10,15.1-15.1C1194.8,978.9,1199.8,973.9,1199.8,973.9L1199.8,973.9z M1365.5,983.9c-5-5-20.1-10-15-15.1c0,0,10,5,15,10
	c20.1,15.1,30.1,35.1,40.2,60.3h-15.1c0-10,0-15.1-5-25.1c-5-10-10-15.1-15.1-20.1L1365.5,983.9L1365.5,983.9z M1385.6,988.9
	c5,0,5,5,10,5c20.1,20.1,25.1,25.1,35.2,45.2v5h-10.1l-5-5c-5-10-10-25.1-15-30.1C1395.6,1004,1390.6,993.9,1385.6,988.9
	L1385.6,988.9z M1255,838.3c0,0,5-5,15.1-5c5,0,10.1,5,10.1,5v5c-10.1-5-15.1-5-25.1,0L1255,838.3L1255,838.3z M1245,848.3
	c10,0,30.1-5,40.2,0c5,0,10,5,5,5H1245C1240,853.4,1245,848.3,1245,848.3z M1290.2,863.4H1255H1240l5-5
	C1260,853.4,1280.1,858.4,1290.2,863.4h5C1295.2,868.4,1290.2,863.4,1290.2,863.4z M1260,928.7v-60.3c5,0,5,5,5,5v50.2
	C1265.1,923.7,1265.1,928.7,1260,928.7z M1280.1,928.7c-5,0-5-5-5-5v-50.2c0,0,0-5,5-5V928.7L1280.1,928.7z M1245,928.7l-5-5v-45.2
	c0-5,5-5,5-5c5,0,5,0,5,5v45.2C1250,923.7,1250,928.7,1245,928.7z M1290.2,928.7v-50.2v-5c5,0,5,0,5,5v45.2
	C1295.2,923.7,1295.2,928.7,1290.2,928.7z M1275.1,1069.3c30.1,0,85.3,0,130.5,10c30.1,0,70.3,10,75.3,20.1
	c10,15.1-40.2-10-70.3-15.1c-80.3-10-160.7-10-220.9,0c-45.2,5-65.3,10-110.5,30.1c-10,5,0-15.1,40.2-25.1
	C1174.7,1074.3,1234.9,1069.3,1275.1,1069.3L1275.1,1069.3z M1491,1129.5c-10-5-30.1-15.1-45.2-15.1c-30.1-10-55.2-10-100.4-15.1
	c-60.2,0-90.4-5-145.6,5c-50.2,5-85.4,10-120.5,30.1c-20.1,10-10-5-10-5c15.1-5,25.1-15.1,75.3-25.1c35.1-5,95.4-15.1,125.5-15.1
	c30.1,0,80.3,0,135.6,10c25.1,5,75.3,10,90.4,25.1C1496,1124.5,1501,1134.5,1491,1129.5L1491,1129.5z M1144.6,1445.8v-10h10
	c0,0,5,0,5,5l-5,5L1144.6,1445.8L1144.6,1445.8z M763,1581.4v-25.1c10,0,20.1,5,20.1,15C783.1,1581.4,773,1581.4,763,1581.4
	L763,1581.4z M1501,1440.8l5,10.1H1496L1501,1440.8z M1616.5,1445.8c0-5,0-10,5-10c5,0,10.1,5,10.1,10c0,5-5,10.1-10.1,10.1
	C1616.5,1455.9,1616.5,1450.8,1616.5,1445.8z M1460.9,1445.8h-5v-10h5c0,0,5,0,5,5C1465.9,1445.8,1465.9,1445.8,1460.9,1445.8z
	 M1234.9,1581.4c0-10.1,15.1-20.1,30.1-20.1c15.1,0,25.1,10,25.1,20.1c0,15-10,30.1-25.1,30.1
	C1250,1611.5,1234.9,1596.4,1234.9,1581.4z M1179.7,1305.2c-25.1,25.1-45.2,25.1-55.2,25.1c-5-5-5-20.1,30.1-50.2
	c25.1-25.1,50.2-40.2,55.2-35.1C1219.9,1255,1204.8,1280.1,1179.7,1305.2L1179.7,1305.2z M1430.7,1581.4v-25.1h5c5,0,15.1,5,15.1,15
	c0,10.1-10.1,10.1-15.1,10.1L1430.7,1581.4L1430.7,1581.4L1430.7,1581.4z M1636.6,1330.3c5-40.2,25.1-60.2,55.2-75.3
	c-5,40.2-5,45.2,10.1,50.2C1686.8,1325.3,1636.6,1370.5,1636.6,1330.3L1636.6,1330.3z M1596.4,1606.5v-45.2h10.1
	c15,0,25.1,10,25.1,25.1s-15.1,20.1-30.1,20.1L1596.4,1606.5L1596.4,1606.5z M903.6,1300.2c-40.2,30.1-65.3,45.2-75.3,40.2
	c-5-5,10-35.1,45.2-65.3c25.1-20.1,80.3-45.2,85.4-35.1C963.8,1250,943.7,1265.1,903.6,1300.2z M1952.9,1094.3
	c55.2-55.2,35.1-5-10.1,50.2c-25.1,35.1-30.1,40.2-55.2,60.2C1857.5,1234.9,1907.7,1139.5,1952.9,1094.3L1952.9,1094.3z
	 M1270.1,1044.1c30.1-5,90.4,0,130.6,5c30.1,5,45.2,10,55.2,20.1c10,15.1-25.1,0-55.2-5c-60.3-10-130.6-15.1-210.9,0
	c-50.2,5-75.3,15.1-85.4,25.1c-15.1,5-10-15.1,35.1-30.1C1174.7,1049.2,1240,1044.1,1270.1,1044.1L1270.1,1044.1z"/>
</svg>
