<?xml version="1.0" encoding="utf-8"?>
<!-- Generator: Adobe Illustrator 27.9.0, SVG Export Plug-In . SVG Version: 6.00 Build 0)  -->
<svg version="1.1"
	 id="svg2008" xmlns:svg="http://www.w3.org/2000/svg" xmlns:cc="http://creativecommons.org/ns#" xmlns:sodipodi="http://sodipodi.sourceforge.net/DTD/sodipodi-0.dtd" xmlns:dc="http://purl.org/dc/elements/1.1/" xmlns:rdf="http://www.w3.org/1999/02/22-rdf-syntax-ns#" xmlns:inkscape="http://www.inkscape.org/namespaces/inkscape" inkscape:version="0.48.5 r10040" sodipodi:docname="T-Mobile_logo.svg" sodipodi:version="0.32"
	 xmlns="http://www.w3.org/2000/svg" xmlns:xlink="http://www.w3.org/1999/xlink" x="0px" y="0px" viewBox="0 0 523 123"
	 style="enable-background:new 0 0 523 123;" xml:space="preserve">
<style type="text/css">
	.st0{fill:#FFFFFF;}
</style>
<sodipodi:namedview  bordercolor="#666666" borderopacity="1.0" height="27.6mm" id="base" inkscape:bbox-nodes="true" inkscape:bbox-paths="true" inkscape:current-layer="svg2008" inkscape:cx="503.25509" inkscape:cy="-177.77119" inkscape:document-units="px" inkscape:guide-bbox="true" inkscape:object-nodes="true" inkscape:object-paths="true" inkscape:pageopacity="0.0" inkscape:pageshadow="2" inkscape:snap-bbox="true" inkscape:snap-bbox-edge-midpoints="true" inkscape:snap-bbox-midpoints="true" inkscape:snap-center="true" inkscape:snap-intersection-paths="true" inkscape:snap-object-midpoints="true" inkscape:snap-smooth-nodes="true" inkscape:window-height="1018" inkscape:window-maximized="1" inkscape:window-width="1920" inkscape:window-x="-8" inkscape:window-y="-8" inkscape:zoom="0.78723292" pagecolor="#ffffff" showgrid="false" showguides="false" units="mm" width="186.67mm">
	<sodipodi:guide  id="guide3247" orientation="0,1" position="62.635787,-253.72888"></sodipodi:guide>
	<sodipodi:guide  id="guide3265" orientation="0,1" position="243.25454,-217.78617"></sodipodi:guide>
	<sodipodi:guide  id="guide4070" orientation="0,1" position="342.87554,-242.11217"></sodipodi:guide>
</sodipodi:namedview>
<path id="path3209" sodipodi:cx="366.91431" sodipodi:cy="41.449261" sodipodi:rx="2.5044003" sodipodi:ry="2.5044003" sodipodi:type="arc" class="st0" d="
	M383.4,28.7c0,3.6-2.8,6.5-6.3,6.5s-6.3-2.9-6.3-6.5c0,0,0,0,0,0c0-3.6,2.8-6.5,6.3-6.5S383.4,25,383.4,28.7
	C383.4,28.6,383.4,28.6,383.4,28.7z"/>
<rect id="rect3211" x="479.8" y="57.2" class="st0" width="16.1" height="16.4"/>
<rect id="rect3213" x="160.4" y="57.2" class="st0" width="16.1" height="16.4"/>
<rect id="rect3215" x="112.1" y="57.2" class="st0" width="16.1" height="16.4"/>
<rect id="rect3217" x="64.5" y="57.2" class="st0" width="16.1" height="16.4"/>
<rect id="rect3219" x="15.2" y="57.2" class="st0" width="16.1" height="16.4"/>
<path id="path3221" inkscape:connector-curvature="0" class="st0" d="M53.9,24.4h1.9c12.3,0,18.1,6.6,20.5,24.2l3.8-0.2l-0.5-27.9
	H16.8l-0.6,27.9l3.7,0.2c0.6-6.6,1.4-10.2,3.1-13.7c2.9-6.6,9-10.5,16.6-10.5h2.7v60.8c0,6.4-0.4,8.5-1.9,10
	c-1.3,1.2-3.8,1.7-6.8,1.7h-2.9v4.1h34.9v-4.1h-2.9c-2.9,0-5.5-0.5-6.7-1.7c-1.5-1.5-1.9-3.6-1.9-10L53.9,24.4"/>
<path id="path3223" inkscape:connector-curvature="0" class="st0" d="M220.1,100.9l20.4-71v55.7c0,6.1-0.3,8.2-1.7,9.7
	c-1,1.1-3.4,1.6-6.1,1.6h-1v3.9h28.8v-3.9h-1.5c-2.6,0-5.1-0.5-6.1-1.6c-1.4-1.5-1.7-3.6-1.7-9.7V38.1c0-6.1,0.3-8.4,1.7-9.9
	c1.1-1,3.5-1.6,6.1-1.6h1.5v-3.8H238l-16.8,57.4l-16.4-57.4h-22.2v3.8h2.1c6.1,0,7.2,1.3,7.2,9.2V81c0,7.2-0.3,10.2-1.4,12.3
	c-1.1,2.1-3.6,3.6-6.1,3.6h-1.8v3.9h23.7v-3.9h-1.5c-3,0-5.4-1.2-6.8-3.5c-1.4-2.3-1.7-4.4-1.7-12.5V29.9l20.2,71L220.1,100.9"/>
<path id="path3225" inkscape:connector-curvature="0" class="st0" d="M285,45.3c-14.3,0-23.6,11.2-23.6,28.8
	c0,16.9,9.3,28.4,23.2,28.4c14,0,23.4-11.5,23.4-28.6C308,57,298.7,45.3,285,45.3 M284.6,49.1c4.1,0,7.7,2.6,9.6,7.1
	c1.8,4.1,2.6,9.7,2.6,17.8c0,16.6-4,24.8-12.2,24.8c-8.2,0-12.1-8.2-12.1-25c0-7.9,0.8-13.5,2.7-17.6
	C277.1,51.9,280.8,49.1,284.6,49.1"/>
<path id="path3227" inkscape:connector-curvature="0" class="st0" d="M327.2,22l-16.3,0.8v3.6h0.8c4.8,0,5.9,1.6,5.9,9.4v53.4
	c0,6.9-0.2,8.7-1.1,11.7h3.8c2.9-4.8,3.6-5.6,4.7-5.6c0.6,0,1.1,0.2,1.9,1c5.7,4.6,8.1,5.6,13.2,5.6c12.4,0,21.4-12,21.4-29.1
	c0-16.1-8.3-27-20.7-27c-6.4,0-11.1,3.1-13.6,8.7L327.2,22 M339.1,49.9c7.4,0,11.2,7.9,11.2,23.3c0,16.3-3.9,24.7-11.4,24.7
	c-8.3,0-12.6-8.5-12.6-24.2c0-7.9,1-13.3,3.5-17.4C331.9,52.4,335.6,49.9,339.1,49.9"/>
<path id="path3229" inkscape:connector-curvature="0" class="st0" d="M382.7,46.2l-16.8,1v3.6h1.3c4.8,0,5.9,1.6,5.9,9.2v27.8
	c0,7.6-1,9.4-5.9,9.4h-1.8v3.8h25.1v-3.8h-1.8c-4.8,0-5.9-1.6-5.9-9.4L382.7,46.2"/>
<path id="path3231" inkscape:connector-curvature="0" class="st0" d="M411.8,22L395,22.8v3.6h1.3c4.8,0,5.9,1.6,5.9,9.4v51.9
	c0,7.7-1,9.4-5.9,9.4h-1.8v3.8h25.1v-3.8h-1.8c-4.8,0-5.9-1.6-5.9-9.4L411.8,22"/>
<path id="path3233" inkscape:connector-curvature="0" class="st0" d="M465.3,73.6c-0.6-17.4-8.8-28.3-21.4-28.3
	c-12.1,0-20.8,11.8-20.8,28.3c0,17.6,8.6,28.9,22,28.9c8.6,0,14.6-4.6,19.6-14.8l-3.5-1.8c-4,8.5-8.1,12-14.3,12
	c-9.1,0-13-7.2-13.1-24.3L465.3,73.6 M433.9,69.5c0.1-12.3,4.1-20.1,10.6-20.1c6.4,0,10.2,7.6,10.1,20.1H433.9"/>
<g id="g3235">
	<g id="g3237">
		<path id="path3239" inkscape:connector-curvature="0" class="st0" d="M502,44c1,0,1.9,0.2,2.8,0.7c0.9,0.5,1.6,1.2,2.2,2.1
			c0.5,0.9,0.8,1.9,0.8,2.9c0,1-0.3,2-0.8,2.9c-0.5,0.9-1.2,1.6-2.1,2.1c-0.9,0.5-1.9,0.8-2.9,0.8s-2-0.3-2.9-0.8
			c-0.9-0.5-1.6-1.2-2.1-2.1c-0.5-0.9-0.8-1.9-0.8-2.9c0-1,0.3-2,0.8-2.9c0.5-0.9,1.2-1.6,2.2-2.1C500.1,44.2,501,44,502,44L502,44z
			 M502,45c-0.8,0-1.6,0.2-2.4,0.6c-0.8,0.4-1.4,1-1.8,1.8c-0.4,0.8-0.7,1.6-0.7,2.4c0,0.8,0.2,1.6,0.6,2.4c0.4,0.8,1,1.4,1.8,1.8
			c0.8,0.4,1.6,0.6,2.4,0.6c0.8,0,1.6-0.2,2.4-0.6c0.8-0.4,1.4-1,1.8-1.8c0.4-0.8,0.6-1.6,0.6-2.4c0-0.8-0.2-1.6-0.6-2.4
			c-0.4-0.8-1-1.4-1.8-1.8C503.6,45.2,502.8,45,502,45L502,45z M499.4,53v-6.2h2.1c0.7,0,1.3,0.1,1.6,0.2c0.3,0.1,0.6,0.3,0.8,0.6
			c0.2,0.3,0.3,0.6,0.3,0.9c0,0.5-0.2,0.9-0.5,1.2c-0.3,0.3-0.8,0.5-1.3,0.6c0.2,0.1,0.4,0.2,0.5,0.3c0.3,0.2,0.6,0.7,0.9,1.2
			l0.8,1.2h-1.2l-0.6-1c-0.4-0.8-0.8-1.3-1-1.4c-0.2-0.1-0.5-0.2-0.8-0.2h-0.6V53L499.4,53L499.4,53z M500.5,49.5h1.2
			c0.6,0,1-0.1,1.2-0.3c0.2-0.2,0.3-0.4,0.3-0.7c0-0.2-0.1-0.4-0.2-0.5c-0.1-0.1-0.2-0.3-0.4-0.3c-0.2-0.1-0.5-0.1-1-0.1h-1.1
			L500.5,49.5L500.5,49.5z"/>
	</g>
</g>
</svg>
