<svg width="286" height="177" viewBox="0 0 286 177" fill="none" xmlns="http://www.w3.org/2000/svg">
<g clip-path="url(#clip0_16_93)">
<path d="M203.502 10.0999C206.194 2.02052 213.989 -0.933104 222.028 0.421188C228.81 1.56687 233.233 6.5271 234.303 13.2125C234.935 17.1793 234.737 21.8117 233.283 25.421C230.346 32.7156 223.614 35.5732 215.985 34.6957C209.773 33.9805 204.992 30.1693 203.257 24.0634C201.904 19.3062 201.985 14.6517 203.502 10.0999ZM218.76 28.9839C226.558 28.8547 227.717 20.9607 227.138 14.9343C226.75 10.9277 224.985 7.17278 220.81 6.21584C216.012 5.1132 211.701 7.2059 210.386 12.1893C209.468 15.6617 209.443 19.0844 210.313 22.4574C211.454 26.8812 214.27 29.0567 218.76 28.9839Z" fill="black"/>
<path d="M10.116 26.5635L7.91737 33.9343C7.91037 33.9571 7.89635 33.977 7.87731 33.9913C7.85827 34.0056 7.8352 34.0135 7.81141 34.0138L0.523393 34.0204C0.505529 34.0203 0.487942 34.016 0.472087 34.0078C0.456232 33.9995 0.442562 33.9877 0.43221 33.9731C0.421857 33.9585 0.415117 33.9417 0.412548 33.924C0.409978 33.9064 0.411652 33.8883 0.417432 33.8714L12.0001 1.00085C12.0077 0.978726 12.0219 0.959509 12.0409 0.945861C12.0599 0.932213 12.0827 0.924809 12.1061 0.924691L19.8411 0.921387C19.8645 0.921505 19.8873 0.928899 19.9062 0.942547C19.9252 0.956195 19.9395 0.975412 19.9471 0.997539L31.5297 33.8714C31.5355 33.8883 31.5372 33.9064 31.5346 33.924C31.5321 33.9417 31.5253 33.9585 31.515 33.9731C31.5046 33.9877 31.4909 33.9995 31.4751 34.0078C31.4592 34.016 31.4416 34.0203 31.4238 34.0204L23.8477 34.0138C23.8239 34.0135 23.8008 34.0056 23.7818 33.9913C23.7627 33.977 23.7487 33.9571 23.7417 33.9343L21.457 26.5668C21.45 26.5441 21.436 26.5242 21.4169 26.5099C21.3979 26.4956 21.3748 26.4877 21.351 26.4874L10.222 26.4841C10.1982 26.4844 10.1751 26.4923 10.1561 26.5066C10.137 26.5208 10.123 26.5408 10.116 26.5635ZM11.7054 21.1662C11.7008 21.183 11.7002 21.2006 11.7035 21.2177C11.7068 21.2347 11.7141 21.2508 11.7247 21.2646C11.7352 21.2784 11.7489 21.2895 11.7645 21.2972C11.7801 21.3048 11.7973 21.3087 11.8147 21.3086L19.7848 21.2954C19.8023 21.2951 19.8195 21.2908 19.835 21.2828C19.8505 21.2747 19.8639 21.2632 19.8742 21.249C19.8845 21.2349 19.8914 21.2185 19.8942 21.2013C19.8971 21.1841 19.8959 21.1664 19.8908 21.1497L15.8842 7.88159C15.8771 7.85856 15.8628 7.83842 15.8435 7.82411C15.8241 7.8098 15.8006 7.80208 15.7766 7.80208C15.7525 7.80208 15.729 7.8098 15.7097 7.82411C15.6903 7.83842 15.676 7.85856 15.669 7.88159L11.7054 21.1662Z" fill="black"/>
<path d="M79.7943 11.5437C79.7943 11.2766 79.7358 11.2622 79.6188 11.5007L72.5692 25.8383C72.5491 25.8773 72.5191 25.9099 72.4823 25.9327C72.4454 25.9555 72.4033 25.9675 72.3606 25.9674L66.2977 25.9641C66.1587 25.9641 66.0593 25.9023 65.9997 25.7787L59.0495 11.653C58.8751 11.302 58.7879 11.323 58.7879 11.7159L58.7978 33.8316C58.7978 33.953 58.736 34.0137 58.6124 34.0137L52.6555 34.017C52.5385 34.0192 52.48 33.9607 52.48 33.8415V1.12326C52.48 1.00185 52.5407 0.94115 52.6621 0.94115L60.1455 0.927902C60.2014 0.928027 60.2562 0.943586 60.3035 0.972829C60.3509 1.00207 60.389 1.04384 60.4137 1.09346L69.2414 19.4973C69.2514 19.5167 69.2666 19.5331 69.2853 19.5445C69.304 19.5558 69.3255 19.5619 69.3474 19.5619C69.3693 19.5619 69.3907 19.5558 69.4094 19.5445C69.4281 19.5331 69.4433 19.5167 69.4533 19.4973L78.2877 1.16963C78.3224 1.09899 78.3758 1.0395 78.442 0.99794C78.5081 0.956377 78.5843 0.934412 78.6619 0.934531L85.9466 0.917969C86.0481 0.917969 86.0989 0.969845 86.0989 1.0736V33.9243C86.0989 33.9861 86.0669 34.017 86.0029 34.017L79.9698 34.0137C79.8528 34.0137 79.7943 33.9552 79.7943 33.8382V11.5437Z" fill="black"/>
<path d="M114.469 34.017L107.142 34.0203C107.126 34.0201 107.11 34.0162 107.096 34.0089C107.082 34.0015 107.07 33.9909 107.061 33.9779C107.052 33.965 107.046 33.95 107.044 33.9344C107.042 33.9187 107.044 33.9028 107.049 33.8879L118.645 0.990789C118.652 0.971572 118.664 0.95491 118.681 0.943063C118.697 0.931216 118.717 0.924754 118.738 0.924561L126.502 0.934504C126.523 0.934697 126.543 0.941149 126.559 0.952996C126.576 0.964843 126.588 0.981506 126.595 1.00072L138.181 33.8879C138.186 33.9028 138.188 33.9187 138.186 33.9344C138.184 33.95 138.178 33.965 138.169 33.9779C138.16 33.9909 138.148 34.0015 138.134 34.0089C138.12 34.0162 138.104 34.0201 138.088 34.0203L130.482 34.0071C130.461 34.0073 130.44 34.0007 130.423 33.9882C130.406 33.9757 130.393 33.9579 130.386 33.9375L128.102 26.5568C128.095 26.5364 128.082 26.5187 128.065 26.5061C128.048 26.4936 128.027 26.487 128.006 26.4873L116.847 26.4839C116.826 26.4844 116.806 26.4913 116.789 26.5038C116.773 26.5163 116.76 26.5336 116.754 26.5535L114.562 33.9475C114.556 33.9673 114.544 33.9847 114.527 33.9971C114.51 34.0096 114.49 34.0166 114.469 34.017ZM118.347 21.1694C118.342 21.1864 118.34 21.2044 118.343 21.2219C118.347 21.2394 118.354 21.2559 118.364 21.2701C118.375 21.2843 118.389 21.2958 118.405 21.3036C118.421 21.3114 118.438 21.3154 118.456 21.3151L126.433 21.3019C126.451 21.3021 126.468 21.2982 126.484 21.2904C126.5 21.2825 126.514 21.2711 126.525 21.2568C126.535 21.2426 126.542 21.2261 126.545 21.2086C126.548 21.1911 126.547 21.1731 126.542 21.1562L122.529 7.88808C122.522 7.86506 122.508 7.84492 122.488 7.83061C122.469 7.8163 122.445 7.80857 122.421 7.80857C122.397 7.80857 122.374 7.8163 122.354 7.83061C122.335 7.84492 122.321 7.86506 122.314 7.88808L118.347 21.1694Z" fill="black"/>
<path d="M182.081 28.5734L182.075 33.8979C182.075 33.9286 182.063 33.9581 182.041 33.9798C182.019 34.0016 181.99 34.0138 181.959 34.0138H157.221C157.19 34.0138 157.161 34.0016 157.139 33.9798C157.117 33.9581 157.105 33.9286 157.105 33.8979L157.102 28.8979C157.102 28.8729 157.11 28.8485 157.125 28.8284L173.995 6.68621C174.008 6.66899 174.016 6.64851 174.018 6.62708C174.02 6.60564 174.016 6.58409 174.006 6.56484C173.997 6.54559 173.982 6.5294 173.964 6.51808C173.945 6.50677 173.924 6.50078 173.903 6.50078L158.085 6.51402C158.054 6.51402 158.025 6.50181 158.003 6.48008C157.981 6.45834 157.969 6.42887 157.969 6.39814L157.959 1.04719C157.959 1.01645 157.971 0.98697 157.993 0.965236C158.015 0.943502 158.044 0.931293 158.075 0.931293L181.813 0.927979C181.844 0.927979 181.873 0.940187 181.895 0.961921C181.917 0.983656 181.929 1.01314 181.929 1.04387L181.926 6.06038C181.926 6.08546 181.918 6.10986 181.903 6.12992L165.121 28.2787C165.109 28.2957 165.101 28.3159 165.099 28.337C165.097 28.3582 165.1 28.3795 165.11 28.3986C165.119 28.4178 165.133 28.434 165.151 28.4456C165.169 28.4571 165.19 28.4636 165.211 28.4642L181.966 28.4575C181.996 28.4575 182.026 28.4698 182.048 28.4915C182.069 28.5132 182.081 28.5427 182.081 28.5734Z" fill="black"/>
<path d="M276.925 0.931189L283.074 0.924561C283.102 0.924561 283.129 0.935732 283.149 0.955603C283.169 0.975475 283.18 1.00242 283.18 1.03052L283.177 33.9077C283.177 33.9358 283.166 33.9628 283.146 33.9826C283.126 34.0025 283.099 34.0137 283.071 34.0137H275.551C275.533 34.0133 275.515 34.0082 275.499 33.9989C275.484 33.9896 275.471 33.9765 275.462 33.9607L262.256 11.4145C262.245 11.3939 262.227 11.3776 262.205 11.3683C262.183 11.3591 262.159 11.3573 262.136 11.3634C262.113 11.3695 262.093 11.3831 262.079 11.4019C262.065 11.4208 262.057 11.4439 262.058 11.4675L262.074 33.911C262.074 33.9391 262.063 33.9661 262.043 33.986C262.023 34.0058 261.996 34.017 261.968 34.017H255.826C255.798 34.017 255.771 34.0058 255.751 33.986C255.731 33.9661 255.72 33.9391 255.72 33.911V1.03384C255.72 1.00573 255.731 0.978779 255.751 0.958908C255.771 0.939036 255.798 0.927875 255.826 0.927875H263.342C263.361 0.928283 263.378 0.933369 263.394 0.942649C263.41 0.951928 263.423 0.96509 263.432 0.980856L276.64 23.7158C276.652 23.7364 276.67 23.7527 276.692 23.762C276.713 23.7712 276.737 23.773 276.76 23.7669C276.783 23.7608 276.803 23.7472 276.818 23.7284C276.832 23.7095 276.839 23.6864 276.839 23.6628L276.819 1.03715C276.819 1.00905 276.83 0.982093 276.85 0.962222C276.87 0.942351 276.897 0.931189 276.925 0.931189Z" fill="black"/>
<path d="M10.4539 83.2781C14.1062 83.6721 19.0267 83.0331 20.6326 79.1258C21.0741 78.0508 21.2297 76.9525 21.0995 75.8311C20.775 73.0199 18.1525 71.5762 15.722 70.659C13.3556 69.765 11.136 68.8908 9.06317 68.0365C5.9473 66.755 3.30825 64.4538 3.07978 60.8876C2.84578 57.3004 4.24864 54.594 7.28835 52.7684C11.5102 50.232 17.7717 51.2949 22.1127 53.1889C22.1547 53.2088 22.1756 53.2408 22.1756 53.285L22.1889 55.6061C22.1893 55.6165 22.1869 55.6268 22.1821 55.636C22.1773 55.6452 22.1702 55.6532 22.1614 55.6591C22.1525 55.665 22.1422 55.6687 22.1314 55.6698C22.1206 55.671 22.1097 55.6696 22.0995 55.6657C19.6271 54.7408 17.1713 54.1812 14.732 53.9869C10.1161 53.6161 5.64267 55.1426 5.96054 60.7187C6.14266 63.9372 9.15919 65.2253 11.8148 66.2219C14.115 67.0829 16.2408 67.9052 18.1922 68.6888C21.5564 70.0398 24.02 72.4305 24.073 76.2682C24.1624 82.6622 19.0002 85.9204 13.0962 86.0297C9.57751 86.0937 6.35237 85.4591 3.42083 84.1258C3.36268 84.0992 3.31337 84.0567 3.27874 84.0033C3.24411 83.9499 3.22563 83.8878 3.22547 83.8244V81.7682C3.22523 81.7424 3.23137 81.717 3.24338 81.6941C3.25539 81.6713 3.2729 81.6517 3.2944 81.637C3.3159 81.6224 3.34076 81.6131 3.36682 81.61C3.39288 81.6069 3.41937 81.61 3.44401 81.6192C5.6824 82.4646 8.01903 83.0176 10.4539 83.2781Z" fill="black"/>
<path d="M271.803 65.8409C274.273 66.8011 276.704 67.7515 279.097 68.6918C282.164 69.9004 284.64 72.109 284.925 75.5693C285.432 81.6752 281.005 85.4632 275.283 85.9533C271.601 86.2712 267.987 85.6895 264.442 84.2083C264.237 84.1222 264.133 83.9687 264.131 83.748L264.114 81.8209C264.114 81.6354 264.201 81.5747 264.376 81.6387C268.16 83.0228 272.372 83.7877 276.018 83.142C279.72 82.4864 282.601 79.5593 281.958 75.5792C281.574 73.2084 279.462 71.8209 277.382 70.9799C275.281 70.13 273.185 69.3121 271.094 68.5263C267.064 67.0097 263.667 64.4568 263.952 59.6886C264.15 56.3597 265.787 53.9326 268.862 52.4072C273.001 50.3576 278.816 51.3741 283.034 53.1887C283.079 53.2063 283.101 53.2394 283.101 53.288L283.094 55.6324C283.094 55.6411 283.092 55.6497 283.088 55.6574C283.084 55.6652 283.078 55.6718 283.071 55.6767C283.064 55.6816 283.057 55.6847 283.048 55.6856C283.04 55.6865 283.032 55.6853 283.024 55.682C279.76 54.4569 276.127 53.6589 272.723 54.0363C268.852 54.4668 266.482 56.8343 266.886 61.0131C267.144 63.6687 269.568 64.97 271.803 65.8409Z" fill="black"/>
<path d="M219.866 83.0166C214.528 78.6457 213.611 71.2286 214.528 64.5565C215.406 58.1757 219.293 52.9903 225.839 51.7619C229.018 51.1658 232.664 51.3446 235.68 52.5201C243.723 55.6492 245.313 64.9538 244.382 72.5497C243.651 78.5 240.31 83.7649 234.346 85.4006C229.694 86.6788 223.734 86.1887 219.866 83.0166ZM228.455 83.3609C240.084 83.9702 242.608 74.1789 241.369 64.7982C240.664 59.4505 237.737 55.2453 232.207 54.3314C224.287 53.0201 218.465 56.7817 217.449 65.03C216.419 73.4107 218.31 82.8278 228.455 83.3609Z" fill="black"/>
<path d="M43.0229 54.5001L43.0362 52.2418C43.0362 52.2214 43.0402 52.2011 43.048 52.1823C43.0559 52.1634 43.0673 52.1462 43.0818 52.1318C43.0962 52.1173 43.1134 52.1058 43.1323 52.098C43.1511 52.0902 43.1714 52.0862 43.1918 52.0862H67.6883C67.7087 52.0862 67.729 52.0902 67.7479 52.098C67.7667 52.1058 67.7839 52.1173 67.7983 52.1318C67.8128 52.1462 67.8243 52.1634 67.8321 52.1823C67.8399 52.2011 67.8439 52.2214 67.8439 52.2418L67.8472 54.5001C67.8472 54.5413 67.8308 54.5809 67.8016 54.6101C67.7725 54.6393 67.7329 54.6557 67.6916 54.6557L56.9831 54.6358C56.9418 54.6358 56.9022 54.6522 56.873 54.6814C56.8439 54.7106 56.8275 54.7502 56.8275 54.7914L56.8341 85.0693C56.8341 85.0898 56.8301 85.11 56.8222 85.1289C56.8144 85.1478 56.803 85.1649 56.7885 85.1794C56.7741 85.1938 56.7569 85.2053 56.738 85.2131C56.7191 85.2209 56.6989 85.225 56.6785 85.225L54.1685 85.2349C54.1273 85.2349 54.0877 85.2185 54.0585 85.1893C54.0293 85.1601 54.0129 85.1205 54.0129 85.0793L54.0195 54.8014C54.0195 54.7601 54.0031 54.7205 53.974 54.6913C53.9448 54.6622 53.9052 54.6458 53.8639 54.6458L43.1786 54.6557C43.1373 54.6557 43.0977 54.6393 43.0685 54.6101C43.0393 54.5809 43.0229 54.5413 43.0229 54.5001Z" fill="black"/>
<path d="M99.1915 83.1386C105.695 84.2942 111.479 81.526 111.496 74.1353C111.512 66.9941 111.514 59.6785 111.503 52.1885C111.503 52.1289 111.532 52.0991 111.592 52.0991L114.251 52.0759C114.295 52.0759 114.317 52.098 114.317 52.1421C114.355 59.0913 114.351 66.5614 114.307 74.5525C114.303 75.2457 114.209 76.036 114.026 76.9234C112.539 84.0889 106.85 86.5458 100.132 85.9564C93.0492 85.3372 89.4168 80.579 89.4102 73.685C89.4013 65.7027 89.4002 58.5306 89.4068 52.1686C89.4068 52.1134 89.4333 52.0859 89.4863 52.0859L92.132 52.0825C92.1872 52.0825 92.2148 52.1101 92.2148 52.1653C92.2214 59.2823 92.2269 66.5945 92.2313 74.1022C92.2313 78.6121 94.6022 82.3207 99.1915 83.1386Z" fill="black"/>
<path d="M154.439 52.7849C162.959 55.1226 164.585 64.4735 163.721 72.0827C162.777 80.3774 157.588 85.1886 149.201 85.2084C145.877 85.2173 142.606 85.2206 139.39 85.2184C139.288 85.2184 139.238 85.1676 139.238 85.066V52.275C139.238 52.1447 139.303 52.0796 139.433 52.0796C142.941 52.0796 146.433 52.0928 149.91 52.1193C151.351 52.1282 152.861 52.35 154.439 52.7849ZM142.155 54.6061L142.055 82.6853C142.055 82.7327 142.074 82.7782 142.108 82.8117C142.141 82.8453 142.187 82.8641 142.234 82.8641L149.598 82.8906C152.582 82.9009 155.448 81.699 157.566 79.5492C159.683 77.3994 160.879 74.4778 160.89 71.4271L160.91 65.9967C160.915 64.486 160.629 62.9891 160.069 61.5914C159.508 60.1937 158.684 58.9226 157.642 57.8507C156.601 56.7788 155.364 55.9272 154.001 55.3443C152.638 54.7615 151.175 54.4588 149.698 54.4538L142.334 54.4273C142.286 54.4273 142.241 54.4461 142.207 54.4796C142.174 54.5132 142.155 54.5586 142.155 54.6061Z" fill="black"/>
<path d="M190.979 52.0862H188.363C188.295 52.0862 188.24 52.141 188.24 52.2087V85.0892C188.24 85.1569 188.295 85.2117 188.363 85.2117H190.979C191.047 85.2117 191.101 85.1569 191.101 85.0892V52.2087C191.101 52.141 191.047 52.0862 190.979 52.0862Z" fill="black"/>
<path d="M188.843 171.781C190.111 168.688 191.412 165.612 192.187 162.469C192.419 161.538 192.513 160.595 192.469 159.642C192.366 157.503 188.611 157.506 187.158 157.516C184.403 157.536 181.308 157.764 177.873 158.201C177.449 158.256 177.168 158.082 177.028 157.678C176.985 157.552 176.982 157.415 177.022 157.288C177.062 157.161 177.142 157.05 177.25 156.973C182.25 153.383 189.492 152.82 195.333 154.016C195.843 154.12 196.354 154.314 196.866 154.599C198.21 155.337 197.575 158.926 197.306 160.158C196.384 164.383 194.643 167.917 192.085 170.761C191.38 171.542 190.641 172.158 189.866 172.608C189.617 172.752 189.365 172.747 189.111 172.595C188.977 172.514 188.876 172.387 188.826 172.237C188.777 172.088 188.783 171.926 188.843 171.781Z" fill="black"/>
<path d="M131.642 168.731C149.882 170.682 167.736 168.233 185.204 161.383C186.194 160.996 187.244 160.992 187.866 161.992C188.346 162.757 187.764 163.582 187.138 164.016C183.615 166.444 179.906 168.476 176.012 170.112C146.728 182.409 112.738 177.953 88.3075 157.383C88.0868 157.2 87.9025 156.984 87.7546 156.734C87.6591 156.573 87.624 156.383 87.6556 156.198C87.6871 156.014 87.7832 155.846 87.9268 155.724C88.3219 155.391 88.7601 155.355 89.2413 155.615C102.336 162.734 116.47 167.106 131.642 168.731Z" fill="black"/>
</g>
<defs>
<clipPath id="clip0_16_93">
<rect width="284.766" height="176.82" fill="white" transform="translate(0.248779 0.143066)"/>
</clipPath>
</defs>
</svg>
