<?xml version="1.0" encoding="utf-8"?>
<!-- Generator: Adobe Illustrator 27.7.0, SVG Export Plug-In . SVG Version: 6.00 Build 0)  -->
<svg version="1.1" id="katman_1" xmlns="http://www.w3.org/2000/svg" xmlns:xlink="http://www.w3.org/1999/xlink" x="0px" y="0px"
	 viewBox="0 0 706 244" style="enable-background:new 0 0 706 244;" xml:space="preserve">
<style type="text/css">
	.st0{fill:#FFFFFF;}
</style>
<path class="st0" d="M52.6,33.5h88.1v-19H52.6V33.5z M455.1,135.3h-61.6V72.1h61.6c22,0,36.7,12.7,36.7,31.6
	C491.8,122.6,477.1,135.3,455.1,135.3 M475.5,150.1c21.1-6,34.8-24.2,34.8-46.4c0-28.7-22.2-48-55.2-48H375v169.8h18.5V152h62.7
	l39.9,73.5h20l-41.6-75.1L475.5,150.1z M279,228.7c45.4,0,77-31.9,77-77.5V55.7h-19v94.2c0,35.2-23.9,59.7-58,59.7
	c-28.3,0-58.8-18.7-58.8-59.7V55.7h-19v95.5C201.2,196.8,233.2,228.7,279,228.7 M610.8,77.8l40.1,87.7h-80.4L610.8,77.8z
	 M601.9,55.7l-77.6,169.8h19.9l19.2-43.5h94.7l19.2,43.5h19.9L619.6,55.7H601.9z M96.6,52.5C48,52.5,8.5,92,8.5,140.6
	s39.5,88.1,88.1,88.1s88.1-39.5,88.1-88.1C184.7,92,145.2,52.5,96.6,52.5 M96.6,209.7c-38.1,0-69.1-31-69.1-69.1s31-69.1,69.1-69.1
	s69.1,31,69.1,69.1C165.7,178.7,134.7,209.7,96.6,209.7"/>
</svg>
