<svg width="489" height="93" viewBox="0 0 489 93" fill="none" xmlns="http://www.w3.org/2000/svg">
<g clip-path="url(#clip0_16_157)">
<path d="M467.672 7.24687C475.573 18.862 479.776 32.4972 479.776 46.6374C479.776 60.7776 475.573 74.4128 467.672 86.028C466.328 88.048 466.832 90.9097 468.849 92.2564C470.866 93.6031 473.724 93.0981 475.069 91.078C483.978 77.9479 488.853 62.461 488.853 46.6374C488.853 30.6455 484.147 15.327 475.069 2.1968C473.724 0.176772 470.866 -0.328235 468.849 1.01845C466.832 2.36514 466.328 5.22684 467.672 7.24687Z" fill="black"/>
<path d="M453.552 79.9673C455.569 81.4824 458.259 80.9774 459.772 79.1257C466.832 69.8672 470.53 58.4204 470.53 46.8052C470.53 34.8534 466.664 23.7432 459.603 14.3164C458.09 12.2964 455.233 11.9597 453.384 13.4747C451.366 14.9898 451.03 17.8515 452.543 19.7032C458.427 27.4466 461.789 37.0417 461.621 46.9735C461.621 56.737 458.595 66.1638 452.543 73.9072C451.198 75.5906 451.534 78.284 453.552 79.9673C453.552 79.799 453.552 79.799 453.552 79.9673Z" fill="black"/>
<path d="M437.75 69.0257C439.599 70.5408 442.457 70.2041 443.97 68.3524C449.013 62.124 451.703 54.3805 451.703 46.4687C451.703 38.557 449.181 31.1502 444.306 24.9218C442.793 22.9017 439.935 22.5651 438.086 24.0801C436.069 25.5951 435.733 28.4568 437.246 30.3085C440.776 34.8536 442.793 40.577 442.793 46.3004C442.793 52.1922 440.776 57.9156 437.078 62.629C435.565 64.649 435.733 67.3424 437.75 69.0257ZM21.5249 85.8593C13.624 74.2441 9.25333 60.6089 9.42144 46.4687C9.42144 32.3285 13.624 18.6934 21.5249 7.07819C22.8697 5.2265 22.3654 2.36479 20.3482 1.01811C18.3309 -0.496914 15.6413 0.0080934 14.2964 2.02812C5.21884 15.1583 0.511932 30.6452 0.511932 46.4687C0.511932 62.4606 5.21884 77.9475 14.2964 90.9094C15.6413 92.9294 18.499 93.4344 20.5163 92.0877C22.5335 90.741 23.0378 87.8793 21.5249 85.8593Z" fill="black"/>
<path d="M36.6542 19.5354C38.1671 17.5154 37.8309 14.822 35.8136 13.307C33.7964 11.792 31.1067 12.1287 29.5938 14.1487C22.3653 23.5755 18.6671 34.854 18.6671 46.6375C18.6671 58.2526 22.3653 69.6995 29.4257 78.9579C30.9386 80.978 33.6283 81.3146 35.6455 79.7996C37.6628 78.2846 37.999 75.5912 36.4861 73.5712C30.6024 65.8277 27.4085 56.4009 27.4085 46.6375C27.5766 36.7057 30.7705 27.2789 36.6542 19.5354Z" fill="black"/>
<path d="M37.4948 46.3005C37.4948 54.2123 40.1844 61.9557 45.2276 68.1842C46.7405 70.0359 49.5983 70.3725 51.4474 68.8575C53.2965 67.3425 53.6328 64.4808 52.1198 62.6291C48.4215 58.084 46.4043 52.1923 46.4043 46.3005C46.4043 40.4088 48.2534 34.8537 51.9517 30.3086C53.4646 28.2886 53.1284 25.5952 51.1112 24.0802C49.0939 22.5652 46.4043 22.9019 44.8913 24.9219C40.1844 30.982 37.4948 38.5571 37.4948 46.3005Z" fill="black"/>
<path d="M80.5293 56.2323C80.5293 58.2524 81.3699 59.9357 82.7147 60.9457C84.0595 61.9557 85.7406 62.4608 87.7578 62.4608C90.9518 62.4608 94.1458 61.4507 94.1458 57.9157C94.1458 49.6672 62.5422 56.2323 62.5422 36.2004C62.5422 23.0702 76.1587 19.1985 86.9173 19.1985C98.1803 19.1985 111.292 21.7235 112.469 35.527H93.9777C93.8096 34.012 93.1371 32.6653 91.9604 31.8237C91.1199 30.8136 89.607 30.477 87.9259 30.477C84.3957 30.477 82.0423 31.487 82.0423 34.1804C82.0423 41.4188 114.486 36.5371 114.486 55.8957C114.486 66.6691 105.577 73.9076 86.7492 73.9076C74.9819 73.9076 62.0379 70.2042 60.8612 56.4007L80.5293 56.2323ZM118.185 19.3668H134.827V27.2786H118.185V19.3668ZM118.185 72.5609V30.6453H134.827V72.5609H118.185ZM139.198 30.8136H154.327V39.2304H154.495C156.848 32.6653 160.883 29.6353 167.271 29.6353C167.943 29.6353 168.616 29.8036 169.456 29.972V46.6372C168.28 46.4689 167.103 46.1322 166.094 46.1322C159.37 46.1322 155.84 49.3306 155.84 58.4207V72.8976H139.198V30.8136ZM172.986 19.3668H189.629V27.2786H172.986V19.3668ZM172.986 72.5609V30.6453H189.629V72.5609H172.986ZM239.051 72.5609H223.586V66.3325C219.383 72.0559 215.349 73.7393 208.456 73.7393C199.379 73.7393 193.495 68.1842 193.495 56.2323V30.6453H210.137V53.2023C210.137 58.9257 212.155 60.7774 216.021 60.7774C220.896 60.7774 222.409 57.2424 222.409 50.6773V30.477H239.051V72.5609ZM256.702 59.5991C256.702 61.2824 257.375 62.4608 258.551 63.4708C259.56 64.3124 261.073 64.8175 262.586 64.8175C265.107 64.8175 267.797 63.9758 267.797 61.1141C267.797 54.3806 242.245 59.7674 242.245 43.6072C242.245 32.8337 253.34 29.8036 262.081 29.8036C271.159 29.8036 281.918 31.8237 282.926 42.9338H267.797C267.629 41.5871 267.125 40.5771 266.116 39.9038C265.275 39.2304 264.099 38.8938 262.754 38.8938C259.896 38.8938 258.047 39.7354 258.047 41.7555C258.047 47.6472 284.439 43.6072 284.439 59.2624C284.439 68.0158 277.211 73.9076 261.913 73.9076C252.331 73.9076 241.741 71.0459 240.9 59.5991H256.702Z" fill="black"/>
<path d="M300.577 45.2903L283.599 20.7133H306.293L312.849 33.6751L319.741 20.7133H342.099L324.448 45.2903L342.267 72.3924H319.405L312.176 57.5788L304.612 72.3924H282.086L300.577 45.2903ZM343.612 20.7133H362.44V28.4567C364.961 24.585 369.668 19.3666 377.065 19.3666C385.638 19.3666 390.849 23.2383 393.203 28.7934C397.573 22.565 401.44 19.3666 409.004 19.3666C421.948 19.3666 428.336 27.7834 428.336 41.9236V72.3924H407.828V46.132C407.828 38.5569 407.323 35.5268 401.944 35.5268C396.228 35.5268 396.228 40.7452 396.228 46.9737V72.5607H375.72V46.132C375.72 38.5569 375.215 35.6952 369.836 35.5268C364.289 35.3585 364.121 40.7452 364.121 46.9737V72.5607H343.612V20.7133ZM427.496 11.4548C424.47 11.4548 421.948 13.9799 421.948 17.0099C421.948 20.04 424.47 22.3967 427.328 22.3967C430.353 22.3967 432.875 19.8716 432.875 17.0099C432.875 13.9799 430.353 11.4548 427.496 11.4548ZM427.328 21.7233C424.806 21.7233 422.621 19.7033 422.621 17.0099C422.621 17.0099 422.621 17.0099 422.621 16.8416C422.621 14.1482 424.638 12.1282 427.328 12.1282C429.849 12.1282 432.035 14.1482 432.035 16.8416C432.035 16.8416 432.035 16.8416 432.035 17.0099C432.035 19.7033 430.017 21.7233 427.328 21.7233Z" fill="black"/>
<path d="M429.849 15.8317C429.849 15.3267 429.681 14.99 429.345 14.6533C429.009 14.3167 428.336 13.98 427.664 13.98H425.142V19.7034H426.151V17.6834H427.328L428.672 19.7034H430.017L428.504 17.515C429.345 17.3467 429.849 16.8417 429.849 15.8317ZM427.664 16.8417H426.319V14.99H427.664C428.336 14.99 428.84 15.3267 428.84 15.8317C428.84 16.505 428.336 16.8417 427.664 16.8417Z" fill="black"/>
</g>
<defs>
<clipPath id="clip0_16_157">
<rect width="488.174" height="92.753" fill="white" transform="translate(0.511963 0.17627)"/>
</clipPath>
</defs>
</svg>
