<svg width="381" height="89" viewBox="0 0 381 89" fill="none" xmlns="http://www.w3.org/2000/svg">
<g clip-path="url(#clip0_16_170)">
<path d="M267.731 1.82959H245.12H226.308H203.697C199.546 1.82959 196.102 5.1978 196.102 9.36373C196.102 13.5297 199.458 16.8979 203.697 16.8979H211.381C212.264 16.8979 212.971 17.607 212.971 18.4933V80.2733C213.059 84.3506 216.327 87.6302 220.478 87.6302C224.63 87.6302 227.897 84.3506 227.986 80.2733V18.582C227.986 17.6956 228.692 16.9865 229.576 16.9865H237.171C238.055 17.0752 238.673 17.6956 238.673 18.582V80.362C238.761 84.4393 242.029 87.7188 246.18 87.7188C250.331 87.7188 253.599 84.4393 253.687 80.362V18.582C253.687 17.6956 254.306 16.9865 255.189 16.9865H267.731C271.882 16.9865 275.326 13.6183 275.326 9.45237C275.326 5.28643 271.97 1.82959 267.731 1.82959Z" fill="black"/>
<path d="M46.7489 72.385H16.7194C15.7479 72.385 14.953 71.5873 14.953 70.6123V8.38907C14.953 4.4004 11.7734 1.20947 7.79891 1.20947C3.91275 1.29811 0.733154 4.48904 0.733154 8.38907C0.733154 8.38907 0.733154 8.38907 0.733154 8.47771V79.3873C0.733154 83.376 3.91275 86.5669 7.88724 86.5669H46.7489C50.6351 86.5669 53.8147 83.376 53.8147 79.476C53.8147 75.5759 50.6351 72.385 46.7489 72.385Z" fill="black"/>
<path d="M267.201 22.9255C263.05 22.9255 259.605 26.2937 259.605 30.5483V80.185C259.605 84.351 263.05 87.8078 267.201 87.8078C271.352 87.8078 274.796 84.4396 274.796 80.185V30.5483C274.796 26.3824 271.44 22.9255 267.201 22.9255Z" fill="black"/>
<path d="M161.832 15.0369C145.493 15.0369 132.245 28.3325 132.245 44.7303C132.245 61.1282 145.493 74.4237 161.832 74.4237C178.172 74.4237 191.42 61.1282 191.42 44.7303C191.42 28.3325 178.172 15.0369 161.832 15.0369ZM161.832 88.7829C137.632 88.7829 117.936 69.0169 117.936 44.7303C117.936 20.4438 137.632 0.677734 161.832 0.677734C186.033 0.677734 205.728 20.4438 205.728 44.7303C205.817 69.0169 186.033 88.7829 161.832 88.7829Z" fill="black"/>
<path d="M71.7439 30.1054L72.1855 29.9281C72.2738 30.0168 72.4505 30.194 72.4505 30.194L82.7842 43.4009C83.0491 43.6669 83.1375 44.11 83.1375 44.4646C83.1375 44.9078 82.9608 45.2623 82.7842 45.5282L59.3788 75.6648C56.9058 78.7671 57.4358 83.3762 60.6153 85.8581C61.9402 86.9217 63.53 87.3649 65.0314 87.3649C67.1512 87.3649 69.2709 86.3899 70.684 84.6171L91.4397 57.9374C91.7047 57.5829 92.2346 57.3169 92.7645 57.3169C93.2945 57.3169 93.8244 57.5829 94.0894 57.9374L114.845 84.6171C116.258 86.4785 118.378 87.3649 120.498 87.3649C122.087 87.3649 123.589 86.8331 124.914 85.8581C128.093 83.3762 128.623 78.8557 126.15 75.6648L102.745 45.6169C102.48 45.351 102.392 44.9964 102.392 44.5532C102.392 44.11 102.568 43.7555 102.745 43.4896L126.592 12.9098C129.065 9.71888 128.535 5.1984 125.355 2.71656C122.264 0.234724 117.671 0.766546 115.198 3.95748L94.0011 31.0804C93.7361 31.5236 93.2062 31.7009 92.6762 31.7009C92.1463 31.7009 91.6164 31.4349 91.3514 31.0804L70.1541 3.95748C68.2994 1.56428 65.0314 0.589272 62.1168 1.56428C59.2022 2.53929 57.2591 5.28703 57.2591 8.38933V40.6532C57.2591 46.5032 52.4897 51.2896 46.6605 51.2896C40.8312 51.2896 36.0618 46.5032 36.0618 40.6532V8.38933C36.0618 4.40066 32.7939 1.12109 28.8194 1.12109C24.8449 1.12109 21.577 4.40066 21.577 8.38933V40.21C21.577 54.0374 32.7939 65.2943 46.5721 65.2943C60.3504 65.2943 71.5673 54.0374 71.5673 40.21V30.1054H71.7439Z" fill="black"/>
<path d="M365.768 31.6119L366.209 31.7005V80.9827C366.209 84.9713 369.477 88.2509 373.452 88.2509C377.426 88.2509 380.694 84.9713 380.694 80.9827V8.21171C380.694 5.02077 378.663 2.27303 375.66 1.29802C372.657 0.323012 369.389 1.47529 367.623 4.04577L318.162 74.1576C303.766 72.119 292.549 59.5325 292.549 44.5529C292.549 28.0664 305.885 14.6822 322.313 14.6822C326.464 14.6822 330.527 15.5686 334.237 17.164C337.858 18.7595 342.097 17.0754 343.776 13.4413C345.365 9.80717 343.687 5.55259 340.066 3.95713C334.237 1.47529 328.319 0.234375 322.137 0.234375C297.76 0.234375 277.976 20.0891 277.976 44.5529C277.976 68.4849 297.318 88.3396 321.165 88.8714C321.342 88.8714 321.43 88.8714 321.607 88.8714C323.903 88.8714 326.111 87.8077 327.524 85.8577L365.503 31.8778C365.503 31.8778 365.679 31.7005 365.768 31.6119Z" fill="black"/>
<path d="M352.52 4.13432H354.463C354.728 4.13432 354.993 4.13432 355.081 4.22296C355.346 4.40023 355.523 4.66614 355.523 5.10933C355.523 5.46387 355.434 5.81842 355.169 5.90706C354.904 6.08433 354.639 6.17297 354.286 6.17297H352.431V4.13432H352.52ZM352.52 6.79343H354.374C354.728 6.79343 354.904 6.79343 355.081 6.88207C355.346 6.9707 355.523 7.23661 355.523 7.6798V8.65481C355.523 8.92072 355.523 9.00935 355.523 9.09799C355.523 9.18663 355.523 9.27526 355.611 9.27526H356.582V9.18663C356.494 9.09799 356.406 9.00935 356.318 8.83208C356.318 8.74344 356.229 8.56617 356.229 8.30026V7.50253C356.229 7.14798 356.141 6.88207 356.053 6.79343C355.964 6.61616 355.788 6.52752 355.523 6.43888C355.788 6.26161 355.964 6.08433 356.141 5.90706C356.318 5.64115 356.406 5.37524 356.406 5.02069C356.406 4.31159 356.141 3.86841 355.523 3.6025C355.258 3.42522 354.816 3.42522 354.374 3.42522H351.636V9.3639H352.431V6.79343H352.52ZM354.021 1.56385C356.671 1.56385 358.879 3.69113 358.879 6.43888C358.879 9.18663 356.759 11.3139 354.021 11.3139C351.371 11.3139 349.163 9.09799 349.163 6.43888C349.163 3.77977 351.371 1.56385 354.021 1.56385ZM354.021 12.1116C357.201 12.1116 359.674 9.54118 359.674 6.43888C359.674 3.24795 357.112 0.766113 354.021 0.766113C350.842 0.766113 348.369 3.33659 348.369 6.43888C348.28 9.54118 350.842 12.1116 354.021 12.1116Z" fill="black"/>
</g>
<defs>
<clipPath id="clip0_16_170">
<rect width="379.873" height="88.637" fill="white" transform="translate(0.733154 0.234375)"/>
</clipPath>
</defs>
</svg>
