<?xml version="1.0" encoding="utf-8"?>
<!-- Generator: Adobe Illustrator 27.9.0, SVG Export Plug-In . SVG Version: 6.00 Build 0)  -->
<svg version="1.1" id="Layer_1" xmlns="http://www.w3.org/2000/svg" xmlns:xlink="http://www.w3.org/1999/xlink" x="0px" y="0px"
	 viewBox="0 0 936 154" style="enable-background:new 0 0 936 154;" xml:space="preserve">
<style type="text/css">
	.st0{fill:#FFFFFF;}
</style>
<g>
	<path class="st0" d="M41.5,44.7C41,42.4,41,40,41.4,37.7c0.9-4.2,3.8-8.9,12-8.9c7.7,0,12.2,4.8,12.2,12V49h32.9v-9.3
		C98.6,11,72.8,6.5,54.2,6.5C30.7,6.5,11.5,14.3,8,35.8c-0.9,5.9-1.1,11.2,0.3,17.8c5.7,26.9,52.6,34.8,59.4,51.8
		c1.3,3.2,0.9,7.3,0.2,9.8c-1.1,4.4-4.1,8.9-12.9,8.9c-8.2,0-13.3-4.8-13.3-12V99.3H6.5v10.2c0,29.4,23.1,38.3,48,38.3
		c23.9,0,43.5-8.1,46.6-30.1c1.6-11.4,0.4-18.9-0.1-21.6C95.3,68.4,45.3,60.1,41.5,44.7z"/>
	<polygon class="st0" points="147.7,10.7 123.2,142.6 158.9,142.6 177,22.9 177.7,22.9 195.3,142.6 230.7,142.6 206.4,10.7 	"/>
	<polygon class="st0" points="347,10.7 330.8,111.6 330,111.6 313.8,10.7 260,10.7 257.1,142.6 290.1,142.6 290.9,24 291.6,24 
		313.6,142.6 347.1,142.6 369.2,24 369.9,24 370.7,142.6 403.7,142.6 400.8,10.7 	"/>
	<path class="st0" d="M470.4,44.4c-0.5-2.3-0.6-4.6-0.1-6.9c0.9-4.2,3.8-8.9,12-8.9c7.7,0,12.2,4.8,12.2,12v8.2h32.9v-9.3
		c0-28.7-25.8-33.2-44.5-33.2c-23.5,0-42.7,7.8-46.2,29.3c-0.9,5.9-1.1,11.2,0.3,17.8c5.7,26.9,52.6,34.8,59.4,51.8
		c1.3,3.2,0.9,7.3,0.2,9.8c-1.1,4.4-4.1,8.9-12.9,8.9c-8.2,0-13.3-4.8-13.3-12V99h-35.4v10.2c0,29.4,23.1,38.3,48,38.3
		c23.9,0,43.5-8.1,46.6-30.1c1.6-11.4,0.4-18.9-0.1-21.6C524.3,68.1,474.2,59.9,470.4,44.4z"/>
	<path class="st0" d="M882.8,68.5v19.2h13.5v19.2c0,1.6,0,3.5-0.3,5c-0.6,3.6-3.9,9.6-13.5,9.6c-9.5,0-12.9-6-13.5-9.6
		c-0.2-1.5-0.3-3.3-0.3-5V46.6c0-2.1,0.2-4.5,0.6-6.2c0.7-3.3,3.5-9.6,13.1-9.6c10.1,0,12.6,6.7,13.2,9.6c0.4,1.9,0.4,5,0.4,5v7.4
		h33.3v-4.4c0,0,0.1-4.5-0.3-8.7C926.6,15,906.1,7.1,882.7,7.1c-23.4,0-43.4,7.9-46.3,32.6c-0.2,2.2-0.6,6.3-0.6,8.7v55.5
		c0,2.5,0.1,4.3,0.5,8.7c2.2,24,23,32.6,46.4,32.6s44.2-8.6,46.4-32.6c0.4-4.4,0.5-6.2,0.5-8.7V68.5H882.8z"/>
	<polygon class="st0" points="770.5,114.2 769.8,114.2 739.4,10.7 690.5,10.7 690.5,141.2 722.9,141.2 721.1,34.1 721.8,34.1 
		754.4,141.2 801.4,141.2 801.4,10.7 768.7,10.7 	"/>
	<path class="st0" d="M620.3,108.3c0,1.7,0,3.6-0.3,5c-0.7,3.2-3.5,9.5-12.6,9.5c-9.2,0-12-6.3-12.7-9.5c-0.3-1.4-0.3-3.3-0.3-5.1
		V10.7H561v94.6c0,2.4,0.2,7.4,0.3,8.7c2.3,24.6,21.8,32.6,46.1,32.6c24.3,0,43.7-8,46-32.6c0.2-2.9,0.3-5.8,0.3-8.7V10.7h-33.4
		V108.3z"/>
</g>
</svg>
