<?xml version="1.0" encoding="utf-8"?>
<!-- Generator: Adobe Illustrator 27.9.0, SVG Export Plug-In . SVG Version: 6.00 Build 0)  -->
<svg version="1.1"
	 id="svg4378" xmlns:svg="http://www.w3.org/2000/svg" xmlns:cc="http://creativecommons.org/ns#" xmlns:sodipodi="http://sodipodi.sourceforge.net/DTD/sodipodi-0.dtd" xmlns:dc="http://purl.org/dc/elements/1.1/" xmlns:rdf="http://www.w3.org/1999/02/22-rdf-syntax-ns#" xmlns:inkscape="http://www.inkscape.org/namespaces/inkscape" inkscape:version="0.91 r13725" sodipodi:docname="callaway.svg"
	 xmlns="http://www.w3.org/2000/svg" xmlns:xlink="http://www.w3.org/1999/xlink" x="0px" y="0px" viewBox="0 0 297.6 171.7"
	 style="enable-background:new 0 0 297.6 171.7;" xml:space="preserve">
<style type="text/css">
	.st0{fill:#FFFFFF;}
</style>
<sodipodi:namedview  bordercolor="#666666" borderopacity="1.0" fit-margin-bottom="0" fit-margin-left="0" fit-margin-right="0" fit-margin-top="0" id="base" inkscape:current-layer="layer1" inkscape:cx="151.76255" inkscape:cy="84.869234" inkscape:document-units="px" inkscape:pageopacity="0.0" inkscape:pageshadow="2" inkscape:window-height="744" inkscape:window-maximized="1" inkscape:window-width="1280" inkscape:window-x="-4" inkscape:window-y="-4" inkscape:zoom="2.9816315" pagecolor="#ffffff" showgrid="false" units="px">
	</sodipodi:namedview>
<g id="layer1" transform="translate(-222.52316,-468.35008)" inkscape:groupmode="layer" inkscape:label="Layer 1">
	<g id="g3873" transform="matrix(1.25,0,0,-1.25,287.27793,525.27375)">
		<path id="path3875" inkscape:connector-curvature="0" class="st0" d="M0,0c-1.3,0-1.3-2-1.3-2c0.2-7.6,6-9.4,6-9.4
			c2.2-1.4,2.7,0.5,2.7,0.5l1.8,3.5L6,0.3L0,0z M9.1,14.6l8.8-20c1-2.2,2.3-0.7,2.3-0.7c1.4,0.8,1.9,0.4,1.9,0.4
			c0.9-0.6,0.1-1.6,0.1-1.6l-3.4-6.6c-0.9-2.5-3.4-0.2-3.4-0.2c-0.9,0.4-3.5,2.6-3.5,2.6c-0.9,1.5-1.9,0-1.9,0l-3.8-6.8
			c-1.2-2.8-4.7-1-4.7-1c-12.3,4.1-5.2,20-5.2,20C-3.1,3.4-1.5,3-1.5,3l6.3,0.2C4.6,5.1,2.1,9.2,2.1,9.2c-0.6,1.5-1.7,1.2-1.7,1.2
			l-10.5-0.7c-0.9-0.1-0.8,0.6-0.8,0.6c-0.2,0.7,0.9,1.2,0.9,1.2c2.1,0.8,3.9,4.1,3.9,4.1c1.3,1.8,2.9,1.4,2.9,1.4l6.3,0.3
			C7.7,17.6,9.1,14.6,9.1,14.6"/>
	</g>
	<g id="g3877" transform="matrix(1.25,0,0,-1.25,500.47706,530.87763)">
		<path id="path3879" inkscape:connector-curvature="0" class="st0" d="M0,0l-6.1-1.1c0,0-1.1-0.2-0.9-0.8c0,0,0-0.6,0.7-0.8
			l0.7-0.5c0,0,1.6-0.7,0.2-2.7l-7.8-12.9c0,0-3.8-6-2.4-10.8c0.6-2-1.5-5.1-1.5-5c0,0-0.3,2.1-5.6,4.6c0,0-1.7,1.1-3.3-0.4
			l-2.2-1.8c0,0-1.1-1,0.1-1.2c0,0,2.8-1,5.9-4.8c0,0,1.2-1.9,3.8-1.7c0,0,4.9,0.3,8.3,6.7c0.7,0.4,3.8-3.7,12.7,2.5
			C9.6-25.8,15-19.7,14.9-10c0,0,0.2,2.8-2.3,2.2L8.8-8.3c0,0-2.1,0.2-1.8-2.4c0,0,0.8-13.1-13.3-15.9c0,0-2.7-0.8-1.6,1.6
			c0,0,5.5,9.7,9.2,14.4c0,0,4.4,4.7,1.7,9.3L2.3-0.4C2.3-0.4,1.9,0.4,0,0"/>
	</g>
	<g id="g3881" transform="matrix(1.25,0,0,-1.25,367.9338,507.50426)">
		<path id="path3883" inkscape:connector-curvature="0" class="st0" d="M0,0c-1.2,0.5-1.9-1.4-1.9-1.4c-2.7-7.1,2.1-11,2.1-11
			c1.6-2.1,2.6-0.5,2.6-0.5l3,2.5L5.6-2L0,0z M14.1,9.4l0.5-21.1c0.1-2.4,1.9-1.5,1.9-1.5c1.6,0.2,1.9-0.4,1.9-0.4
			c0.6-0.9-0.5-1.5-0.5-1.5l-5.6-4.9C10.4-21.9,9-18.9,9-18.9c-0.7,0.8-2.3,3.7-2.3,3.7c-0.3,1.7-1.8,0.7-1.8,0.7l-6.1-4.9
			c-2.2-2.1-4.8,0.8-4.8,0.8C-15.8-10.1-3.3,2-3.3,2c1.7,2.3,3.1,1.3,3.1,1.3l5.9-2.2C6.2,3,5.4,7.8,5.4,7.8c0,1.6-1.1,1.8-1.1,1.8
			l-10,3.3c-0.9,0.2-0.5,0.9-0.5,0.9c0,0.7,1.3,0.7,1.3,0.7c2.2,0,5.1,2.3,5.1,2.3C2,18,3.3,17,3.3,17l6-2.1
			C14,13.4,14.1,9.4,14.1,9.4"/>
	</g>
	<g id="g3889" transform="matrix(1.25,0,0,-1.25,431.46005,504.06176)">
		<path id="path3891" inkscape:connector-curvature="0" class="st0" d="M0,0l-1.8-7l-0.5-2l-1.9-7.1c-1.1-3.2-0.1-3.4-0.1-3.4
			l4.3-3.1c0.9-0.7,1.1,0.9,1.1,0.9L7.1-3.8c0.9,3.2-0.1,4.1-0.1,4.1L6.4,1.1c-1.2,1.5,0,1.8,0,1.8l4.7,1.9c1.8,0.9,2.4-0.6,2.4-0.6
			c3.7-4.7,1.6-9.9,1.6-9.9L8.4-25.6c-0.6-2.2-2.2-1.4-2.2-1.4c-4.5,0.4-8.3-1.7-8.3-1.7c-1.9-1.4-3.2,0.6-3.2,0.6
			c-0.3,0.4-5.3,3.9-5.3,3.9c-2.3,1.9-4.2,0.5-4.2,0.5l-2.2-1.1c-1.9-1.6-2.9,0.3-2.9,0.3c-2.2,3.7-9,6.1-9,6.1c-0.9,0-1,0.7-1,0.7
			c-0.2,0.6,0.7,1.1,0.7,1.1l1,0.9c1.1,0.9,1,1.9,1,1.9l2.8,21.9c0.8,5.8-0.5,6-0.5,6c-1,0.4-0.6,1.2-0.6,1.2
			c0.2,0.5,0.8,0.3,0.8,0.3c8.8-1.3,8.9-5.9,8.9-5.9l-3.5-23c-0.4-2.9,0.9-3,0.9-3l3.2-2.1c2.1-1.6,2.4,1.8,2.4,1.8l4.2,16.5
			l0.1,0.4c0.4,3.2-1.2,4.2-1.2,4.2C-11,5.6-9.3,6.2-9.3,6.2l3.7,2.2c1.8,0.9,2.3-0.1,2.3-0.1C1,4.2,0,0,0,0"/>
	</g>
	<g id="g3893" transform="matrix(1.25,0,0,-1.25,308.56756,494.03801)">
		<path id="path3895" inkscape:connector-curvature="0" class="st0" d="M0,0l7.5-24.6c0,0,1.6-4.3,0.1-6.3c0,0-0.8-0.3-0.5-1.1
			c0,0,0.1-0.6,1.2-0.6c0,0,6.6-0.1,8.6-1.8c0,0,1.7-1.7,2.7,0.3c0,0-1.3,4.7-2.5,8L6.1,8.5c0,0-1.1,2.7,0.7,5.7c0,0,0.9,1,0.2,1.6
			c0,0-0.7,0.6-1.8-0.3c0,0-2.2-1.4-4.4-5.1C0.8,10.5-1.6,5.7,0,0"/>
	</g>
	<g id="g3897" transform="matrix(1.25,0,0,-1.25,333.82618,486.91676)">
		<path id="path3899" inkscape:connector-curvature="0" class="st0" d="M0,0l4.1-26.4c0,0,1-4.5-0.8-6.2c0,0-0.8-0.2-0.6-1
			c0,0,0-0.6,1.1-0.7c0,0,6.8-0.8,8.6-2.8c0,0,1.5-1.9,2.7-0.1c0,0-0.9,4.6-1.6,8.1l-6,35.8c0,0-0.7,2.8,1.5,5.5
			c0,0,1.1,0.9,0.4,1.6c0,0-0.6,0.7-1.8,0c0,0-2.3-1.1-5.1-4.4C2.4,9.3-0.8,5.8,0,0"/>
	</g>
	<g id="g3901" transform="matrix(1.25,0,0,-1.25,245.61918,556.89176)">
		<path id="path3903" inkscape:connector-curvature="0" class="st0" d="M0,0c0.6-2.2-1.1-2.6-1.1-2.6c-1-0.5-2,0.1-2,0.1
			C-4.1-2-4.9-1.3-4.9-1.3C-7,0-9.3,2.7-10.7,5.5c-4,8.4-0.4,16.1,1.3,18.1c0,0,0.6,1,1.2,1.2c0,0,1,1,1.7,0c0,0,0.5-0.8,0.4-2
			c0,0,0-0.8-0.1-1.3c-0.1-1.2-0.9-3-0.8-4.3c0.1-1.6,0.8-3.3,1.3-4.4c1.5-2.8,4.6-9,5.1-10.7C-0.2,0.9,0,0,0,0 M29,2.5
			c1.6,2.7,0.3,3.9-0.7,4.3c-3.7,1.3-5.2-8.3-12.6-11.3C7.4-7.8,5.1-5.7,4.4-4.5c-1.5,2.6,2.9,8-0.2,14.9c-3.6,8-7.7,12.9-5.7,16.5
			c1.9,3.5,7.6,2.9,10.3,3c5.4,0.1,6.2,6.9,5.4,8.6c-0.4,0.8-1.2,0.9-2,0.6c-2.7-1.2-3.3-1.8-5.6-2.1c-2.4-0.4-3.8-0.5-9.1-1.6
			c-4.3-0.9-20.8-13.1-13-34.1c6.4-17.3,25.1-16.4,31.9-13.6C23.7-9.2,27.3-0.3,29,2.5"/>
	</g>
	<g id="g3905" transform="matrix(1.25,0,0,-1.25,464.13881,529.36876)">
		<path id="path3907" inkscape:connector-curvature="0" class="st0" d="M0,0c-0.9,1-2.3-0.4-2.3-0.4c-5.6-5.1-3.1-10.8-3.1-10.8
			c0.4-2.6,2.1-1.6,2.1-1.6l3.8,0.9l3.7,7.5L0,0z M16.8,2L7.7-17.1c-1-2.2,1-2.2,1-2.2c1.5-0.5,1.5-1.2,1.5-1.2
			c0.1-1.1-1.1-1.1-1.1-1.1l-7.2-1.8c-2.5-0.9-2.4,2.4-2.4,2.4c-0.3,1-0.3,4.4-0.3,4.4c0.5,1.6-1.3,1.5-1.3,1.5l-7.7-1.6
			c-2.9-0.9-3.9,2.9-3.9,2.9C-18.7-1.9-2.1,3.3-2.1,3.3c2.6,1.3,3.3-0.2,3.3-0.2l4.3-4.6c1.3,1.4,2.8,6,2.8,6c0.7,1.5-0.2,2-0.2,2
			L0.7,14c-0.7,0.6-0.1,1.1-0.1,1.1c0.4,0.6,1.4,0.1,1.4,0.1c2-1,5.6-0.2,5.6-0.2c2.2,0.2,3-1.3,3-1.3l4.4-4.6
			C18.6,5.6,16.8,2,16.8,2"/>
	</g>
	<g id="g3909" transform="matrix(1.25,0,0,-1.25,371.50218,639.08851)">
		<path id="path3911" inkscape:connector-curvature="0" class="st0" d="M0,0c1.9,0,3.9,1.5,5.9,4.7c0,0,27.7,43.3,29.5,46
			c2.6,3.8-2.2,9.2-6.4,4.5c0,0-21.5-23.1-24.2-26.2c-1.7-2-3.1-3-4.8-3c-1.7,0-3,1-4.8,3C-7.5,32-28.9,55.2-28.9,55.2
			c-4.2,4.7-9-0.7-6.4-4.5c1.8-2.6,29.5-46,29.5-46C-3.9,1.5-1.9,0,0,0"/>
	</g>
</g>
</svg>
