<svg width="866" height="178" viewBox="0 0 866 178" fill="none" xmlns="http://www.w3.org/2000/svg">
<g clip-path="url(#clip0_191_576)">
<path d="M0 3.09H46.56V21.64H19.51V158.82H46.56V177.17H0V3.09ZM117.92 105.88C118.31 111.1 120.63 115.35 125.07 118.63C129.51 121.91 135.31 123.46 142.46 123.46C148.64 123.46 153.86 122.3 157.72 119.98C161.58 117.66 163.71 114.38 163.71 110.32C163.71 107.04 162.74 104.52 161.01 102.79C159.08 101.24 156.76 100.08 153.67 99.31C150.58 98.54 145.94 97.76 139.76 96.99C131.07 96.02 123.92 94.67 118.31 92.93C112.71 91.19 108.26 88.49 104.79 84.62C101.31 80.76 99.77 75.73 99.77 69.16C99.77 63.17 101.32 57.76 104.79 53.12C108.27 48.48 112.9 44.81 118.89 42.11C124.88 39.6 131.64 38.25 139.37 38.25C151.74 38.25 161.98 41.15 169.7 46.56C177.43 52.16 181.68 59.89 182.45 69.94H162.16C161.58 65.5 159.26 61.83 155.4 58.93C151.34 56.03 146.32 54.49 140.33 54.49C134.34 54.49 129.32 55.65 125.65 57.97C121.79 60.29 120.05 63.57 120.05 67.44C120.05 70.53 120.82 72.66 122.76 74.2C124.69 75.75 127.01 76.71 129.91 77.29C132.61 77.87 137.25 78.45 143.63 79.22C152.13 80.19 159.28 81.54 165.08 83.47C170.88 85.4 175.51 88.3 178.99 92.36C182.47 96.42 184.21 101.83 184.21 108.78C184.21 114.96 182.28 120.57 178.8 125.2C175.13 129.84 170.11 133.51 163.92 136.02C157.54 138.53 150.4 139.69 142.67 139.69C129.34 139.69 118.52 136.79 110.4 130.8C102.29 124.81 98.03 116.5 97.84 105.88H117.93H117.92ZM203.63 57.96H186.43V39.61H203.63V11.98H224.69V39.61H248.45V57.96H224.69V109.55C224.69 113.41 225.46 116.31 227.01 117.86C228.56 119.41 231.07 120.18 234.93 120.18H250.77V138.53H230.68C221.21 138.53 214.26 136.41 210.01 131.96C205.76 127.71 203.63 120.95 203.63 111.67V57.96ZM351.64 120.37V138.53H340.63C334.06 138.53 329.42 137.18 326.72 134.47C323.82 131.77 322.47 127.9 322.47 122.68C314.93 134.08 304.11 139.68 289.82 139.68C278.61 139.68 269.73 137.17 263.16 131.95C256.4 126.93 253.11 119.78 253.11 110.7C253.11 100.65 256.59 92.73 263.93 87.32C271.08 81.91 281.51 79.01 295.42 79.01H320.34V73.02C320.34 67.61 318.41 63.17 314.54 60.08C310.68 56.99 305.27 55.25 298.51 55.25C292.33 55.25 287.3 56.6 283.44 59.31C279.58 62.01 277.26 65.49 276.48 69.74H256C256.97 59.89 261.41 52.16 269.14 46.75C276.87 41.34 286.91 38.44 299.47 38.44C312.03 38.44 322.85 41.53 330.19 47.71C337.34 53.89 341.01 62.78 341.01 74.37V113.4C341.01 118.04 343.13 120.36 347.58 120.36H351.63L351.64 120.37ZM320.35 94.48H294.46C287.89 94.48 283.06 95.83 279.58 98.34C276.1 100.85 274.36 104.52 274.36 109.35C274.36 113.6 275.9 117.08 279.19 119.59C282.47 122.29 286.92 123.45 292.71 123.45C301.21 123.45 307.97 121.13 312.81 116.49C317.64 111.85 320.15 105.67 320.34 97.94V94.46L320.35 94.48ZM455.17 3.28V138.53H437.01L434.5 123.65C426.58 134.47 415.76 139.69 402.23 139.69C393.15 139.69 385.03 137.76 378.08 133.7C370.93 129.64 365.33 123.85 361.46 116.12C357.4 108.39 355.47 99.5 355.47 89.07C355.47 78.64 357.4 70.33 361.46 62.6C365.52 54.87 371.12 49.08 378.27 44.83C385.23 40.58 393.34 38.45 402.23 38.45C409.38 38.45 415.75 39.8 421.17 42.51C426.58 45.21 430.83 48.69 434.31 53.33V3.28H455.18H455.17ZM426.58 113.03C431.8 107.04 434.5 99.12 434.5 89.46C434.5 79.8 431.79 71.69 426.58 65.5C421.17 59.32 414.21 56.23 405.71 56.23C397.21 56.23 390.06 59.32 384.84 65.5C379.43 71.68 376.92 79.41 376.92 89.07C376.92 98.73 379.43 106.84 384.84 113.03C390.06 119.21 397.01 122.11 405.71 122.11C414.41 122.11 421.17 119.21 426.58 113.03ZM491.21 3.67C493.53 5.99 494.88 9.08 494.88 12.56C494.88 16.23 493.53 19.32 491.21 21.64C488.7 23.96 485.61 25.12 482.13 25.12C478.46 25.12 475.37 23.96 473.05 21.64C470.54 19.32 469.38 16.23 469.38 12.56C469.38 9.08 470.54 5.99 473.05 3.67C475.37 1.35 478.46 0 482.13 0C485.61 0 488.7 1.35 491.21 3.67ZM471.7 39.61H492.57V138.53H471.7V39.61ZM597.84 39.61V138.53H579.48L577.16 125.97C569.63 135.24 559.39 139.69 546.63 139.69C535.04 139.69 525.57 136.21 518.42 128.87C511.08 121.72 507.6 110.13 507.6 94.09V39.61H528.47V91.97C528.47 101.63 530.4 108.97 534.27 114C538.13 119.02 543.74 121.54 551.47 121.54C559.2 121.54 565.57 118.64 570.21 112.85C574.66 107.05 576.97 98.94 576.97 88.7V39.63H597.84V39.61ZM755.19 49.07C761.95 56.03 765.43 67.23 765.43 82.69V138.53H744.56V82.89C744.56 74.39 742.82 67.82 739.34 63.18C735.86 58.74 730.64 56.42 723.88 56.42C716.54 56.42 710.93 59.12 706.68 64.15C702.43 69.17 700.49 76.13 700.49 85.02V138.54H679.43V82.9C679.43 74.21 677.5 67.64 674.02 63.19C670.54 58.75 665.32 56.43 658.56 56.43C651.41 56.43 645.81 59.13 641.56 64.35C637.31 69.76 635.38 76.72 635.38 85.6V138.54H614.51V39.61H632.67L634.99 52.55C641.95 43.28 651.61 38.64 663.97 38.45C670.93 38.45 676.91 40 682.32 42.89C687.54 45.98 691.59 50.42 694.49 56.41C697.97 50.81 702.41 46.36 708.21 43.27C713.81 40.18 720.58 38.44 728.69 38.44C739.51 38.44 748.2 42.11 755.16 49.07H755.19ZM865.08 177.36H818.51V158.81H845.56V21.64H818.51V3.28H865.08V177.36Z" fill="white"/>
</g>
<defs>
<clipPath id="clip0_191_576">
<rect width="865.08" height="177.36" fill="white"/>
</clipPath>
</defs>
</svg>
